<?xml version="1.0" encoding="UTF-8" standalone="no"?>
<svg
   xmlns:dc="http://purl.org/dc/elements/1.1/"
   xmlns:cc="http://creativecommons.org/ns#"
   xmlns:rdf="http://www.w3.org/1999/02/22-rdf-syntax-ns#"
   xmlns:svg="http://www.w3.org/2000/svg"
   xmlns="http://www.w3.org/2000/svg"
   xmlns:sodipodi="http://sodipodi.sourceforge.net/DTD/sodipodi-0.dtd"
   xmlns:inkscape="http://www.inkscape.org/namespaces/inkscape"
   id="a5f74472-7ecd-48f3-bbcf-6d4dac68fd10"
   data-name="Layer 1"
   width="737.96283"
   height="671.46313"
   viewBox="0 0 737.96281 671.46311"
   version="1.1"
   sodipodi:docname="undraw_Hiring_re_yk5n.svg"
   inkscape:version="0.92.4 (5da689c313, 2019-01-14)">
  <metadata
     id="metadata1081">
    <rdf:RDF>
      <cc:Work
         rdf:about="">
        <dc:format>image/svg+xml</dc:format>
        <dc:type
           rdf:resource="http://purl.org/dc/dcmitype/StillImage" />
        <dc:title></dc:title>
      </cc:Work>
    </rdf:RDF>
  </metadata>
  <defs
     id="defs1079" />
  <sodipodi:namedview
     pagecolor="#ffffff"
     bordercolor="#666666"
     borderopacity="1"
     objecttolerance="10"
     gridtolerance="10"
     guidetolerance="10"
     inkscape:pageopacity="0"
     inkscape:pageshadow="2"
     inkscape:window-width="1920"
     inkscape:window-height="1017"
     id="namedview1077"
     showgrid="false"
     inkscape:zoom="0.9182285"
     inkscape:cx="87.8551"
     inkscape:cy="351.3579"
     inkscape:window-x="-8"
     inkscape:window-y="-8"
     inkscape:window-maximized="1"
     inkscape:current-layer="a5f74472-7ecd-48f3-bbcf-6d4dac68fd10"
     fit-margin-top="20"
     fit-margin-left="20"
     fit-margin-right="20"
     fit-margin-bottom="20" />
  <path
     d="M 325.05363,542.25194 H 33.82909 A 13.84469,13.84469 0 0 1 20,528.42284 V 133.07333 a 13.84468,13.84468 0 0 1 13.82909,-13.82909 h 291.22454 a 13.84468,13.84468 0 0 1 13.82909,13.82909 v 395.34951 a 13.84469,13.84469 0 0 1 -13.82909,13.8291 z"
     id="path949"
     inkscape:connector-curvature="0"
     style="fill:#ffffff" />
  <path
     d="m 166.31306,222.13501 a 54.10671,54.10671 0 0 1 -37.34148,51.44415 c -0.32462,0.10327 -0.649,0.20652 -0.97865,0.30487 -1.40626,0.43272 -2.83221,0.80151 -4.28289,1.11622 a 53.17173,53.17173 0 0 1 -7.97083,1.10638 q -1.7478,0.118 -3.51578,0.118 a 53.99524,53.99524 0 0 1 -17.88405,-3.029 c -0.16711,-0.059 -0.33422,-0.118 -0.49653,-0.177 a 54.09488,54.09488 0 1 1 72.47021,-50.88358 z"
     id="path951"
     inkscape:connector-curvature="0"
     style="fill:#ffffff" />
  <circle
     cx="110.92753"
     cy="231.65492"
     r="26.31665"
     id="circle953"
     style="fill:#a26859;fill-opacity:1" />
  <path
     d="m 112.46389,245.83427 0.0274,-0.98345 c -1.82956,-0.0509 -3.44255,-0.16567 -4.65457,-1.05116 a 3.02308,3.02308 0 0 1 -1.171,-2.22668 1.72809,1.72809 0 0 1 0.56687,-1.42331 2.97858,2.97858 0 0 1 3.04278,-0.0269 l 0.8137,0.37311 -1.56037,-11.40327 -0.97432,0.1335 1.32727,9.7 a 3.47153,3.47153 0 0 0 -3.28384,0.47252 2.69019,2.69019 0 0 0 -0.91478,2.20891 3.999,3.999 0 0 0 1.57361,2.98636 c 1.55729,1.13807 3.58109,1.19471 5.20728,1.24036 z"
     id="path955"
     inkscape:connector-curvature="0"
     style="fill:#2f2e41" />
  <rect
     x="98.439201"
     y="230.06261"
     width="5.2965999"
     height="0.98345"
     id="rect957"
     style="fill:#2f2e41" />
  <rect
     x="115.15781"
     y="230.06261"
     width="5.2965999"
     height="0.98345"
     id="rect959"
     style="fill:#2f2e41" />
  <path
     d="m 118.40432,268.44556 a 4.81423,4.81423 0 0 0 0.10828,-0.98345 4.67877,4.67877 0 0 0 -4.67138,-4.67137 h -6.88413 a 4.67553,4.67553 0 0 0 -4.67138,4.67137 4.54308,4.54308 0 0 0 0.108,0.98837 26.42417,26.42417 0 0 0 -7.28222,3.60435 c -0.4329,0.29994 -0.86052,0.62447 -1.26869,0.96376 0.16231,0.059 0.32942,0.118 0.49653,0.177 a 53.99524,53.99524 0 0 0 17.88405,3.029 q 1.77014,0 3.51578,-0.118 a 53.17173,53.17173 0 0 0 7.97083,-1.10638 c 1.45068,-0.31471 2.87663,-0.6835 4.28289,-1.11622 a 26.65042,26.65042 0 0 0 -9.58856,-5.43843 z"
     id="path961"
     style="fill:#383838;fill-opacity:1"
     inkscape:connector-curvature="0" />
  <path
     d="m 117.51931,275.48213 a 3.61831,3.61831 0 0 0 -1.7801,0.6245 53.17173,53.17173 0 0 0 7.97083,-1.10638 z"
     id="path963"
     inkscape:connector-curvature="0"
     style="fill:#2f2e41" />
  <path
     d="M 134.79511,225.40332 89.07763,208.67851 a 1.96691,1.96691 0 0 1 -1.17142,-2.52292 l 0.15466,-0.73121 c 3.57044,-9.75984 15.40471,-15.90222 25.16455,-12.33178 l 14.06831,5.14661 c 9.75984,3.57044 14.00169,15.12739 10.43125,24.88723 l -0.407,1.10546 a 1.96689,1.96689 0 0 1 -2.52287,1.17142 z"
     id="path965"
     style="fill:#383838;fill-opacity:1"
     inkscape:connector-curvature="0" />
  <path
     d="M 137.25775,226.33135 C 73.53653,228.68254 67.96862,220.67611 87.38403,208.0861 l 4.11891,-7.579 47.20549,17.21038 z"
     id="path967"
     style="fill:#383838;fill-opacity:1"
     inkscape:connector-curvature="0" />
  <ellipse
     cx="-152.78264"
     cy="172.02383"
     rx="2.21276"
     ry="4.1796498"
     transform="rotate(-73.26954)"
     id="ellipse969"
     style="fill:#383838;fill-opacity:1" />
  <path
     d="m 112.22343,277.69981 a 55.43048,55.43048 0 0 1 -18.37181,-3.11193 l -0.51322,-0.183 a 55.56481,55.56481 0 1 1 36.08925,0.5772 c -0.34947,0.11117 -0.6784,0.21561 -1.01262,0.31549 -1.39666,0.42978 -2.87844,0.81586 -4.39238,1.14408 a 54.76309,54.76309 0 0 1 -8.1928,1.13711 c -1.18393,0.0802 -2.40028,0.12105 -3.60642,0.12105 z m 0,-108.17925 A 52.62192,52.62192 0 0 0 94.34382,271.63105 l 0.48716,0.17359 a 52.47405,52.47405 0 0 0 17.39245,2.94483 c 1.14012,0 2.28947,-0.0387 3.41626,-0.11477 a 51.87031,51.87031 0 0 0 7.75846,-1.07637 c 1.432,-0.31045 2.83209,-0.6754 4.161,-1.084 0.32906,-0.0984 0.64143,-0.19784 0.95392,-0.29724 A 52.62185,52.62185 0 0 0 112.22343,169.52056 Z"
     id="path971"
     style="fill:#cecece;fill-opacity:1"
     inkscape:connector-curvature="0" />
  <path
     d="M 38.58825,388.41362"
     id="path973"
     inkscape:connector-curvature="0"
     style="fill:#f2f2f2" />
  <path
     d="M 325.05363,542.25194 H 33.82909 A 13.84469,13.84469 0 0 1 20,528.42284 V 133.07333 a 13.84468,13.84468 0 0 1 13.82909,-13.82909 h 291.22454 a 13.84468,13.84468 0 0 1 13.82909,13.82909 v 395.34951 a 13.84469,13.84469 0 0 1 -13.82909,13.8291 z M 33.82909,120.87119 a 12.216,12.216 0 0 0 -12.20214,12.20214 v 395.34951 a 12.216,12.216 0 0 0 12.20214,12.20215 h 291.22454 a 12.216,12.216 0 0 0 12.20214,-12.20215 V 133.07333 a 12.216,12.216 0 0 0 -12.20214,-12.20214 z"
     id="path975"
     inkscape:connector-curvature="0"
     style="fill:#cccccc" />
  <path
     d="m 268.67603,221.92447 h -82.40652 a 6.5193,6.5193 0 0 1 0,-13.03859 h 82.40652 a 6.5193,6.5193 0 1 1 0,13.03859 z"
     id="path977"
     style="fill:#f0f0f0;fill-opacity:1"
     inkscape:connector-curvature="0" />
  <path
     d="m 295.56811,243.92708 h -109.2986 a 6.5193,6.5193 0 0 1 0,-13.03859 h 109.2986 a 6.5193,6.5193 0 0 1 0,13.03859 z"
     id="path979"
     style="fill:#f0f0f0;fill-opacity:1"
     inkscape:connector-curvature="0" />
  <path
     d="M 268.55606,328.31622 H 63.31461 a 6.5193,6.5193 0 1 1 0,-13.03859 h 205.24145 a 6.5193,6.5193 0 0 1 0,13.03859 z"
     id="path981"
     style="fill:#f0f0f0;fill-opacity:1"
     inkscape:connector-curvature="0" />
  <path
     d="M 295.44813,350.31883 H 63.31461 a 6.5193,6.5193 0 1 1 0,-13.03859 h 232.13352 a 6.5193,6.5193 0 1 1 0,13.03859 z"
     id="path983"
     style="fill:#f0f0f0;fill-opacity:1"
     inkscape:connector-curvature="0" />
  <path
     d="M 268.55606,400.88926 H 63.31461 a 6.51929,6.51929 0 1 1 0,-13.03858 h 205.24145 a 6.51929,6.51929 0 0 1 0,13.03858 z"
     id="path985"
     style="fill:#f0f0f0;fill-opacity:1"
     inkscape:connector-curvature="0" />
  <path
     d="M 295.44813,422.89187 H 63.31461 a 6.51929,6.51929 0 1 1 0,-13.03858 h 232.13352 a 6.51929,6.51929 0 1 1 0,13.03858 z"
     id="path987"
     style="fill:#f0f0f0;fill-opacity:1"
     inkscape:connector-curvature="0" />
  <path
     d="M 268.55606,473.46231 H 63.31461 a 6.51929,6.51929 0 1 1 0,-13.03858 h 205.24145 a 6.51929,6.51929 0 0 1 0,13.03858 z"
     id="path989"
     style="fill:#f0f0f0;fill-opacity:1"
     inkscape:connector-curvature="0" />
  <path
     d="M 295.44813,495.46492 H 63.31461 a 6.51929,6.51929 0 1 1 0,-13.03858 h 232.13352 a 6.51929,6.51929 0 1 1 0,13.03858 z"
     id="path991"
     style="fill:#f0f0f0;fill-opacity:1"
     inkscape:connector-curvature="0" />
  <path
     d="m 704.13378,443.0077 -291.22453,2.4e-4 A 13.84468,13.84468 0 0 1 399.08014,429.17886 L 399.07981,33.82935 A 13.84469,13.84469 0 0 1 412.9089,20.00024 L 704.13343,20 a 13.84469,13.84469 0 0 1 13.82911,13.82909 l 3.2e-4,395.34951 a 13.84467,13.84467 0 0 1 -13.82908,13.8291 z"
     id="path993"
     inkscape:connector-curvature="0"
     style="fill:#ffffff" />
  <path
     d="m 704.13378,443.0077 -291.22453,2.4e-4 A 13.84468,13.84468 0 0 1 399.08014,429.17886 L 399.07981,33.82935 A 13.84469,13.84469 0 0 1 412.9089,20.00024 L 704.13343,20 a 13.84469,13.84469 0 0 1 13.82911,13.82909 l 3.2e-4,395.34951 a 13.84467,13.84467 0 0 1 -13.82908,13.8291 z M 412.9089,21.62719 a 12.216,12.216 0 0 0 -12.20214,12.20216 l 3.3e-4,395.3495 a 12.216,12.216 0 0 0 12.20215,12.20214 l 291.22454,-2.4e-4 a 12.216,12.216 0 0 0 12.20213,-12.20213 L 716.33559,33.82911 A 12.216,12.216 0 0 0 704.13343,21.62696 Z"
     id="path995"
     inkscape:connector-curvature="0"
     style="fill:#cccccc" />
  <path
     d="m 545.52963,122.35195 a 54.08962,54.08962 0 1 1 -54.08967,-54.08959 54.10671,54.10671 0 0 1 54.08967,54.08959 z"
     id="path997"
     inkscape:connector-curvature="0"
     style="fill:#ffffff" />
  <path
     d="m 516.43928,131.60723 c -0.59076,34.5932 -52.04749,34.58783 -52.63325,-10e-4 0.59072,-34.59209 52.0474,-34.58671 52.63325,10e-4 z"
     id="path999"
     style="fill:#ffb9b9;fill-opacity:1"
     inkscape:connector-curvature="0" />
  <path
     d="m 489.078,142.34453 -0.0274,-0.98345 c 6.77815,0.905 8.2379,-7.49552 1.40218,-4.35492 l 1.56039,-11.40329 0.97433,0.13349 -1.32726,9.7 c 7.19745,-1.07135 4.53516,7.89103 -2.58227,6.90817 z"
     id="path1001"
     style="fill:#383838;fill-opacity:1"
     inkscape:connector-curvature="0" />
  <rect
     x="497.80609"
     y="126.57286"
     width="5.2965999"
     height="0.98345"
     id="rect1003"
     style="fill:#383838;fill-opacity:1" />
  <rect
     x="481.08749"
     y="126.57287"
     width="5.2965999"
     height="0.98345"
     id="rect1005"
     style="fill:#383838;fill-opacity:1" />
  <path
     d="m 498.65359,168.40194 c 1.03266,-6.96775 -7.125,-5.5909 -11.44243,-5.65974 a 4.68023,4.68023 0 0 0 -4.56309,5.65483 25.58847,25.58847 0 0 0 -9.09208,5.01559 54.32367,54.32367 0 0 0 34.6322,0.38351 25.45685,25.45685 0 0 0 -9.5346,-5.39419 z"
     id="path1007"
     style="fill:#383838;fill-opacity:1"
     inkscape:connector-curvature="0" />
  <path
     d="m 477.75003,119.16017 c 4.87711,-2.81868 10.79159,-0.65626 15.82946,0.526 9.55827,2.93829 22.962,-0.74109 24.12429,-12.12714 1.20957,-10.58923 -13.27612,-16.491 -17.90609,-5.95164 l 1.34812,-0.1762 c -15.01567,-22.31547 -41.135,-21.46913 -40.96321,9.21072 -0.0557,0.94779 1.41969,0.94459 1.47487,-5.7e-4 -0.55282,-18.07915 11.41221,-30.43755 28.32579,-18.8191 a 49.83115,49.83115 0 0 1 9.88878,10.3535 c 1.76146,1.974 2.14424,-6.52733 10.57493,-4.30063 9.27822,3.59448 6.25079,16.88013 -2.04229,19.79671 -10.24677,5.235 -21.34437,-4.915 -31.39927,0.21394 a 0.73844,0.73844 0 0 0 0.74462,1.27441 z"
     id="path1009"
     style="fill:#383838;fill-opacity:1"
     inkscape:connector-curvature="0" />
  <path
     d="m 491.44005,177.91679 a 55.518,55.518 0 1 1 17.20421,-2.7177 55.43053,55.43053 0 0 1 -17.20421,2.7177 z m -9e-5,-108.17925 a 52.62192,52.62192 0 1 0 52.61447,52.61441 52.674,52.674 0 0 0 -52.61447,-52.61441 z"
     id="path1011"
     style="fill:#cecece;fill-opacity:1"
     inkscape:connector-curvature="0" />
  <path
     d="m 647.75592,122.68028 -82.40652,7e-5 a 6.519295,6.519295 0 0 1 0,-13.03859 l 82.40652,-6e-5 a 6.51929,6.51929 0 1 1 0,13.03858 z"
     id="path1013"
     style="fill:#f0f0f0;fill-opacity:1"
     inkscape:connector-curvature="0" />
  <path
     d="m 674.64802,144.68287 -109.2986,9e-5 a 6.5193,6.5193 0 1 1 0,-13.03859 l 109.2986,-9e-5 a 6.519295,6.519295 0 0 1 0,13.03859 z"
     id="path1015"
     style="fill:#f0f0f0;fill-opacity:1"
     inkscape:connector-curvature="0" />
  <path
     d="m 647.63603,229.07203 -205.24145,1.7e-4 a 6.5193,6.5193 0 0 1 0,-13.03859 l 205.24145,-1.6e-4 a 6.51929,6.51929 0 1 1 0,13.03858 z"
     id="path1017"
     style="fill:#f0f0f0;fill-opacity:1"
     inkscape:connector-curvature="0" />
  <path
     d="m 674.52813,251.07462 -232.13353,1.9e-4 a 6.5193,6.5193 0 1 1 0,-13.03859 l 232.13353,-1.9e-4 a 6.519295,6.519295 0 0 1 0,13.03859 z"
     id="path1019"
     style="fill:#f0f0f0;fill-opacity:1"
     inkscape:connector-curvature="0" />
  <path
     d="m 647.63609,301.64508 -205.24145,1.7e-4 a 6.5193,6.5193 0 0 1 0,-13.03859 l 205.24145,-1.7e-4 a 6.519295,6.519295 0 0 1 0,13.03859 z"
     id="path1021"
     style="fill:#f0f0f0;fill-opacity:1"
     inkscape:connector-curvature="0" />
  <path
     d="m 674.52819,323.64767 -232.13353,1.9e-4 a 6.5193,6.5193 0 1 1 0,-13.03859 l 232.13353,-1.9e-4 a 6.519295,6.519295 0 0 1 0,13.03859 z"
     id="path1023"
     style="fill:#f0f0f0;fill-opacity:1"
     inkscape:connector-curvature="0" />
  <path
     d="m 647.63615,374.21812 -205.24145,1.7e-4 a 6.51929,6.51929 0 1 1 0,-13.03858 l 205.24145,-1.7e-4 a 6.51929,6.51929 0 1 1 0,13.03858 z"
     id="path1025"
     style="fill:#f0f0f0;fill-opacity:1"
     inkscape:connector-curvature="0" />
  <path
     d="m 674.52825,396.22071 -232.13353,1.9e-4 a 6.51929,6.51929 0 1 1 0,-13.03858 l 232.13353,-1.9e-4 a 6.51929,6.51929 0 0 1 0,13.03858 z"
     id="path1027"
     style="fill:#f0f0f0;fill-opacity:1"
     inkscape:connector-curvature="0" />
  <path
     d="M 528.42271,613.02438 H 237.19818 a 13.84469,13.84469 0 0 1 -13.8291,-13.8291 v -395.3495 a 13.84469,13.84469 0 0 1 13.8291,-13.8291 h 291.22453 a 13.84469,13.84469 0 0 1 13.8291,13.8291 v 395.3495 a 13.84469,13.84469 0 0 1 -13.8291,13.8291 z"
     id="path1029"
     inkscape:connector-curvature="0"
     style="fill:#ffffff" />
  <path
     d="m 261.48705,291.7955 a 53.92579,53.92579 0 0 0 15.90227,38.3102 c 0.42306,0.418 0.85572,0.83593 1.29318,1.24407 a 54.01435,54.01435 0 0 0 8.58572,6.54484 c 0.58992,0.36388 1.18009,0.713 1.7849,1.0523 a 53.78428,53.78428 0 0 0 9.77541,4.29274 c 0.58512,0.19178 1.18009,0.37372 1.77506,0.54089 a 54.31267,54.31267 0 0 0 32.85714,-0.92442 c 0.20649,-0.0738 0.413,-0.14754 0.61465,-0.22128 A 54.09429,54.09429 0 1 0 261.48705,291.7955 Z"
     id="path1031"
     inkscape:connector-curvature="0"
     style="fill:#ffffff" />
  <path
     d="m 304.154,318.30711 a 16.7613,16.7613 0 0 1 -4.32915,11.347 c -2.78119,3.05219 -6.92159,5.07636 -11.09981,4.23887 -3.84733,-0.77116 -6.97372,-4.13377 -6.58368,-8.2017 a 6.07575,6.07575 0 0 1 7.507,-5.45575 c 3.65482,0.94846 5.11106,6.21585 2.0655,8.68824 -0.73081,0.59327 -1.78071,-0.44431 -1.04311,-1.0431 a 3.68416,3.68416 0 0 0 -1.03874,-6.1067 4.62957,4.62957 0 0 0 -6.03027,4.09386 c -0.24123,3.42942 2.38594,6.01205 5.60772,6.6201 3.48529,0.65777 6.94084,-1.12607 9.30247,-3.5882 a 15.22129,15.22129 0 0 0 4.16685,-10.59263 0.738,0.738 0 0 1 1.47517,0 z"
     id="path1033"
     style="fill:#383838;fill-opacity:1"
     inkscape:connector-curvature="0" />
  <circle
     cx="318.5585"
     cy="301.36823"
     r="26.31665"
     id="circle1035"
     style="fill:#ff8d7e;fill-opacity:1" />
  <path
     d="m 317.2121,312.59723 -0.0274,-0.98344 c 1.82956,-0.0509 3.44254,-0.16567 4.65457,-1.05116 a 3.02308,3.02308 0 0 0 1.171,-2.22668 1.72808,1.72808 0 0 0 -0.56687,-1.42331 2.97856,2.97856 0 0 0 -3.04278,-0.0269 l -0.8137,0.37311 1.56041,-11.40329 0.97432,0.1335 -1.32727,9.7 a 3.47153,3.47153 0 0 1 3.28384,0.47252 2.69019,2.69019 0 0 1 0.91478,2.20891 3.999,3.999 0 0 1 -1.57361,2.98636 c -1.55733,1.13809 -3.58113,1.19476 -5.20732,1.24037 z"
     id="path1037"
     style="fill:#383838;fill-opacity:1"
     inkscape:connector-curvature="0" />
  <rect
     x="325.94019"
     y="296.82556"
     width="5.2965999"
     height="0.98345"
     id="rect1039"
     style="fill:#383838;fill-opacity:1" />
  <rect
     x="309.22159"
     y="296.82556"
     width="5.2965999"
     height="0.98345"
     id="rect1041"
     style="fill:#383838;fill-opacity:1" />
  <path
     d="m 300.60359,343.78054 a 54.31267,54.31267 0 0 0 32.85714,-0.92442 c 0.20649,-0.0738 0.413,-0.14754 0.61465,-0.22128 a 26.19511,26.19511 0 0 0 -8.33481,-4.30751 4.19325,4.19325 0 0 0 -0.01,-2.3111 4.651,4.651 0 0 0 -4.49922,-3.26506 h -6.41192 a 4.63483,4.63483 0 0 0 -4.48938,3.26013 4.21082,4.21082 0 0 0 -0.01,2.316 26.222,26.222 0 0 0 -7.43493,3.64367 q -0.68609,0.47945 -1.32751,1.00313 c -0.32464,0.26063 -0.64421,0.53107 -0.95418,0.80644 z"
     id="path1043"
     style="fill:#383838;fill-opacity:1"
     inkscape:connector-curvature="0" />
  <path
     d="m 339.17462,298.57636 c 0,4.43536 2.18322,8.11345 5.02048,8.75271 a 4.05816,4.05816 0 0 0 0.8802,0.0983 c 3.25023,0 5.90069,-3.96821 5.90069,-8.851 a 10.86875,10.86875 0 0 0 -2.27182,-6.97264 5.69356,5.69356 0 0 0 -1.73592,-1.41124 4.11422,4.11422 0 0 0 -1.89295,-0.46715 4.3143,4.3143 0 0 0 -2.51288,0.84578 c -2.00123,1.41614 -3.3878,4.46973 -3.3878,8.00522 z"
     id="path1045"
     style="fill:#383838;fill-opacity:1"
     inkscape:connector-curvature="0" />
  <path
     d="m 286.56016,298.57636 c 0,3.81579 1.61275,7.071 3.87473,8.31507 a 4.19952,4.19952 0 0 0 2.026,0.536 3.80084,3.80084 0 0 0 0.472,-0.0295 c 3.02885,-0.35895 5.42865,-4.17473 5.42865,-8.82153 0,-3.72235 -1.53928,-6.91363 -3.71266,-8.21668 a 4.21673,4.21673 0 0 0 -2.188,-0.63435 4.11441,4.11441 0 0 0 -1.89318,0.46715 5.72571,5.72571 0 0 0 -1.74073,1.41617 10.88982,10.88982 0 0 0 -2.26681,6.96767 z"
     id="path1047"
     style="fill:#383838;fill-opacity:1"
     inkscape:connector-curvature="0" />
  <path
     d="m 290.80289,306.04295 a 0.73822,0.73822 0 0 0 0.699,-0.97361 28.76517,28.76517 0 1 1 55.411,-3.23294 0.73762,0.73762 0 0 0 1.44348,0.30445 30.24147,30.24147 0 1 0 -58.25236,3.40005 0.738,0.738 0 0 0 0.69888,0.50205 z"
     id="path1049"
     style="fill:#383838;fill-opacity:1"
     inkscape:connector-curvature="0" />
  <path
     d="m 331.77864,284.31736 a 3.688,3.688 0 0 1 -0.56959,4.56579 c -1.4287,1.59585 -3.707,1.69653 -5.68522,1.40034 -2.21979,-0.33237 -4.57431,-1.37236 -6.82165,-0.67151 -1.91544,0.59735 -3.28185,2.33468 -5.27182,2.77105 -1.76481,0.387 -3.87518,-0.12528 -4.49385,-2.00631 -0.29729,-0.9039 1.12675,-1.29132 1.42248,-0.39216 0.40024,1.21691 2.1285,1.19265 3.11824,0.85566 1.58674,-0.54024 2.80958,-1.85431 4.36916,-2.482 a 9.56045,9.56045 0 0 1 5.70559,0.0156 c 1.76446,0.39733 3.79511,0.98642 5.55287,0.24422 1.30069,-0.54921 2.33562,-2.27912 1.4,-3.5562 -0.56165,-0.76665 0.71784,-1.50339 1.27376,-0.74455 z"
     id="path1051"
     style="fill:#383838;fill-opacity:1"
     inkscape:connector-curvature="0" />
  <path
     d="m 315.57667,347.3603 a 55.46229,55.46229 0 0 1 -15.382,-2.16258 c -0.58759,-0.16495 -1.205,-0.35294 -1.82518,-0.55607 a 55.4155,55.4155 0 0 1 -10.04,-4.40919 c -0.59881,-0.3359 -1.1999,-0.69028 -1.8355,-1.08212 a 55.612,55.612 0 0 1 -8.81874,-6.72279 c -0.44676,-0.41681 -0.88951,-0.84467 -1.32241,-1.272 a 55.56016,55.56016 0 1 1 58.22678,12.86574 c -0.20294,0.0742 -0.41291,0.1491 -0.62293,0.224 a 55.4364,55.4364 0 0 1 -18.38002,3.11501 z m 0,-108.17925 a 52.61688,52.61688 0 0 0 -37.1458,89.88006 c 0.40817,0.40313 0.83075,0.8113 1.258,1.2101 a 52.66784,52.66784 0 0 0 8.3521,6.367 c 0.60217,0.3712 1.1688,0.70518 1.73382,1.02211 a 52.44556,52.44556 0 0 0 9.50938,4.17629 c 0.58392,0.19136 1.16088,0.36711 1.71833,0.52366 a 52.8369,52.8369 0 0 0 31.97052,-0.8963 l 0.596,-0.21464 A 52.62112,52.62112 0 0 0 315.57668,239.18109 Z"
     id="path1053"
     inkscape:connector-curvature="0"
     style="fill:#cccccc" />
  <path
     d="M 528.42271,613.02438 H 237.19818 a 13.84469,13.84469 0 0 1 -13.8291,-13.8291 v -395.3495 a 13.84469,13.84469 0 0 1 13.8291,-13.8291 h 291.22453 a 13.84469,13.84469 0 0 1 13.8291,13.8291 v 395.3495 a 13.84469,13.84469 0 0 1 -13.8291,13.8291 z M 237.19818,191.64362 a 12.216,12.216 0 0 0 -12.20214,12.20215 v 395.3495 a 12.216,12.216 0 0 0 12.20214,12.20215 h 291.22453 a 12.216,12.216 0 0 0 12.20215,-12.20215 V 203.84578 a 12.216,12.216 0 0 0 -12.20215,-12.20216 z"
     id="path1055"
     style="fill:#383838;fill-opacity:1"
     inkscape:connector-curvature="0" />
  <path
     d="M 472.04512,292.69691 H 389.6386 a 6.51929,6.51929 0 1 1 0,-13.03858 h 82.40652 a 6.51929,6.51929 0 1 1 0,13.03858 z"
     id="path1057"
     style="fill:#5770be;fill-opacity:1"
     inkscape:connector-curvature="0" />
  <path
     d="M 498.9372,314.69952 H 389.6386 a 6.51929,6.51929 0 1 1 0,-13.03858 h 109.2986 a 6.51929,6.51929 0 0 1 0,13.03858 z"
     id="path1059"
     style="fill:#5770be;fill-opacity:1"
     inkscape:connector-curvature="0" />
  <path
     d="M 471.92514,399.08862 H 266.68369 a 6.51929,6.51929 0 0 1 0,-13.03858 h 205.24145 a 6.51929,6.51929 0 0 1 0,13.03858 z"
     id="path1061"
     style="fill:#cecece;fill-opacity:1"
     inkscape:connector-curvature="0" />
  <path
     d="M 498.81722,421.09127 H 266.68369 a 6.51929,6.51929 0 0 1 0,-13.03858 h 232.13353 a 6.51929,6.51929 0 0 1 0,13.03858 z"
     id="path1063"
     style="fill:#cecece;fill-opacity:1"
     inkscape:connector-curvature="0" />
  <path
     d="M 471.92514,471.66171 H 266.68369 a 6.5193,6.5193 0 0 1 0,-13.03859 h 205.24145 a 6.519295,6.519295 0 0 1 0,13.03859 z"
     id="path1065"
     style="fill:#cecece;fill-opacity:1"
     inkscape:connector-curvature="0" />
  <path
     d="M 498.81722,493.66432 H 266.68369 a 6.5193,6.5193 0 0 1 0,-13.03859 h 232.13353 a 6.519295,6.519295 0 0 1 0,13.03859 z"
     id="path1067"
     style="fill:#cecece;fill-opacity:1"
     inkscape:connector-curvature="0" />
  <path
     d="M 471.92514,544.23475 H 266.68369 a 6.51929,6.51929 0 0 1 0,-13.03858 h 205.24145 a 6.51929,6.51929 0 0 1 0,13.03858 z"
     id="path1069"
     style="fill:#cecece;fill-opacity:1"
     inkscape:connector-curvature="0" />
  <path
     d="M 498.81722,566.23736 H 266.68369 a 6.51929,6.51929 0 0 1 0,-13.03858 h 232.13353 a 6.51929,6.51929 0 1 1 0,13.03858 z"
     id="path1071"
     style="fill:#cecece;fill-opacity:1"
     inkscape:connector-curvature="0" />
  <path
     d="m 525.04359,523 a 64.2316,64.2316 0 1 0 -4.4e-4,128.46312 h 4.4e-4 a 64.23166,64.23166 0 0 0 0,-128.46312 z"
     id="path1073"
     style="fill:#91ae4f;fill-opacity:1"
     inkscape:connector-curvature="0" />
  <path
     id="ba2462e0-2d61-4715-874d-575d790dfdd0"
     data-name="f276b720-7c73-4755-84a7-b208d54eb1fc"
     d="m 518.94899,613.90731 a 7.79562,7.79562 0 0 1 -4.68966,-1.55861 l -0.084,-0.0629 -17.66375,-13.5121 a 7.84966,7.84966 0 0 1 9.55173,-12.45925 l 11.44118,8.77354 27.03609,-35.27147 a 7.84631,7.84631 0 0 1 11.00085,-1.4532 l 1.5e-4,1.4e-4 0.002,0.002 -0.1678,0.233 0.17226,-0.233 a 7.85576,7.85576 0 0 1 1.4513,11.003 l -31.79999,41.46816 a 7.85071,7.85071 0 0 1 -6.24352,3.0612 z"
     inkscape:connector-curvature="0"
     style="fill:#ffffff" />
</svg>
