<?xml version="1.0" encoding="utf-8"?>
<!-- Generator: Adobe Illustrator 22.1.0, SVG Export Plug-In . SVG Version: 6.00 Build 0)  -->
<svg version="1.1" id="Calque_1" xmlns="http://www.w3.org/2000/svg" xmlns:xlink="http://www.w3.org/1999/xlink" x="0px" y="0px"
	 viewBox="0 0 1080 1080" style="enable-background:new 0 0 1080 1080;" xml:space="preserve">
<style type="text/css">
	.st0{fill:#FFFFFF;}
	.st1{fill:none;}
	.st2{fill:#000091;}
	.st3{fill:#E1000F;}
	.st4{fill:#808080;}
</style>
<g>
	<rect y="0" class="st0" width="1080" height="1080"/>
	<g>
		<path class="st1" d="M0,784.7v10.5c4-2.4,7.7-5,11.8-7.2C7.9,785.3,3.9,784.8,0,784.7z"/>
		<path class="st1" d="M3.3,695.1c5.2,5.2,15.5,3.4,22.3,0c5.1-3.4,10.3-3.4,17.2-3.4c1.7,0,1.7-3.4,1.7-5.1
			c5.1,1.7,8.6,1.7,13.7,1.7c41.2-8.6,80.7-17.2,118.5-36.1c-44.7-34.4-101.3-46.4-154.6-61.8c5.2,0,10.3,5.1,15.5,0
			c-8.6-6.9-18.9-3.4-27.5-8.6c1.7,0,5.2,1.7,6.9-1.7c-5.7-2.8-11.3-4.4-17-5.6v117.3h10.1C8.4,695.1,1.5,693.4,3.3,695.1z"/>
		<path class="st1" d="M51.4,708.9c-6.9,3.4-18.9,3.4-20.6,12c-1.7,3.4,5.2,1.7,8.6,1.7c12-5.2,25.8,0,36.1-10.3
			c-3.4-3.4-8.6-1.7-12-6.9C59.9,703.7,54.8,707.2,51.4,708.9z"/>
		<path class="st1" d="M5,475.2c0,1.7,0,3.4-1.7,5.1c1.7,1.7,3.4,1.7,5.2,1.7c6.9-5.2,15.5-3.4,20.6-10.3c-8.9-3.3-19.1-5-29-4.5
			v12.5C1.6,478.2,3.4,476.9,5,475.2z"/>
		<path class="st2" d="M76.3,840.2c2.5-1.2,4.7-2.7,6.7-4.4c-0.3-0.1-0.6-0.1-0.8-0.2c-2.2,1.6-4.4,3.2-6.6,5
			C75.8,840.5,76.1,840.3,76.3,840.2z"/>
		<path class="st2" d="M54.8,530.2c29.2-8.6,56.7-18.9,87.6-17.2c-5.1-1.7-12,0-17.2,0c-24-1.7-48.1,5.2-73.9,10.3
			c-17.2,3.4-32.6,10.3-49.8,13.7c-0.6,0.2-1,0.6-1.5,0.8v7.2C17.5,537.2,36.3,535.7,54.8,530.2z"/>
		<path class="st2" d="M17,580c-1.7,3.4-5.2,1.7-6.9,1.7c8.6,5.2,18.9,1.7,27.5,8.6c-5.1,5.1-10.3,0-15.5,0
			c53.3,15.5,109.9,27.5,154.6,61.8c-37.8,18.9-77.3,27.5-118.5,36.1c-5.2,0-8.6,0-13.7-1.7c0,1.7,0,5.1-1.7,5.1
			c-6.9,0-12,0-17.2,3.4c-6.9,3.4-17.2,5.2-22.3,0c-1.7-1.7,5.2,0,6.9-3.4H0v93c3.9,0.1,7.9,0.6,11.8,3.2c-4.2,2.3-7.8,4.8-11.8,7.2
			v233.4c11.6-11.7,34-31.3,73.5-54.9c39.3-23.5,85.9-44,131.5-66.5c21.6-10.6,70.9-33.3,87.6-50c9.8-9.8,30.6-31.7,40.3-42.2h-0.2
			c18.2-20.6,36.1-40.4,57.3-58.5c6.5-5.8,12.7-10.8,18.7-14.9c1.7-1.7,1.7-5.1,3.4-6.9c-8.6,3.4-13.7,10.3-22.3,13.7
			c-1.7,0-3.4-1.7-1.7-3.4c6.1-4.6,12.2-9.2,18.3-13.8c-0.4,0-0.8,0-1.2,0c-1.7,0-1.7-1.7-1.7-3.4c-22.3-3.4-39.5,12-55,25.8
			c-3.4,1.7-6.9-1.7-8.6-1.7c-25.8,8.6-44.7,30.9-70.4,41.2v-3.4c-10.3,3.4-20.3,9.7-30.9,12c-15.5,3.4-29.2,1.7-42.9,1.7
			c-20.8,2.1-41.6,6.7-62.5,11.1c-0.6,0.2-1.2,0.3-1.8,0.4c-11.2,3.1-21.7,7.2-32,12.9c-0.4,0.2-0.8,0.4-1.2,0.7
			c-0.9,1.1-1.7,2.1-2.5,3c-3.7,4.1-6.9,7.8-11.8,10.3c-10.6,5.4-19.2,14.7-28.5,22.3c-0.7,0.5-1.7,0.8-2.8,0.9
			c-9.2,8.8-18.3,17.8-27.7,26.5c-0.7,0.6-3.3,1-5.2,0.6c0-0.1,0.1-0.1,0.1-0.2c0.3-0.5,0.7-1.1,1-1.6c1.5-2.4,2.9-4.8,4.4-7.2
			c1.7-2.7,3.4-5.4,5.1-8c2.3-3.6,4.7-7.1,7.3-10.5c0.7-0.9,0.5-1.7-0.1-2.3c-0.5-0.6-1.4-0.9-2.4-0.9c8.6-8.3,18.8-15.4,28.8-21.5
			v-0.3c-1.2,0.4-2.8-0.5-1.9-1.7c1.1-1.5,1.9-3.1,3-4.7c0.2-0.5,0.4-1,0.6-1.5c-0.4-0.5-0.9-0.9-1.3-1.4c-2.8,1.8-5.7,3.5-8.1,5.6
			c-4.1,3.7-7.3,11.3-13.6,11.2c-0.4,0-1.6-0.1-2.6-0.4c-0.7-0.1-1.4-0.3-1.8-0.6l0.2-0.4c0.1-0.2,0.2-0.3,0.3-0.5l0.2-0.4
			c0.3-0.5,0.5-1,0.8-1.5c0.3-0.5,0.5-1,0.8-1.5c0.2-0.4,0.4-0.8,0.7-1.2c0.4-0.7,0.8-1.5,1.2-2.2c0.3-0.5,0.6-1,0.9-1.5
			c0.7-1.3,1.5-2.5,2.2-3.8l1.1-1.8c0.6-1,1.2-2.1,1.8-3.1c0.9-1.4,0-2.6-1.3-3.1c3.2-4.1,7.1-7.6,11.8-10.2h-0.5
			c6.6-3.3,13.2-7.3,19.7-11c0.9-0.8,1.9-1.6,2.8-2.5c-9.8,3.3-18.6,7.8-27.3,13.5c0,0-2.3,0.9-2.9,1.6c0,0-2,0.7-4.3-1.6
			c-0.2-0.3-0.4-0.7-0.4-1.3c1.7-3.4,6.9-5.2,10.3-8.6c1.7,0,3.4,0,3.4,1.7c55-42.9,130.6-32.6,194.1-55c5.2-3.4,10.3-6.9,15.5-10.3
			c8.6-3.4,15.5-12,25.8-17.2c13.7-10.3,24-22.3,29.2-39.5c0-1.7-1.7-3.4-1.7-3.4c-22.3,24-48.1,43-75.6,56.7
			c-36.1,18.9-75.6,15.5-113.4,20.6c1.7-3.4,5.2-3.4,8.6-3.4c0-5.2,3.4-6.9,6.9-10.3h5.2c1.7,0,1.7-3.4,3.4-3.4
			c3.4,0,8.6-1.7,6.9-1.7c-5.2-6.9-15.5,5.2-24,0c3.4-3.4,1.7-8.6,5.1-10.3h6.9c0-3.4,3.4-6.9,3.4-6.9
			c25.8-15.5,49.8-27.5,73.9-41.2c-5.2,0-8.6,5.2-13.7,1.7c3.4,0,0-5.2,3.4-5.2c18.9-5.2,34.4-15.5,53.2-22.3c-6.9,0-12,5.2-18.9,0
			c3.4-1.7,5.2-5.1,10.3-5.1v-5.2c0-1.7,1.7-1.7,3.4-1.7c-1.7,0-3.4-1.7-3.4-1.7c1.7-3.4,6.9-1.7,10.3-5.2c-1.7,0-5.2,0-5.2-1.7
			c5.2-6.9,13.7-8.6,22.3-10.3c-1.7-3.4-6.9,0-6.9-3.4c0-1.7,1.7-1.7,3.4-1.7H285c-3.4-1.7-1.7-5.2-1.7-6.9
			c10.3-12,10.3-27.5,15.5-41.2c-1.7,0-3.4,0-3.4-1.7c-17.2,18.9-44.7,25.8-70.4,32.6h-8.6c-8.6,3.4-20.6,3.4-29.2-1.7
			c-6.9-3.4-10.3-8.6-17.2-13.7c-13.7-8.6-27.5-15.5-42.9-20.6C85.7,553.1,42.9,546.4,0,547.4v27C5.7,575.7,11.3,577.2,17,580z
			 M39.3,722.6c-3.4,0-10.3,1.7-8.6-1.7c1.7-8.6,13.7-8.6,20.6-12c3.4-1.7,8.6-5.2,12-3.4c3.4,5.2,8.6,3.4,12,6.9
			C65.1,722.6,51.4,717.5,39.3,722.6z"/>
		<path class="st2" d="M0,467.3c9.9-0.5,20.2,1.2,29,4.5c-5.2,6.9-13.7,5.2-20.6,10.3c-1.7,0-3.4,0-5.2-1.7C5,478.7,5,477,5,475.2
			c-1.5,1.7-3.3,3-5,4.5v38.1c11.5-9.1,24.3-15.9,39.3-16.9c30.9-5.2,60.1,0,91,3.4c22.3,1.7,42.9,6.9,65.3,12
			c8.6,0,10.3,13.7,17.2,15.5c10.3,3.4,20.6,0,30.9,6.9c0-3.4-1.7-6.9,0-10.3c6.9-6.9,15.5,1.7,22.3-1.7c13.7-8.6-12-24-18.9-36.1
			c0-1.7,1.7-3.4,1.7-3.4c13.7,12,24,25.8,41.2,34.4c8.6,3.4,29.2,8.6,25.8-1.7c-8.6-18.9-25.8-34.4-39.5-51.5v-6.9
			c-3.4,0-3.4-1.7-5.2-3.4v-6.9c-6.9-3.4-5.2-10.3-8.6-15.5c-5.1-8.6-1.7-20.6-5.1-30.9c-3.4-10.3-5.2-18.9-6.9-29.2
			c-5.1-29.2-12-55-15.5-82.5c-3.4-32.6,18.9-58.4,34.4-87.6c12-20.6,25.8-41.2,48.1-55c5.2-20.6,18.9-37.8,32.6-55
			c13.7-16.8,54.9-42,67.6-54.8C443,15.7,470.9,3.6,470.9,3.6H0V467.3z"/>
		<path class="st3" d="M648.8,0c30.3,0,104.8,22.3,135,38.9c12.1,6.7,35.8,18.9,42.2,22.3c12.6,6.6,24.9,14.9,32.8,27.5
			c3.4,5.2,8.6,15.5,5.1,22.3c-3.4,8.6-5.1,22.3-13.7,25.8c-10.3,5.2-24.1,5.2-36.1,3.4c-6.9,0-13.7-1.7-20.6-3.4
			c25.8,10.3,49.8,22.3,67,46.4c1.7,3.4,8.6,5.2,15.5,5.2c1.7,0,1.7,3.4,1.7,5.1c-3.4,3.4-6.9,5.2-5.2,10.3h5.2
			c8.6-3.4,6.9-20.6,18.9-15.5c8.6,5.1,12,17.2,6.9,25.8c-6.9,6.9-13.7,12-20.6,17.2c-1.7,3.4-1.7,8.6,0,12
			c5.1,6.9,6.9,13.7,8.6,20.6c5.2,12,6.9,25.8,12,37.8c6.9,25.8,13.7,51.5,12,77.3c0,13.7-6.9,25.8-1.7,39.5
			c3.4,13.7,12,24,18.9,36.1c6.9,10.3,13.7,17.2,18.9,27.5c10.3,17.2,29.2,34.4,20.6,55c-5.2,12-24,10.3-36.1,17.2
			c-10.3,8.6-1.7,22.3,3.4,30.9c8.6,15.5-10.3,25.8-22.3,30.9c3.4,5.2,10.3,3.4,12,6.9c1.7,8.6,10.3,13.7,5.2,22.3
			c-6.9,10.3-27.5,15.5-17.2,30.9c6.9,12,2.4,25.4-1.7,37.8c-5.1,15.5-18.9,22.3-30.9,25.8c-10.3,3.4-22.3,3.4-32.6,1.7
			c-3.4-1.7-6.9-3.4-10.3-3.4c-29.2-3.4-58.4-12-87.6-12c-8.6,1.7-17.2,3.4-24,6.9c-7.8,5.7-14.7,11.9-20.8,18.4l-0.2,0.2
			c-1.3,1.4-2.5,2.8-3.7,4.2c-0.7,0.9-1.5,1.8-2.2,2.6c-0.5,0.6-1,1.2-1.5,1.8c-5,6.3-9.5,12.9-13.5,19.8c-0.3,0.4-0.5,0.9-0.8,1.3
			c-0.5,0.8-0.9,1.6-1.3,2.4c-5.6,10.4-9.9,21.1-13,31.5c-11.7,39.3-3.9,79,4.3,87.2c2.3,2.3,147.2,61.1,185.7,81.7
			c52.6,28.2,85.1,68.6,98.9,96H1080V0H648.8z"/>
		<path class="st4" d="M894.9,368.6c-1.7-5.2-15.5-5.2-24.1-8.6c-8.6-3.4-18.9,0-29.2,1.7c-8.6,0-17.2,5.2-25.8,6.9
			c-12,3.4-22.3,10.3-32.6,17.2c12-5.1,24.1-6.9,37.8-10.3c10.3,0,19.1-2.5,29.2,0c6.9,1.7,17.2,1.7,17.2,5.2
			c-3.4,13.7-24.1,17.2-34.4,30.9h-5.1c-5.2,3.4-3.4,12-8.6,12c-5.2-1.7-10.3,0-15.5,1.7c6.9,6.9,15.5,12,25.8,10.3
			c1.7,0,5.2,3.4,5.2,6.9c0,0,1.7,0,3.4-1.7c1.7,0,3.4,0,3.4,1.7v6.9c-5.2,6.9-13.7,3.4-20.6,5.2c13.7,3.4,27.5,3.4,39.5,0
			c10.3-3.4,0-20.6,6.9-29.2c-3.4,0,0-5.1-3.4-5.1c3.4-3.4,6.9-8.6,10.3-10.3c3.4,0,8.6-1.7,10.3-5.2c0-3.4-6.9-5.2-5.1-8.6
			C889.7,389.2,898.3,378.9,894.9,368.6z"/>
	</g>
</g>
</svg>
