<?xml version="1.0" encoding="utf-8"?>
<!-- Generator: Adobe Illustrator 23.0.3, SVG Export Plug-In . SVG Version: 6.00 Build 0)  -->
<svg
  version="1.1"
  id="Layer_1"
  xmlns="http://www.w3.org/2000/svg"
  xmlns:xlink="http://www.w3.org/1999/xlink"
  x="0px"
  y="0px"
  viewBox="0 0 294.5 134.4"
  style="enable-background:new 0 0 294.5 134.4;"
  xml:space="preserve"
>
  <style type="text/css">
    .st0 {
      fill: #85b0d5;
    }
    .st1 {
      fill: #b30837;
    }
    .st2 {
      fill: #cee6f9;
    }
    .st3 {
      fill: #96abbd;
    }
    .st4 {
      fill: #bbd6ed;
    }
    .st5 {
      fill: #e2f6fe;
    }
  </style>
  <title>autorite-de-la-concurrence</title>
  <g>
    <path
      class="st0"
      d="M75.7,100.6c-1.8-4.2,0.3-8.3,0.3-12.5c0-1.7,2.3-1.1,3.5-1.1c12.7,0,25.5,0,38.2,0c-0.6,2.2-2.5,0.4-3.2,1.1
		c2.7,0.2,5.6-0.9,7.7,0c1.3,0,0.8-0.9,0.9-0.4c0,0.2,0,0.2-0.3,0.2c-0.8,0-2,0.8-2.1-1c8.3-1.1,16.7,0,25,0c21.3-0.1,42.7,0,64,0.1
		c5.4,0,5.5,0.2,5.5,5.4c0,2.2,0.3,4.4,0.4,6.7c-2-0.8-0.6-2.8-1.7-3.9c-0.9,2,0.9,5.1-1.2,6c-1.5,0.7-4.1,0.1-6.2,0.1
		c-6.9,0.1-13.8,0.1-20.7,0c-7.7-0.1-15.4,0.5-23.2,0.4c-16.8,0-33.6,0-50.4,0c-1.8-1.7-3.9,0.1-5.8-0.6c-9.5-0.9-19-0.1-28.5-0.2
		C77.3,101.3,76.5,101.1,75.7,100.6z"
    />
    <path
      class="st1"
      d="M133.4,122.5c-1.1-6.2,5.5-12.8,10.4-13c5.4-0.2,13.4,5.7,13.7,10.5c0.4,7.3-5,13.9-12,14.4
		S134,130.2,133.4,122.5z"
    />
    <path
      class="st2"
      d="M75.7,100.6c9.8-0.3,19.7-1.2,29.5-0.1c0.7,0.1,1.5,0,2,0.8c-4.7,0.9-9.3,0.2-14,0.4
		c-5.5,0.2-11.1-0.4-16.6,0.4C75.9,101.8,75.8,101.2,75.7,100.6z"
    />
    <path
      class="st3"
      d="M76.6,102c1-1.2,2.3-0.6,3.5-0.7c9-0.1,18.1,0,27.2-0.1c1.8,0.2,3.9-2.5,5.2,0.8L76.6,102z"
    />
    <path
      class="st4"
      d="M120.8,87.1c0.7,1.1,2,0.4,3.6,1.3h-10.6c1.3-1.1,3,0,3.9-1.3H120.8z"
    />
    <path class="st5" d="M209,89.2h-27.5v-0.4h27.6L209,89.2z" />
  </g>
  <g>
    <path
      d="M78.6,27.9L78.6,27.9c-0.6,0-1.2-0.1-1.6-0.4s-0.7-0.8-0.6-1.4c0-0.5,0.1-0.9,0.2-1.4c0.2-0.6,0.7-2.2,1.5-4.9h8.7l1.3,4
		c0.2,0.5,0.3,1.1,0.5,1.6c0.1,0.3,0.1,0.7,0.2,1.1c0,0.6-0.1,0.9-0.4,1c-0.6,0.2-1.2,0.3-1.8,0.4h-0.1v1h8.8v-1h-0.1
		c-0.6-0.1-1.2-0.3-1.6-0.7c-0.6-0.9-1-1.9-1.3-2.9L83.8,0.4l0,0H83l-7,20.7c-0.6,1.9-1.3,3.8-2.2,5.6c-0.4,0.7-1.1,1.1-1.9,1.2
		h-0.1v1h6.9L78.6,27.9z M78.7,17.9l3.7-11l3.7,11H78.7z"
    />
    <path
      d="M115.2,27.2v-0.8H115c-0.7,0.1-1.4,0-2-0.4c-0.4-0.5-0.5-1.2-0.5-1.8V9.6h-6.9v0.9h0.1c0.8,0,1.7,0.2,2.4,0.6
		c0.5,0.6,0.7,1.3,0.6,2v11.2c-0.4,0.5-0.9,1-1.5,1.4c-0.8,0.6-1.7,0.9-2.7,0.9c-1.1,0.1-2.2-0.5-2.7-1.5c-0.3-0.7-0.4-1.4-0.4-2.2
		V9.6H95v0.8h0.1c0.6,0,1.3,0.2,1.9,0.5c0.5,0.6,0.7,1.3,0.7,2.1v10.7c0,2,0.5,3.5,1.7,4.3c1,0.8,2.2,1.3,3.4,1.3
		c1.4,0,2.7-0.4,3.8-1.2c0.9-0.6,1.7-1.4,2.4-2.2v3c0,0.1,0,0.2,0,0.2c0,0.1,0.1,0.2,0.2,0.2l0,0c1.2-0.5,2-0.8,2.3-0.9l1.8-0.6
		l1.7-0.5L115.2,27.2z"
    />
    <path
      d="M117.4,11.4L117.4,11.4h2.2v12.3c0,1.1,0.1,2.2,0.5,3.3c0.5,1.4,1.9,2.3,3.4,2.2c0.8,0,1.6-0.2,2.3-0.6
		c0.9-0.5,1.7-1.2,2.3-2.1l0.5-0.7l-0.7-0.6l-0.1,0.1c-0.4,0.4-0.8,0.8-1.2,1.1c-0.4,0.2-0.8,0.3-1.2,0.3c-0.8,0-1.6-0.5-1.8-1.3
		c-0.2-0.8-0.3-1.5-0.3-2.3V11.4h4.2V9.7h-4.1V4.8c0-0.2,0-0.4-0.1-0.4s-0.1-0.1-0.4-0.1h-0.1l0,0c-1.5,2.1-2.5,3.4-2.9,3.8
		c-0.6,0.7-1.3,1.3-2,1.9c-0.2,0.2-0.4,0.3-0.6,0.5c-0.1,0.1-0.1,0.3-0.1,0.4c0,0.1,0,0.2,0.1,0.2C117.3,11.3,117.4,11.4,117.4,11.4
		z"
    />
    <path
      d="M139.7,29.5c2.6,0.1,5.1-1.1,6.8-3.1s2.7-4.5,2.6-7.2c0.1-2.7-0.9-5.3-2.7-7.2c-1.8-1.8-4.3-2.8-6.8-2.7
		c-2.6-0.1-5,1-6.8,2.9c-1.7,1.9-2.7,4.4-2.6,7c-0.1,2.7,0.9,5.4,2.8,7.4C134.7,28.5,137.1,29.6,139.7,29.5z M143.8,26
		c-0.7,1.3-2,2.1-3.4,2c-1.9,0-3.4-1-4.5-3.1s-1.7-4.4-1.6-6.8c0-3,0.7-5.1,2-6.4c0.8-0.7,1.7-1,2.7-1c2,0,3.7,1.2,4.5,3.1
		c1,2.1,1.6,4.3,1.6,6.6C145.1,22.5,144.7,24.4,143.8,26L143.8,26z"
    />
    <path
      d="M161.5,28h-0.3c-0.9,0.1-1.7-0.1-2.4-0.6c-0.6-0.6-0.9-1.5-0.8-2.4v-9.2c0-0.9,0.4-1.7,1-2.3c0.7-0.7,1.2-1.1,1.7-1.1
		c0.2,0,0.5,0.1,1.2,0.7c0.4,0.4,1,0.7,1.7,0.8c0.5,0,1-0.2,1.3-0.6c0.8-0.9,0.7-2.3-0.2-3.2c-0.5-0.4-1.1-0.7-1.8-0.7
		c-1,0-1.9,0.4-2.6,1c-0.9,0.8-1.7,1.6-2.3,2.6v-3c0-0.2,0-0.3,0-0.5c0-0.1-0.2-0.2-0.3-0.2l0,0c-0.7,0.3-1.4,0.6-2.1,0.9l-1.7,0.6
		l-2.5,0.9v0.9h0.2l0.7-0.1c0.2,0,0.4,0,0.5,0c0.6,0,1.1,0.3,1.3,0.8c0.3,0.9,0.4,1.9,0.4,2.9v9.2c0.1,0.7-0.1,1.4-0.6,2
		c-0.7,0.4-1.6,0.6-2.4,0.6h-0.1v0.9h10.3V28H161.5z"
    />
    <path
      d="M171.5,4.5c1.2,0,2.3-1,2.3-2.3s-1-2.3-2.3-2.3l0,0c-0.6,0-1.2,0.2-1.6,0.7c-0.4,0.4-0.7,1-0.7,1.6
		C169.3,3.5,170.3,4.5,171.5,4.5L171.5,4.5L171.5,4.5z"
    />
    <path
      d="M176.8,28.1h-0.1c-0.9,0-1.7-0.2-2.5-0.7c-0.3-0.4-0.5-1.3-0.5-2.9V9.8c0-0.1,0-0.2,0-0.3V9.4h-0.1c-0.3,0-0.5,0.1-0.8,0.3
		c-0.9,0.4-2.6,1-5,1.8l-1,0.3v0.9h0.2c0.7-0.2,1.1-0.3,1.2-0.3c0.1,0,0.3,0,0.4,0c0.5-0.1,1,0.3,1.2,0.8c0.1,0.6,0.2,1.2,0.2,1.8
		v9.8c0,1.6-0.2,2.5-0.5,2.9c-0.8,0.5-1.7,0.7-2.7,0.7h-0.1V29h10.2L176.8,28.1z"
    />
    <path
      d="M181.3,23.7c0,1.1,0.1,2.2,0.5,3.3c0.5,1.4,1.9,2.3,3.4,2.2c0.8,0,1.6-0.2,2.3-0.6c0.9-0.5,1.7-1.2,2.3-2.1l0.5-0.7
		l-0.7-0.6l-0.1,0.1c-0.4,0.4-0.8,0.8-1.2,1.1c-0.4,0.2-0.8,0.3-1.2,0.3c-0.8,0-1.6-0.5-1.8-1.3s-0.3-1.5-0.3-2.3V11.5h4.2V9.7h-4.1
		V4.8c0-0.2,0-0.4-0.1-0.4s-0.1-0.1-0.4-0.1h-0.1l0,0c-1.5,2.1-2.5,3.4-2.9,3.8c-0.6,0.7-1.3,1.3-2,1.9c-0.2,0.2-0.4,0.3-0.6,0.5
		c-0.1,0.1-0.1,0.3-0.1,0.4c0,0.1,0,0.2,0.1,0.2c0.1,0.1,0.1,0.1,0.2,0.1l0,0h2.1L181.3,23.7z"
    />
    <path
      d="M205.5,3.5c0.4-0.2,0.7-0.5,1-0.8c0.2-0.3,0.4-0.7,0.4-1.1s-0.2-0.8-0.5-1.1c-0.6-0.5-1.5-0.5-2.2,0
		c-0.3,0.2-0.6,0.4-0.8,0.7L197,7.6h2L205.5,3.5z"
    />
    <path
      d="M199.8,29.4c2.1,0,4.2-0.8,5.7-2.2c1.4-1.3,2.5-3,3.2-4.9v-0.1l-0.9-0.3V22c-0.7,1.2-1.6,2.3-2.7,3.2
		c-1,0.8-2.3,1.1-3.5,1.1c-1.7,0-3.4-0.8-4.5-2.1c-1.2-1.4-2-3.6-2.1-6.7h13v-0.1c0.3-4-2.7-7.5-6.8-7.8c-0.2,0-0.4,0-0.6,0
		c-2.5-0.1-4.9,1-6.5,3s-2.5,4.6-2.5,7.2c0,2.4,0.7,4.8,2.1,6.8C195.1,28.4,197.4,29.5,199.8,29.4z M199.4,11.1
		c1.3-0.1,2.6,0.6,3.2,1.7c0.4,0.9,0.7,1.9,0.8,2.9H195c0.1-0.9,0.5-1.8,0.9-2.6C196.6,11.9,197.9,11.1,199.4,11.1L199.4,11.1z"
    />
    <path
      d="M15.6,64.6h-0.4c-0.7,0-1.2-0.1-1.3-0.4c-0.2-0.5-0.3-0.9-0.2-1.4V49.3c0-0.7,0-1.3,0-2s0-1.3,0-2v-1.8l-0.2-0.1l0,0
		l-0.9,0.3c-0.4,0.1-0.8,0.3-1.3,0.4l-1.5,0.4l-1.5,0.4v0.8h0.1l0.7-0.1h0.3c0.5,0,0.8,0.1,1,0.3c0.2,0.4,0.2,0.9,0.2,1.3v5
		c-0.3-0.3-0.7-0.6-1.1-0.8C8.8,51,8,50.8,7.2,50.9c-2.1,0-4,1-5.2,2.6c-1.4,1.8-2.2,4-2.1,6.3c0,1.9,0.6,3.7,1.8,5.1
		c1.1,1.4,2.8,2.3,4.7,2.2c1,0,2-0.2,2.9-0.8c0.5-0.4,1-0.8,1.4-1.2v1.8l0.2,0.3l2.7-1l2.4-0.8h0.1v-0.8H16H15.6z M10.7,56v7.1
		c-0.1,0.5-0.3,1-0.8,1.4c-0.5,0.5-1.3,0.8-2,0.7c-1.5,0.1-2.9-0.7-3.6-2c-0.8-1.4-1.2-3.1-1.2-4.7C3,56.9,3.4,55.4,4.2,54
		c0.6-1.1,1.9-1.8,3.2-1.8c0.8,0,1.6,0.3,2.2,0.9C10.4,53.8,10.8,54.9,10.7,56z"
    />
    <path
      d="M29.6,61.2c-0.6,1-1.3,1.8-2.2,2.5c-0.8,0.6-1.8,0.9-2.9,0.9c-1.4,0-2.7-0.6-3.6-1.7c-1-1.1-1.6-2.9-1.7-5.4h10.5v-0.1
		c0.2-3.3-2.2-6.1-5.5-6.3c-0.2,0-0.3,0-0.5,0c-2,0-4,0.9-5.2,2.5c-1.3,1.7-2,3.7-2,5.8c0,2,0.6,3.9,1.7,5.5c1.1,1.6,3,2.5,4.9,2.4
		c1.7,0,3.4-0.6,4.7-1.8c1.2-1.1,2.1-2.5,2.6-4v-0.1l-0.8-0.3V61.2z M22.8,52.5c1.1-0.1,2.1,0.5,2.6,1.4c0.3,0.7,0.5,1.5,0.6,2.3
		h-6.7c0.1-0.7,0.4-1.4,0.7-2.1C20.5,53.1,21.6,52.5,22.8,52.5z"
    />
    <path
      d="M45.6,65.7c-0.4-0.5-0.5-1.1-0.5-1.8V44c0-0.2,0-0.3,0-0.5c0-0.1-0.1-0.2-0.3-0.2l0,0c-2.1,0.7-3.9,1.2-5.4,1.6h-0.1v0.8
		h0.2l0.7-0.1c0.2,0,0.3,0,0.5,0c0.5-0.1,1,0.2,1.2,0.6c0.1,0.5,0.2,1,0.2,1.5v16.2c0.1,0.6-0.1,1.3-0.5,1.8c-0.6,0.4-1.3,0.6-2,0.6
		h-0.1V67h8.3v-0.7h-0.1C47,66.2,46.3,66,45.6,65.7z"
    />
    <path
      d="M62.1,64.8c-0.2,0.1-0.4,0.1-0.6,0.1c-0.4,0-0.7-0.2-0.8-0.6c-0.1-0.4-0.1-0.9-0.1-1.3v-6.7c0.1-1.2-0.2-2.3-0.6-3.4
		c-0.8-1.4-2.3-2.2-4.5-2.2c-1.5-0.1-3.1,0.4-4.3,1.3c-0.8,0.6-1.4,1.5-1.5,2.5c0,0.4,0.2,0.8,0.4,1.2c0.3,0.4,0.8,0.6,1.2,0.5
		c0.3,0,0.6-0.1,0.9-0.2c0.5-0.3,0.7-0.8,0.7-1.3c0-0.2,0-0.4-0.1-0.6c0-0.2-0.1-0.4-0.1-0.6c0-0.5,0.3-0.9,0.7-1.1
		c0.5-0.3,1-0.4,1.5-0.4c0.9-0.1,1.7,0.3,2.2,1c0.3,0.7,0.4,1.5,0.3,2.3v1.3c-2.1,0.7-4.1,1.6-6,2.7l0,0c-1.5,0.8-2.4,2.4-2.5,4.1
		c0,1,0.4,2,1.1,2.6c0.7,0.7,1.6,1,2.6,1s2.1-0.3,2.9-0.9c0.7-0.4,1.4-0.9,2-1.5c0.1,0.6,0.2,1.1,0.6,1.6c0.4,0.5,1.1,0.8,1.7,0.8
		c0.7,0,1.4-0.2,2-0.6c0.4-0.3,0.8-0.7,1.2-1.1l0,0v-1.1v0.1C62.7,64.5,62.4,64.7,62.1,64.8z M54.7,59c0.9-0.6,2-1,3-1.3v5.1
		c0,0.6-0.4,1.2-0.9,1.5c-0.6,0.4-1.3,0.6-2,0.6c-0.5,0-1-0.2-1.4-0.4c-0.7-0.5-1-1.3-0.9-2.1C52.3,61.1,53.1,60,54.7,59L54.7,59z"
    />
    <path
      d="M88.6,59.9c-0.6,0.9-1.3,1.8-2.2,2.6c-1.1,0.9-2.4,1.4-3.8,1.4c-1.9,0-3.7-0.9-4.8-2.5c-1.2-1.6-1.8-3.6-1.8-5.6
		c-0.1-2,0.5-3.9,1.6-5.5c0.9-1.3,2.4-2,3.9-2c0.6,0,1.2,0.1,1.8,0.4c0.5,0.4,0.8,0.9,0.9,1.5l0.2,1c0.1,0.6,0.4,1.1,0.8,1.5
		s0.9,0.5,1.4,0.5c0.6,0,1.2-0.2,1.6-0.6c0.3-0.4,0.5-0.9,0.5-1.4c-0.1-1.3-0.9-2.4-2-3.1c-1.4-0.9-3-1.4-4.6-1.4
		c-2.7,0-5.3,1.1-7,3.2c-1.8,2.1-2.8,4.8-2.8,7.6c-0.1,2.6,0.8,5.2,2.6,7.1c1.5,1.7,3.6,2.6,5.9,2.6s4.5-1.1,6-2.9
		c1-1.2,1.9-2.6,2.5-4v-0.1L88.6,59.9L88.6,59.9z"
    />
    <path
      d="M102.2,46.9c-2.6-0.1-5.2,1-6.9,2.9c-1.8,1.9-2.8,4.5-2.7,7.1c-0.1,2.8,0.9,5.5,2.8,7.5c1.8,1.9,4.3,3,6.9,3
		c2.7,0.1,5.2-1.1,6.9-3.1c1.8-2,2.7-4.7,2.7-7.4c0.1-2.7-0.9-5.4-2.8-7.4C107.3,47.9,104.8,46.9,102.2,46.9z M106.5,63.9
		c-0.7,1.3-2,2.1-3.5,2.1c-2,0-3.5-1.1-4.6-3.2c-1.1-2.1-1.7-4.5-1.7-6.9c0-3.1,0.7-5.3,2.1-6.5c0.8-0.7,1.8-1.1,2.8-1.1
		c2,0,3.8,1.3,4.6,3.1c1.1,2.1,1.6,4.4,1.6,6.8C107.8,60.3,107.4,62.2,106.5,63.9L106.5,63.9z"
    />
    <path
      d="M132.9,65.4c-0.4-0.6-0.6-1.4-0.6-2.1v-9.8c0-2.8-0.8-4.7-2.3-5.8c-0.8-0.6-1.7-0.8-2.7-0.8c-1.2,0-2.4,0.3-3.5,1
		c-1,0.7-2,1.5-2.8,2.3v-2.8c0-0.1,0-0.2,0-0.3s-0.2-0.2-0.3-0.2l-2,0.7c-2.1,0.7-3.5,1.1-4.1,1.3h-0.1v1h0.1l0.5-0.1h0.4
		c0.6-0.1,1.2,0.2,1.5,0.7c0.2,0.6,0.3,1.2,0.2,1.8V63c0.1,0.8-0.1,1.7-0.6,2.4c-0.6,0.4-1.3,0.7-2,0.7h-0.1v0.8h9.3V66h-0.1
		c-0.7,0-1.4-0.2-2-0.5c-0.5-0.5-0.7-1.2-0.6-1.9V51.9c0.5-0.6,1.1-1.1,1.8-1.5c0.7-0.5,1.6-0.8,2.4-0.8c0.9-0.1,1.8,0.3,2.3,1.1
		c0.5,0.9,0.7,1.9,0.7,2.9v9c0.1,0.9-0.1,1.9-0.6,2.7c-0.6,0.5-1.3,0.8-2.1,0.8h-0.1v0.8h9.2v-0.8h-0.1
		C134.1,66.1,133.4,65.9,132.9,65.4z"
    />
    <path
      d="M153.4,59.9c-0.6,0.9-1.3,1.8-2.2,2.6c-1.1,0.9-2.4,1.4-3.8,1.4c-1.9,0-3.7-0.9-4.8-2.5c-1.2-1.6-1.8-3.6-1.8-5.6
		c-0.1-2,0.5-3.9,1.6-5.5c0.9-1.3,2.4-2,3.9-2c0.6,0,1.2,0.1,1.8,0.4c0.5,0.4,0.8,0.9,0.9,1.5l0.2,1c0.1,0.6,0.4,1.1,0.8,1.5
		c0.4,0.4,0.9,0.5,1.4,0.5c0.6,0,1.2-0.2,1.6-0.6c0.3-0.4,0.5-0.9,0.5-1.4c-0.1-1.3-0.9-2.4-2-3.1c-1.3-1-3-1.5-4.6-1.4
		c-2.7,0-5.3,1.1-7,3.2c-1.8,2.1-2.8,4.8-2.8,7.6c-0.1,2.6,0.8,5.2,2.6,7.1c1.5,1.7,3.6,2.6,5.9,2.6c2.3,0,4.5-1.1,6-2.9
		c1-1.2,1.9-2.6,2.5-4v-0.1L153.4,59.9L153.4,59.9z"
    />
    <path
      d="M174.9,64c-0.4-0.5-0.6-1.2-0.5-1.9V47.2h-7v0.9h0.1c0.9,0,1.7,0.2,2.5,0.6c0.5,0.6,0.7,1.3,0.6,2v11.5
		c-0.4,0.5-1,1-1.5,1.4c-0.8,0.6-1.7,0.9-2.7,0.9c-1.1,0.1-2.2-0.5-2.7-1.5c-0.3-0.7-0.4-1.5-0.4-2.2V47.2h-6.6V48h0.1
		c0.7,0,1.3,0.2,1.9,0.5c0.5,0.6,0.8,1.4,0.7,2.1v10.9c0,2,0.6,3.5,1.7,4.4c1,0.8,2.2,1.3,3.5,1.3c1.4,0,2.7-0.5,3.8-1.3
		c0.9-0.7,1.7-1.4,2.4-2.3v3c0,0.1,0,0.2,0,0.2c0,0.1,0.1,0.2,0.2,0.2l0,0c1.2-0.5,2-0.8,2.4-0.9c0.8-0.3,1.5-0.5,1.8-0.6l1.7-0.5
		h0.1v-0.8h-0.1C176.2,64.5,175.5,64.4,174.9,64z"
    />
    <path
      d="M192.5,46.8c-1,0-1.9,0.4-2.7,1.1c-0.9,0.8-1.7,1.7-2.4,2.6v-3.1c0-0.2,0-0.3,0-0.5c0-0.1-0.2-0.2-0.3-0.2H187
		c-0.7,0.3-1.5,0.6-2.2,0.9l-1.7,0.6l-2.5,0.9V50h0.2l0.7-0.1c0.2,0,0.4,0,0.5,0c0.6,0,1.1,0.3,1.3,0.8c0.3,0.9,0.4,1.9,0.4,2.9v9.5
		c0.1,0.8-0.1,1.5-0.6,2.1c-0.8,0.4-1.6,0.7-2.5,0.6h-0.1v0.9h10.6v-1H191c-0.9,0.1-1.9-0.1-2.7-0.6c-0.6-0.6-0.9-1.5-0.8-2.4v-9.5
		c0-0.9,0.4-1.7,1-2.4c0.7-0.8,1.3-1.1,1.7-1.1c0.2,0,0.5,0.1,1.2,0.7c0.4,0.5,1,0.7,1.7,0.8c0.5,0,1-0.2,1.4-0.6
		c0.8-1,0.7-2.4-0.2-3.2C193.8,47,193.2,46.8,192.5,46.8z"
    />
    <path
      d="M210.7,46.8c-1,0-1.9,0.4-2.7,1.1c-0.9,0.8-1.7,1.7-2.4,2.6v-3.1c0-0.2,0-0.3,0-0.5c0-0.1-0.2-0.2-0.3-0.2l0,0
		c-0.7,0.3-1.5,0.6-2.2,0.9l-1.7,0.6l-2.5,0.9V50h0.2l0.7-0.1c0.2,0,0.4,0,0.5,0c0.6,0,1.1,0.3,1.3,0.8c0.3,0.9,0.4,1.9,0.4,2.9v9.5
		c0.1,0.8-0.1,1.5-0.6,2.1c-0.8,0.4-1.6,0.7-2.5,0.6h-0.1v0.9h10.6v-1h-0.1c-0.9,0.1-1.9-0.1-2.7-0.6c-0.6-0.6-0.9-1.5-0.8-2.4v-9.5
		c0-0.9,0.4-1.7,1-2.4c0.7-0.8,1.3-1.1,1.7-1.1c0.2,0,0.5,0.1,1.2,0.7c0.4,0.5,1,0.7,1.7,0.8c0.5,0,1-0.2,1.4-0.6
		c0.8-1,0.7-2.4-0.2-3.2C212,47,211.4,46.8,210.7,46.8z"
    />
    <path
      d="M231.1,59.7c-0.7,1.2-1.6,2.3-2.8,3.2c-1.1,0.8-2.3,1.2-3.6,1.1c-1.8,0-3.5-0.8-4.6-2.2c-1.3-1.4-2-3.7-2.2-6.9h13.3v-0.1
		c0.3-4.1-2.8-7.7-6.9-8c-0.2,0-0.4,0-0.7,0c-2.6-0.1-5,1.1-6.6,3.1c-1.7,2.1-2.6,4.7-2.5,7.4c0,2.5,0.7,4.9,2.2,6.9
		c1.4,2,3.8,3.1,6.2,3c2.2,0,4.3-0.8,5.9-2.3c1.5-1.4,2.6-3.1,3.2-5v-0.1l-1-0.3v0.2C231,59.7,231.1,59.7,231.1,59.7z M222.5,48.7
		c1.4-0.1,2.7,0.6,3.3,1.8c0.4,0.9,0.7,1.9,0.8,2.9H218c0.1-0.9,0.5-1.8,0.9-2.7C219.6,49.5,221,48.7,222.5,48.7L222.5,48.7z"
    />
    <path
      d="M252.8,65.4c-0.4-0.6-0.6-1.4-0.6-2.1v-9.8c0-2.8-0.8-4.7-2.3-5.8c-0.8-0.6-1.7-0.8-2.7-0.8c-1.2,0-2.4,0.3-3.5,1
		c-1,0.7-2,1.5-2.8,2.3v-2.8c0-0.1,0-0.2,0-0.3s-0.2-0.2-0.3-0.2l-2,0.7c-2.1,0.7-3.5,1.1-4.1,1.3h-0.1v1h0.1l0.5-0.1h0.4
		c0.6-0.1,1.2,0.2,1.5,0.7c0.2,0.6,0.3,1.2,0.2,1.8V63c0.1,0.8-0.1,1.7-0.6,2.4c-0.6,0.4-1.3,0.7-2,0.7h-0.1v0.8h9.4V66h-0.1
		c-0.7,0-1.4-0.2-2-0.5c-0.5-0.5-0.7-1.2-0.6-1.9V51.9c0.5-0.6,1.1-1.1,1.8-1.5c0.7-0.5,1.6-0.8,2.4-0.8c0.9-0.1,1.8,0.3,2.3,1.1
		c0.5,0.9,0.7,1.9,0.7,2.9v9c0.1,0.9-0.1,1.9-0.6,2.7c-0.6,0.5-1.3,0.8-2.1,0.8h-0.1v0.8h9.2v-0.8h-0.1
		C254.1,66.1,253.3,65.9,252.8,65.4z"
    />
    <path
      d="M273.2,59.9c-0.6,0.9-1.3,1.8-2.2,2.6c-1.1,0.9-2.4,1.4-3.8,1.4c-1.9,0-3.7-0.9-4.8-2.5c-1.2-1.6-1.8-3.6-1.8-5.6
		c-0.1-2,0.5-3.9,1.6-5.5c0.9-1.3,2.4-2,3.9-2c0.6,0,1.2,0.1,1.8,0.4c0.5,0.4,0.8,0.9,0.9,1.5l0.2,1c0.1,0.6,0.4,1.1,0.8,1.5
		s0.9,0.5,1.4,0.5c0.6,0,1.2-0.2,1.6-0.6c0.3-0.4,0.5-0.9,0.5-1.4c-0.1-1.3-0.9-2.4-2-3.1c-1.4-0.9-3-1.4-4.6-1.4
		c-2.7,0-5.3,1.1-7,3.2c-1.8,2.1-2.8,4.8-2.8,7.6c-0.1,2.6,0.8,5.2,2.5,7.1c1.5,1.7,3.6,2.6,5.9,2.6s4.5-1.1,6-2.9
		c1-1.2,1.9-2.6,2.5-4v-0.1L273.2,59.9L273.2,59.9z"
    />
    <path
      d="M293.5,59.6L293.5,59.6c-0.8,1.3-1.7,2.4-2.8,3.3c-1.1,0.8-2.3,1.2-3.6,1.1c-1.8,0-3.5-0.8-4.6-2.2c-1.3-1.4-2-3.7-2.2-6.9
		h13.3v-0.1c0.3-4.1-2.8-7.7-6.9-8c-0.2,0-0.4,0-0.7,0c-2.6-0.1-5,1.1-6.6,3.1c-1.7,2.1-2.6,4.7-2.5,7.4c0,2.5,0.7,4.9,2.2,6.9
		c1.4,2,3.8,3.1,6.2,3c2.2,0,4.3-0.8,5.9-2.3c1.5-1.4,2.6-3.1,3.2-5v-0.1L293.5,59.6z M284.9,48.7c1.4-0.1,2.7,0.6,3.3,1.8
		c0.4,0.9,0.7,1.9,0.8,2.9h-8.6c0.1-0.9,0.5-1.8,0.9-2.7C282,49.5,283.4,48.7,284.9,48.7L284.9,48.7z"
    />
  </g>
</svg>
