<?xml version="1.0" encoding="UTF-8" standalone="no"?>
<svg
   xmlns:dc="http://purl.org/dc/elements/1.1/"
   xmlns:cc="http://creativecommons.org/ns#"
   xmlns:rdf="http://www.w3.org/1999/02/22-rdf-syntax-ns#"
   xmlns:svg="http://www.w3.org/2000/svg"
   xmlns="http://www.w3.org/2000/svg"
   xml:space="preserve"
   style="enable-background:new 0 0 116.9 100;"
   viewBox="0 0 116.9 100"
   y="0px"
   x="0px"
   id="Calque_1"
   version="1.1"><metadata
   id="metadata5353"><rdf:RDF><cc:Work
       rdf:about=""><dc:format>image/svg+xml</dc:format><dc:type
         rdf:resource="http://purl.org/dc/dcmitype/StillImage" /><dc:title></dc:title></cc:Work></rdf:RDF></metadata><defs
   id="defs5351" />
<style
   id="style5247"
   type="text/css">
	.st0{fill:#FFFFFF;}
	.st1{fill:#000091;}
	.st2{fill:#E1000F;}
	.st3{fill:#9C9B9B;}
</style>

<g
   id="g5954"
   transform="matrix(0.3132836,0,0,-0.3132836,-73.808657,238.41186)"><g
     id="g4354"
     transform="translate(271.4673,679.9327)"><path
       d="M 0,0 H 6.057 L 11.774,-9.744 17.493,0 h 6.056 v -23.684 h -4.805 v 16.85 l -5.278,-8.729 h -3.383 l -5.278,8.729 v -16.85 H 0 Z"
       style="fill:#040606;fill-opacity:1;fill-rule:nonzero;stroke:none"
       id="path4356" /></g><path
     d="m 301.614,679.933 h 4.805 v -23.684 h -4.805 z"
     style="fill:#040606;fill-opacity:1;fill-rule:nonzero;stroke:none"
     id="path4358" /><g
     id="g4360"
     transform="translate(313.0508,679.9327)"><path
       d="m 0,0 h 6.158 l 10.59,-16.951 V 0 h 4.805 V -23.684 H 15.395 L 4.805,-6.666 V -23.684 H 0 Z"
       style="fill:#040606;fill-opacity:1;fill-rule:nonzero;stroke:none"
       id="path4362" /></g><path
     d="m 341.235,679.933 h 4.805 v -23.684 h -4.805 z"
     style="fill:#040606;fill-opacity:1;fill-rule:nonzero;stroke:none"
     id="path4364" /><g
     id="g4374"
     transform="translate(354.0254,662.7448)"><path
       d="m 0,0 c 1.421,-1.827 3.315,-2.91 5.244,-2.91 1.895,0 3.045,1.015 3.045,2.741 0,4.23 -10.827,3.282 -10.827,11.166 0,3.755 3.079,6.868 7.579,6.868 3.553,0 6.293,-1.591 8.29,-3.993 L 9.812,10.726 c -1.387,1.793 -2.944,2.943 -4.737,2.943 -1.658,0 -2.74,-1.083 -2.74,-2.47 0,-4.229 10.826,-3.248 10.826,-11.266 -0.067,-4.399 -3.518,-7.106 -7.849,-7.106 -3.993,0 -6.7,1.455 -8.797,3.959 z"
       style="fill:#040606;fill-opacity:1;fill-rule:nonzero;stroke:none"
       id="path4376" /></g><g
     id="g4378"
     transform="translate(369.624,679.9327)"><path
       d="M 0,0 H 19.421 V -4.365 H 12.113 V -23.684 H 7.309 V -4.365 H 0 Z"
       style="fill:#040606;fill-opacity:1;fill-rule:nonzero;stroke:none"
       id="path4380" /></g><g
     id="g4382"
     transform="translate(393.6816,686.5304)"><path
       d="M 0,0 H 4.939 L 8.763,-4.567 H 4.364 Z m -0.406,-6.598 h 13.803 v -4.093 h -9 v -5.482 h 7.648 v -4.094 H 4.397 v -5.92 h 9 v -4.095 H -0.406 Z"
       style="fill:#040606;fill-opacity:1;fill-rule:nonzero;stroke:none"
       id="path4384" /></g><g
     id="g4386"
     transform="translate(417.4678,675.839)"><path
       d="m 0,0 v -5.921 h 2.707 c 2.029,0 3.214,1.083 3.214,3.011 C 5.921,-1.117 4.736,0 2.707,0 Z m -4.805,4.094 h 7.241 c 5.21,0 8.424,-2.673 8.424,-7.072 0,-2.842 -1.386,-4.973 -3.789,-6.124 L 14.515,-19.59 H 8.763 L 2.47,-10.015 H 0 v -9.575 h -4.805 z"
       style="fill:#040606;fill-opacity:1;fill-rule:nonzero;stroke:none"
       id="path4388" /></g><g
     id="g4390"
     transform="translate(434.9609,679.9327)"><path
       d="m 0,0 h 13.804 v -4.094 h -9 v -5.481 h 7.647 v -4.094 H 4.804 v -5.921 h 9 v -4.094 H 0 Z"
       style="fill:#040606;fill-opacity:1;fill-rule:nonzero;stroke:none"
       id="path4392" /></g><g
     id="g4394"
     transform="translate(276.272,641.4166)"><path
       d="m 0,0 v -14.955 h 4.567 c 4.399,0 7.579,3.282 7.579,7.477 C 12.146,-3.248 8.966,0 4.567,0 Z M -4.805,4.365 H 4.5 c 7.511,0 12.586,-5.448 12.586,-11.843 0,-6.394 -5.075,-11.841 -12.586,-11.841 h -9.305 z"
       style="fill:#040606;fill-opacity:1;fill-rule:nonzero;stroke:none"
       id="path4396" /></g><g
     id="g4398"
     transform="translate(297.9941,645.7814)"><path
       d="m 0,0 h 13.805 v -4.094 h -9 v -5.481 h 7.646 v -4.094 H 4.805 v -5.921 h 9 v -4.094 H 0 Z"
       style="fill:#040606;fill-opacity:1;fill-rule:nonzero;stroke:none"
       id="path4400" /></g><g
     id="g4402"
     transform="translate(326.1787,645.7814)"><path
       d="m 0,0 h 4.805 v -19.319 h 9 v -4.365 H 0 Z"
       style="fill:#040606;fill-opacity:1;fill-rule:nonzero;stroke:none"
       id="path4404" /></g><g
     id="g4406"
     transform="translate(357.6123,632.3492)"><path
       d="M 0,0 -3.249,8.898 -6.497,0 Z m -6.396,13.432 h 6.294 L 8.864,-10.252 H 3.755 l -2.267,6.158 h -9.473 l -2.267,-6.158 h -5.109 z"
       style="fill:#040606;fill-opacity:1;fill-rule:nonzero;stroke:none"
       id="path4408" /></g><g
     id="g4410"
     transform="translate(395.6768,629.1681)"><path
       d="m 0,0 3.789,-2.909 c -2.165,-2.944 -5.685,-4.839 -9.981,-4.839 -7.477,0 -12.586,5.752 -12.586,12.519 0,6.767 5.109,12.519 12.586,12.519 4.296,0 7.816,-1.929 9.981,-4.805 L 0,9.542 c -1.354,1.928 -3.485,3.248 -6.192,3.248 -4.466,0 -7.647,-3.485 -7.647,-8.019 0,-4.534 3.181,-8.019 7.647,-8.019 2.707,0 4.838,1.32 6.192,3.248"
       style="fill:#040606;fill-opacity:1;fill-rule:nonzero;stroke:none"
       id="path4412" /></g><g
     id="g4414"
     transform="translate(417.3311,645.7814)"><path
       d="m 0,0 h 4.805 v -14.414 c 0,-6.225 -3.655,-9.947 -9.61,-9.947 -5.921,0 -9.575,3.722 -9.575,9.947 V 0 h 4.805 v -14.819 c 0,-3.181 1.793,-5.042 4.804,-5.042 2.944,0 4.771,1.861 4.771,5.042 z"
       style="fill:#040606;fill-opacity:1;fill-rule:nonzero;stroke:none"
       id="path4416" /></g><g
     id="g4418"
     transform="translate(428.0908,645.7814)"><path
       d="m 0,0 h 4.805 v -19.319 h 9 v -4.365 H 0 Z"
       style="fill:#040606;fill-opacity:1;fill-rule:nonzero;stroke:none"
       id="path4420" /></g><g
     id="g4422"
     transform="translate(440.915,645.7814)"><path
       d="M 0,0 H 19.421 V -4.365 H 12.113 V -23.684 H 7.309 V -4.365 H 0 Z"
       style="fill:#040606;fill-opacity:1;fill-rule:nonzero;stroke:none"
       id="path4424" /></g><g
     id="g4426"
     transform="translate(478.54,645.7814)"><path
       d="m 0,0 h 4.805 v -14.414 c 0,-6.225 -3.655,-9.947 -9.61,-9.947 -5.921,0 -9.575,3.722 -9.575,9.947 V 0 h 4.805 v -14.819 c 0,-3.181 1.793,-5.042 4.804,-5.042 2.944,0 4.771,1.861 4.771,5.042 z"
       style="fill:#040606;fill-opacity:1;fill-rule:nonzero;stroke:none"
       id="path4428" /></g><g
     id="g4430"
     transform="translate(494.1045,641.6871)"><path
       d="m 0,0 v -5.921 h 2.706 c 2.03,0 3.215,1.083 3.215,3.011 C 5.921,-1.116 4.736,0 2.706,0 Z m -4.805,4.094 h 7.241 c 5.21,0 8.424,-2.673 8.424,-7.071 0,-2.842 -1.386,-4.974 -3.789,-6.125 L 14.515,-19.59 H 8.763 L 2.47,-10.015 H 0 v -9.575 h -4.805 z"
       style="fill:#040606;fill-opacity:1;fill-rule:nonzero;stroke:none"
       id="path4432" /></g><g
     id="g4434"
     transform="translate(511.5967,645.7814)"><path
       d="m 0,0 h 13.805 v -4.094 h -9 v -5.481 h 7.646 v -4.094 H 4.805 v -5.921 h 9 v -4.094 H 0 Z"
       style="fill:#040606;fill-opacity:1;fill-rule:nonzero;stroke:none"
       id="path4436" /></g><g
     id="g4438"
     transform="translate(278.2944,548.8849)"><path
       d="m 0,0 0.174,0.539 c -2.31,0.434 -2.605,0.434 -1.685,2.952 l 0.938,2.587 H 1.98 c 1.146,0 1.163,-0.469 0.99,-1.719 H 3.629 L 5.158,8.544 H 4.498 C 3.925,7.554 3.473,6.825 2.223,6.825 h -2.518 l 1.337,3.664 c 0.417,1.163 0.66,1.406 2.223,1.406 h 1.111 c 1.615,0 1.806,-0.434 1.806,-2.066 h 0.643 l 0.538,2.848 h -9.586 l -0.173,-0.539 c 1.858,-0.382 2.032,-0.555 1.163,-2.952 L -3.316,3.491 C -4.185,1.111 -4.549,0.92 -6.686,0.539 L -6.842,0 Z M 13.302,6.981 C 13.631,8.11 13.458,9.1 12.59,9.1 11.565,9.1 11.305,8.318 10.263,6.078 V 7.363 C 10.263,8.283 9.968,9.1 9.134,9.1 8.162,9.1 7.276,7.589 6.599,6.095 H 7.05 c 0.469,0.677 0.903,1.077 1.25,1.077 0.417,0 0.643,-0.643 0,-2.067 L 6.425,0.938 c -0.347,-0.782 0.017,-1.285 0.782,-1.285 0.468,0 0.677,0.121 0.868,0.625 l 1.841,4.88 c 0.521,0.642 0.989,1.198 1.58,1.823 z m 8.439,2.518 -0.73,0.052 -0.816,-0.799 h -0.174 c -3.959,0 -7.379,-4.445 -7.379,-7.675 0,-0.903 0.555,-1.424 1.423,-1.424 1.025,0 2.032,1.458 3.161,3.021 L 17.174,2.119 c -0.139,-1.598 0.347,-2.466 1.18,-2.466 0.973,0 1.859,1.511 2.536,3.004 H 20.438 C 19.97,1.98 19.536,1.581 19.188,1.581 c -0.364,0 -0.625,0.659 0,2.066 z M 14.43,2.362 c 0,2.136 2.379,5.035 3.716,5.035 0.295,0 0.573,-0.034 0.816,-0.104 L 17.573,3.595 C 16.774,2.622 15.542,1.441 14.968,1.441 c -0.329,0 -0.538,0.278 -0.538,0.921 m 8.77,5.4 h 1.597 L 22.261,0.833 c -0.225,-0.59 0.087,-1.18 0.696,-1.18 1.441,0 3.767,1.424 4.584,3.368 H 27.089 C 26.447,2.344 25.213,1.441 24.155,1.25 l 2.326,6.512 h 2.379 l 0.296,0.99 h -2.31 l 0.886,2.501 H 26.811 L 25.162,8.752 23.2,8.474 Z M 34.539,3.004 h -0.59 c -0.747,-0.885 -1.546,-1.58 -2.345,-1.58 -0.816,0 -1.232,0.486 -1.232,1.58 0,0.452 0.051,0.903 0.138,1.32 l 4.81,1.58 C 36.258,8.127 35.129,9.1 33.809,9.1 c -2.274,0 -4.862,-3.804 -4.862,-7.138 0,-1.493 0.712,-2.309 1.823,-2.309 1.303,0 2.657,1.267 3.769,3.351 m -1.65,4.81 c 0.643,0 1.198,-0.486 0.903,-1.719 L 30.805,5.401 c 0.522,1.389 1.39,2.413 2.084,2.413 M 43.551,6.981 C 43.881,8.11 43.708,9.1 42.839,9.1 41.815,9.1 41.554,8.318 40.512,6.078 v 1.285 c 0,0.92 -0.295,1.737 -1.129,1.737 -0.971,0 -1.857,-1.511 -2.535,-3.005 h 0.451 c 0.47,0.677 0.904,1.077 1.251,1.077 0.417,0 0.643,-0.643 0,-2.067 L 36.674,0.938 c -0.346,-0.782 0.018,-1.285 0.783,-1.285 0.468,0 0.676,0.121 0.868,0.625 l 1.84,4.88 c 0.521,0.642 0.99,1.198 1.581,1.823 z m 0.034,-6.043 c -0.346,-0.782 0.018,-1.285 0.782,-1.285 0.469,0 0.677,0.121 0.869,0.625 l 1.84,4.88 c 0.851,1.042 2.605,2.153 3.299,2.153 0.504,0 0.435,-0.417 0.105,-1.042 L 47.649,0.833 c -0.277,-0.538 0.087,-1.18 0.695,-1.18 1.389,0 3.038,1.25 3.698,3.004 H 51.591 C 51.139,2.015 50.375,1.303 49.664,1.181 l 2.43,4.914 c 0.313,0.625 0.47,1.216 0.47,1.685 0,0.799 -0.452,1.32 -1.285,1.32 -1.198,0 -2.414,-1.355 -3.856,-3.022 v 1.285 c 0,0.92 -0.295,1.737 -1.129,1.737 -0.52,0 -1.024,-0.452 -1.493,-1.095 V 7.832 c 0.904,0.052 1.303,-1.303 0.66,-2.727 z m 15.299,10.627 c 0.625,0 1.146,0.504 1.146,1.146 0,0.625 -0.521,1.146 -1.146,1.146 -0.642,0 -1.146,-0.521 -1.146,-1.146 0,-0.642 0.504,-1.146 1.146,-1.146 M 58.398,8.092 C 58.589,8.735 58.155,9.1 57.825,9.1 56.436,9.1 54.786,7.849 54.126,6.095 h 0.452 c 0.451,0.643 1.215,1.355 1.927,1.476 L 53.848,0.66 c -0.243,-0.642 0.243,-1.007 0.573,-1.007 1.32,0 2.866,1.267 3.526,3.004 H 57.495 C 57.043,2.015 56.28,1.303 55.568,1.181 Z m 2.153,-0.33 h 1.598 L 59.614,0.833 c -0.227,-0.59 0.086,-1.18 0.694,-1.18 1.442,0 3.768,1.424 4.584,3.368 H 64.441 C 63.798,2.344 62.565,1.441 61.506,1.25 l 2.327,6.512 h 2.379 l 0.295,0.99 h -2.309 l 0.885,2.501 h -0.92 L 62.513,8.752 60.551,8.474 Z m 10.384,2.223 3.387,3.161 V 13.51 H 72.498 L 70.415,9.985 Z M 71.89,3.004 h -0.591 c -0.746,-0.885 -1.545,-1.58 -2.343,-1.58 -0.817,0 -1.234,0.486 -1.234,1.58 0,0.452 0.053,0.903 0.14,1.32 l 4.809,1.58 c 0.938,2.223 -0.19,3.196 -1.51,3.196 -2.275,0 -4.863,-3.804 -4.863,-7.138 0,-1.493 0.712,-2.309 1.824,-2.309 1.302,0 2.657,1.267 3.768,3.351 m -1.649,4.81 c 0.642,0 1.198,-0.486 0.902,-1.719 L 68.157,5.401 c 0.52,1.389 1.389,2.413 2.084,2.413"
       style="fill:#040606;fill-opacity:1;fill-rule:nonzero;stroke:none"
       id="path4440" /></g><g
     id="g4442"
     transform="translate(281.7329,584.1188)"><path
       d="M 0,0 3.386,2.327 V 2.691 H 1.337 L -0.538,0 Z m -1.389,-7.276 c 1.146,0 1.163,-0.469 0.99,-1.719 H 0.26 L 1.789,-4.81 H 1.129 C 0.556,-5.8 0.104,-6.529 -1.146,-6.529 h -2.518 l 1.268,3.49 c 0.417,1.164 0.66,1.39 2.222,1.39 h 1.111 c 1.616,0 1.807,-0.435 1.807,-2.05 h 0.642 l 0.538,2.848 h -9.585 l -0.173,-0.538 c 1.857,-0.382 2.031,-0.556 1.163,-2.952 l -2.084,-5.696 c -0.868,-2.379 -1.233,-2.57 -3.369,-2.952 l -0.156,-0.538 H 0.382 l 1.91,3.021 H 1.563 c -1.216,-1.146 -2.744,-2.24 -4.88,-2.24 -2.83,0 -2.57,0.121 -1.632,2.709 l 1.007,2.761 z m 12.138,-7.432 c 0,1.111 -0.99,1.511 -2.605,1.997 -1.389,0.417 -2.014,0.538 -2.014,0.99 0,0.364 0.295,0.799 0.886,1.111 2.275,0.122 3.751,2.171 3.751,3.89 0,0.365 -0.07,0.677 -0.192,0.955 h 1.928 l 0.295,0.99 H 9.742 c -0.365,0.225 -0.799,0.347 -1.233,0.347 -2.414,0 -3.977,-2.118 -3.977,-3.838 0,-1.302 0.834,-2.118 1.841,-2.309 -1.129,-0.504 -1.754,-1.094 -1.754,-1.789 0,-0.399 0.139,-0.677 0.469,-0.938 -2.605,-0.764 -3.63,-1.632 -3.63,-2.865 0,-1.198 1.581,-1.702 3.457,-1.702 3.177,0 5.834,1.72 5.834,3.161 M 6.981,-9.95 c -0.573,0 -0.799,0.486 -0.799,1.042 0,1.545 0.834,3.82 2.136,3.82 0.573,0 0.799,-0.486 0.799,-1.042 0,-1.545 -0.834,-3.82 -2.136,-3.82 m -3.595,-5.609 c 0,0.92 0.886,1.493 2.154,1.997 0.416,-0.209 1.042,-0.434 1.875,-0.712 1.32,-0.434 1.823,-0.608 1.823,-1.007 0,-0.851 -1.441,-1.493 -3.404,-1.493 -1.649,0 -2.448,0.347 -2.448,1.215 m 17.678,11.53 -0.73,0.052 -0.816,-0.798 h -0.174 c -3.959,0 -7.38,-4.446 -7.38,-7.676 0,-0.903 0.556,-1.424 1.424,-1.424 1.025,0 2.032,1.459 3.161,3.022 l -0.052,-0.556 c -0.139,-1.597 0.347,-2.466 1.18,-2.466 0.973,0 1.859,1.511 2.535,3.004 h -0.451 c -0.469,-0.677 -0.903,-1.076 -1.25,-1.076 -0.365,0 -0.625,0.66 0,2.066 z m -7.311,-7.137 c 0,2.136 2.379,5.036 3.716,5.036 0.295,0 0.573,-0.035 0.817,-0.104 l -1.39,-3.699 c -0.799,-0.972 -2.032,-2.153 -2.605,-2.153 -0.33,0 -0.538,0.278 -0.538,0.92 m 9.204,-1.181 4.844,12.694 -0.156,0.192 -3.039,-0.348 v -0.365 l 0.591,-0.451 c 0.538,-0.417 0.364,-0.816 -0.122,-2.101 l -3.785,-9.968 c -0.279,-0.538 0.086,-1.181 0.694,-1.181 1.389,0 2.865,1.25 3.525,3.004 h -0.452 c -0.451,-0.642 -1.389,-1.354 -2.1,-1.476 m 9.238,10.385 c 0.625,0 1.145,0.504 1.145,1.146 0,0.625 -0.52,1.146 -1.145,1.146 -0.643,0 -1.147,-0.521 -1.147,-1.146 0,-0.642 0.504,-1.146 1.147,-1.146 m -0.487,-3.473 c 0.191,0.643 -0.243,1.007 -0.573,1.007 -1.389,0 -3.039,-1.25 -3.699,-3.004 h 0.452 c 0.451,0.642 1.215,1.354 1.928,1.476 l -2.657,-6.912 c -0.243,-0.642 0.243,-1.007 0.573,-1.007 1.319,0 2.865,1.268 3.524,3.004 h -0.451 c -0.451,-0.642 -1.216,-1.354 -1.928,-1.476 z m 2.153,-0.33 h 1.597 l -2.535,-6.929 c -0.225,-0.59 0.087,-1.181 0.696,-1.181 1.44,0 3.767,1.424 4.584,3.369 h -0.452 c -0.642,-0.677 -1.876,-1.58 -2.935,-1.771 l 2.327,6.512 h 2.379 l 0.296,0.99 h -2.31 l 0.886,2.5 h -0.921 l -1.649,-2.5 -1.963,-0.278 z m 10.385,2.223 3.385,3.16 v 0.365 h -1.823 l -2.084,-3.525 z m 0.955,-6.981 H 44.61 c -0.746,-0.886 -1.545,-1.581 -2.344,-1.581 -0.816,0 -1.233,0.487 -1.233,1.581 0,0.451 0.052,0.903 0.138,1.319 l 4.811,1.581 c 0.937,2.223 -0.191,3.195 -1.511,3.195 -2.274,0 -4.862,-3.803 -4.862,-7.137 0,-1.494 0.712,-2.31 1.823,-2.31 1.303,0 2.657,1.268 3.769,3.352 m -1.65,4.81 c 0.642,0 1.198,-0.486 0.903,-1.719 l -2.987,-0.695 c 0.521,1.389 1.389,2.414 2.084,2.414"
       style="fill:#040606;fill-opacity:1;fill-rule:nonzero;stroke:none"
       id="path4444" /></g><g
     id="g4446"
     transform="translate(282.3579,604.9742)"><path
       d="m 0,0 h -6.321 l -0.174,-0.538 c 1.859,-0.382 2.032,-0.556 1.164,-2.952 L -7.38,-9.186 c -0.868,-2.379 -1.233,-2.57 -3.369,-2.952 l -0.156,-0.538 h 9.62 L 0.799,-8.96 H 0.07 c -1.181,-1.303 -2.57,-2.935 -4.706,-2.935 -1.615,0 -1.806,0.278 -0.938,2.709 l 2.049,5.696 c 0.851,2.379 1.233,2.57 3.369,2.952 z m 6.998,-1.111 c 0.625,0 1.146,0.503 1.146,1.146 0,0.625 -0.521,1.146 -1.146,1.146 -0.643,0 -1.146,-0.521 -1.146,-1.146 0,-0.643 0.503,-1.146 1.146,-1.146 M 6.512,-4.584 C 6.703,-3.942 6.269,-3.577 5.939,-3.577 4.55,-3.577 2.9,-4.828 2.24,-6.582 h 0.451 c 0.452,0.643 1.216,1.355 1.928,1.477 l -2.657,-6.912 c -0.243,-0.642 0.243,-1.007 0.573,-1.007 1.32,0 2.865,1.268 3.526,3.004 H 5.609 c -0.452,-0.642 -1.216,-1.354 -1.928,-1.476 z m 9.446,-0.921 c 0,1.407 -0.52,1.928 -1.493,1.928 -1.215,0 -2.362,-1.285 -3.508,-2.848 l 2.9,7.623 -0.156,0.191 -3.039,-0.347 V 0.677 l 0.59,-0.451 c 0.539,-0.417 0.365,-0.851 -0.121,-2.101 L 8.005,-9.933 c -0.226,-0.59 -0.504,-1.285 -0.504,-1.476 0,-0.833 1.129,-1.615 2.154,-1.615 2.362,0 6.303,4.254 6.303,7.519 m -5.47,-6.112 c -0.468,0 -1.146,0.434 -1.146,0.816 0,0.121 0.208,0.66 0.469,1.337 l 0.781,2.067 c 0.834,0.989 2.101,2.049 2.814,2.049 0.434,0 0.763,-0.278 0.763,-0.921 0,-1.893 -1.771,-5.348 -3.681,-5.348 m 11.791,1.945 h -0.59 c -0.747,-0.886 -1.546,-1.58 -2.345,-1.58 -0.816,0 -1.233,0.486 -1.233,1.58 0,0.451 0.053,0.902 0.139,1.319 l 4.81,1.581 c 0.939,2.222 -0.19,3.195 -1.511,3.195 -2.274,0 -4.862,-3.803 -4.862,-7.137 0,-1.494 0.712,-2.31 1.823,-2.31 1.303,0 2.657,1.268 3.769,3.352 m -1.65,4.81 c 0.643,0 1.199,-0.486 0.903,-1.72 l -2.987,-0.694 c 0.521,1.389 1.39,2.414 2.084,2.414 m 10.663,-0.834 c 0.33,1.129 0.156,2.119 -0.712,2.119 -1.025,0 -1.286,-0.781 -2.328,-3.022 v 1.286 c 0,0.92 -0.294,1.736 -1.128,1.736 -0.973,0 -1.858,-1.511 -2.536,-3.005 h 0.452 c 0.469,0.678 0.903,1.077 1.251,1.077 0.416,0 0.642,-0.642 0,-2.066 l -1.876,-4.168 c -0.347,-0.781 0.017,-1.285 0.781,-1.285 0.47,0 0.678,0.122 0.869,0.626 l 1.84,4.879 c 0.521,0.643 0.99,1.198 1.581,1.823 z m 1.25,0.782 h 1.267 l -2.535,-6.929 c -0.226,-0.59 0.087,-1.181 0.694,-1.181 1.442,0 3.769,1.424 4.585,3.369 h -0.452 c -0.643,-0.677 -1.875,-1.58 -2.934,-1.771 l 2.327,6.512 h 2.379 l 0.294,0.99 h -2.309 l 0.886,2.5 h -0.92 l -1.651,-2.5 -1.631,-0.278 z m 9.95,2.223 3.385,3.16 V 0.833 H 44.054 L 41.97,-2.691 Z m 0.955,-6.981 h -0.591 c -0.746,-0.886 -1.545,-1.58 -2.344,-1.58 -0.816,0 -1.233,0.486 -1.233,1.58 0,0.451 0.052,0.902 0.138,1.319 l 4.811,1.581 c 0.938,2.222 -0.191,3.195 -1.511,3.195 -2.274,0 -4.862,-3.803 -4.862,-7.137 0,-1.494 0.712,-2.31 1.823,-2.31 1.303,0 2.657,1.268 3.769,3.352 m -1.651,4.81 c 0.643,0 1.199,-0.486 0.904,-1.72 l -2.987,-0.694 c 0.521,1.389 1.389,2.414 2.083,2.414"
       style="fill:#040606;fill-opacity:1;fill-rule:nonzero;stroke:none"
       id="path4448" /></g><g
     id="g4450"
     transform="translate(296.7515,704.5724)"><path
       d="m 0,0 c -0.059,0.06 0.178,0 0.238,0.119 h -0.476 c -0.059,0 -0.059,0.059 -0.059,0.119 C -0.594,0.178 -0.951,0.06 -1.248,0 c -0.416,-0.119 -0.773,-0.416 -1.248,-0.535 -0.653,-0.237 -1.189,-0.772 -1.901,-1.01 -0.06,0 -0.06,0.059 -0.06,0.119 0.06,0.178 0.297,0.238 0.416,0.416 0,0.059 0,0.118 -0.06,0.118 0.476,0.654 1.13,1.011 1.724,1.546 v 0.178 c 0.178,0.238 0.476,0.356 0.594,0.654 0.06,0.178 0.297,0.416 0.595,0.535 -0.06,0.059 -0.179,0.059 -0.179,0.178 -0.237,0 -0.475,-0.119 -0.713,0.059 0.111,0.111 0.238,0.172 0.373,0.212 -0.052,0.01 -0.098,0.035 -0.135,0.086 -0.059,0.118 0.114,0.251 0.297,0.297 0.238,0.059 0.535,0.059 0.713,0.237 -0.416,0.06 -0.891,-0.118 -1.307,0.119 0.297,0.773 0.772,1.427 1.485,1.783 0.06,0 0.179,0 0.179,-0.059 0,-0.297 -0.179,-0.535 -0.476,-0.595 C -0.475,4.22 0,4.22 0.476,3.982 0.416,3.863 0.297,3.922 0.238,3.922 0.535,3.744 0.892,3.863 1.188,3.625 1.01,3.447 0.832,3.625 0.654,3.625 2.497,3.09 4.458,2.674 6.002,1.486 4.695,0.832 3.328,0.535 1.902,0.238 c -0.178,0 -0.298,0 -0.476,0.059 0,-0.059 0,-0.178 -0.059,-0.178 C 1.129,0.119 0.951,0.119 0.773,0 0.535,-0.119 0.178,-0.178 0,0 m -1.217,-4.134 -0.014,-0.01 c -0.223,-0.157 -0.445,-0.317 -0.679,-0.453 -0.255,-0.147 -0.521,-0.259 -0.784,-0.385 -0.002,0.005 -0.005,0.01 -0.008,0.015 -0.02,0.028 -0.062,0.045 -0.1,0.024 -0.225,-0.122 -0.417,-0.283 -0.598,-0.456 -0.028,-0.026 -0.056,-0.053 -0.083,-0.08 -10e-4,-0.001 -0.003,-0.003 -0.005,-0.004 -10e-4,-0.002 -0.003,-0.003 -0.005,-0.005 l -0.084,-0.084 -0.01,-0.01 c -0.002,-0.002 -0.002,-0.003 -0.003,-0.005 -0.043,-0.042 -0.084,-0.085 -0.13,-0.14 -0.03,-0.035 -0.04,-0.056 -0.079,-0.083 -0.037,-0.024 -0.139,-0.023 -0.13,0.045 10e-4,0.004 0,0.008 10e-4,0.012 -0.035,-0.019 -0.071,-0.038 -0.106,-0.055 -0.032,-0.015 -0.062,-0.033 -0.092,-0.05 -0.014,0.004 -0.027,0.006 -0.041,0.005 -0.016,0 -0.03,-0.004 -0.043,-0.014 -0.073,-0.057 -0.145,-0.117 -0.215,-0.181 -0.124,-0.112 -0.241,-0.235 -0.345,-0.367 -0.002,-0.002 -0.003,-0.003 -0.005,-0.005 -0.004,-0.005 -0.008,-0.011 -0.012,-0.017 -0.005,-0.007 -0.012,-0.015 -0.018,-0.022 -0.006,-0.009 -0.012,-0.017 -0.019,-0.025 -0.001,-0.002 -0.003,-0.005 -0.005,-0.007 -0.014,-0.02 -0.027,-0.04 -0.041,-0.059 -0.001,-0.002 -0.001,-0.003 -0.002,-0.004 -0.01,-0.011 -0.027,-0.019 -0.048,-0.023 -0.009,0.012 -0.017,0.023 -0.024,0.035 -0.006,0.009 -0.012,0.019 -0.017,0.029 -0.018,0.031 -0.035,0.062 -0.051,0.095 0,0.001 -0.001,0.002 -0.002,0.003 -0.004,0.01 -0.009,0.02 -0.014,0.03 0.065,0.069 0.127,0.141 0.187,0.214 0.004,0.005 0.008,0.01 0.012,0.014 0.02,0.026 0.041,0.051 0.061,0.077 0.034,0.042 0.067,0.084 0.1,0.127 l 0.037,0.047 c 0.065,0.085 0.127,0.168 0.186,0.251 0.001,0.002 0.002,0.004 0.004,0.007 0.008,0.012 0.017,0.024 0.025,0.037 0.029,0.042 0.056,0.084 0.082,0.128 0.023,0.038 0.044,0.078 0.065,0.118 0.001,0.003 0.003,0.006 0.005,0.009 0.002,0.004 0.004,0.008 0.006,0.012 0.004,0.008 0.006,0.015 0.009,0.022 0.021,0.045 0.04,0.092 0.057,0.139 0.002,0.005 0.004,0.01 0.005,0.015 0.005,0.013 0.009,0.026 0.014,0.039 0.006,0.022 0.012,0.044 0.018,0.066 v 0 c 0.002,0.005 0.003,0.01 0.004,0.015 0.007,0.028 0.015,0.056 0.02,0.087 0.004,0.015 0,0.028 -0.007,0.04 0.064,0.111 0.144,0.218 0.236,0.32 -0.009,-0.005 -0.019,-0.009 -0.028,-0.015 -0.085,-0.055 -0.141,-0.132 -0.22,-0.191 -0.065,-0.048 -0.184,0.032 -0.107,0.09 0.052,0.038 0.091,0.081 0.134,0.122 0.003,0.003 0.004,0.007 0.007,0.01 0.098,0.096 0.192,0.22 0.303,0.301 0.068,0.05 0.127,0.092 0.183,0.14 0.009,0.007 0.017,0.016 0.026,0.023 0.041,0.055 0.086,0.104 0.133,0.15 0.002,0.002 0.004,0.005 0.006,0.006 0.569,0.549 1.527,0.525 2.277,0.875 0.297,0.119 0.653,-0.059 0.95,0 0.179,0 0.357,0 0.535,-0.119 -0.534,-0.291 -1.027,-0.62 -1.514,-0.925 m 1.065,-0.491 c -0.027,-0.065 -0.087,-0.122 -0.146,-0.173 0.074,-0.015 0.126,-0.048 0.078,-0.092 -0.138,-0.127 -0.269,-0.254 -0.45,-0.315 -0.013,-0.004 -0.049,-0.009 -0.092,-0.012 -0.072,-0.071 -0.146,-0.14 -0.221,-0.208 -0.071,-0.062 -0.398,-0.017 -0.298,0.071 0.151,0.134 0.291,0.279 0.44,0.415 0.083,0.077 0.172,0.15 0.247,0.237 0.041,0.048 0.075,0.095 0.127,0.131 0.049,0.035 0.363,0.063 0.315,-0.054 m -2.76,8.904 C -2.971,4.16 -3.037,4.147 -3.09,4.041 -3.149,3.922 -3.209,3.863 -3.328,3.804 c -0.059,0 -0.119,0 -0.119,0.059 0.06,0.238 0.238,0.475 0.476,0.535 0.059,0 0.059,-0.06 0.059,-0.119 M -7.844,0.356 c 0,0 -0.06,0.06 -0.06,0.12 0.773,1.01 1.367,1.961 1.902,3.03 0.773,0.416 1.414,1.022 2.021,1.664 1.01,1.07 2.08,2.021 3.327,2.615 0.476,0.178 1.07,0.119 1.546,-0.059 C 0.713,7.488 0.416,7.547 0.178,7.369 0.119,7.369 0.06,7.369 0,7.429 0.06,7.488 0.06,7.547 0.06,7.607 -0.535,6.953 -1.367,6.656 -1.842,5.883 -2.199,5.289 -2.437,4.517 -3.209,4.338 -3.447,4.279 -3.149,4.517 -3.269,4.457 -5.111,3.328 -6.418,1.961 -7.844,0.356 m 9.092,-1.307 c -0.119,0 -0.356,-0.059 -0.297,0.059 0.059,0.298 0.475,0.298 0.713,0.417 0.119,0.059 0.297,0.178 0.416,0.119 C 2.199,-0.535 2.377,-0.475 2.497,-0.594 2.14,-0.951 1.664,-0.772 1.248,-0.951 m 9.139,-4.257 c 0.337,0.337 0.678,0.7 1.017,1.064 h -0.007 c 0.632,0.714 1.25,1.395 1.981,2.023 0.224,0.199 0.44,0.374 0.647,0.517 0.059,0.059 0.059,0.178 0.119,0.237 -0.297,-0.119 -0.476,-0.356 -0.772,-0.475 -0.06,0 -0.12,0.059 -0.06,0.119 0.212,0.159 0.424,0.317 0.635,0.476 -0.013,-10e-4 -0.027,-10e-4 -0.04,-10e-4 -0.06,0 -0.06,0.06 -0.06,0.119 -0.772,0.119 -1.367,-0.416 -1.902,-0.892 -0.118,-0.059 -0.237,0.06 -0.297,0.06 -0.892,-0.297 -1.545,-1.07 -2.437,-1.426 v 0.118 C 8.855,-3.387 8.508,-3.603 8.142,-3.685 7.607,-3.803 7.131,-3.744 6.656,-3.744 5.936,-3.816 5.215,-3.975 4.496,-4.128 4.474,-4.134 4.454,-4.139 4.433,-4.144 4.046,-4.25 3.682,-4.394 3.326,-4.59 3.312,-4.598 3.298,-4.605 3.285,-4.614 3.255,-4.651 3.226,-4.687 3.199,-4.717 3.072,-4.857 2.961,-4.986 2.792,-5.072 2.426,-5.258 2.128,-5.582 1.806,-5.844 1.783,-5.863 1.748,-5.873 1.711,-5.875 1.392,-6.18 1.078,-6.49 0.753,-6.791 0.73,-6.812 0.639,-6.824 0.572,-6.812 c 0.002,0.001 0.004,0.002 0.005,0.005 0.011,0.019 0.023,0.037 0.034,0.057 0.051,0.083 0.101,0.167 0.153,0.25 0.057,0.093 0.116,0.185 0.176,0.276 0.081,0.123 0.164,0.245 0.253,0.362 0.023,0.03 0.017,0.058 -0.002,0.078 -0.019,0.02 -0.05,0.032 -0.082,0.031 0.296,0.288 0.648,0.533 0.997,0.745 v 0.009 c -0.04,-0.013 -0.097,0.019 -0.067,0.061 0.038,0.052 0.067,0.108 0.102,0.162 0.007,0.017 0.013,0.035 0.019,0.052 C 2.146,-4.708 2.13,-4.692 2.115,-4.677 2.02,-4.739 1.917,-4.798 1.836,-4.872 1.694,-5 1.583,-5.262 1.367,-5.26 c -0.014,10e-4 -0.056,0.003 -0.09,0.013 -0.026,0.005 -0.048,0.012 -0.063,0.021 0.003,0.005 0.005,0.01 0.008,0.014 0.003,0.005 0.006,0.011 0.009,0.017 0.003,0.005 0.006,0.01 0.009,0.015 l 0.028,0.051 c 0.009,0.017 0.019,0.034 0.028,0.051 0.008,0.014 0.015,0.028 0.023,0.041 0.014,0.026 0.028,0.051 0.042,0.076 0.01,0.018 0.021,0.036 0.031,0.054 0.025,0.044 0.051,0.087 0.077,0.131 0.012,0.021 0.024,0.042 0.037,0.063 0.021,0.036 0.041,0.072 0.063,0.108 0.029,0.049 -0.002,0.09 -0.045,0.106 0.11,0.143 0.245,0.263 0.407,0.355 H 1.913 c 0.228,0.114 0.456,0.253 0.682,0.381 0.033,0.029 0.066,0.057 0.099,0.085 -0.339,-0.114 -0.644,-0.268 -0.945,-0.466 0,0 -0.079,-0.032 -0.101,-0.054 0,0 -0.068,-0.026 -0.148,0.054 -0.008,0.011 -0.014,0.024 -0.014,0.043 0.059,0.12 0.238,0.179 0.356,0.298 0.06,0 0.119,0 0.119,-0.06 1.902,1.486 4.517,1.129 6.716,1.902 0.178,0.119 0.357,0.238 0.534,0.357 0.297,0.118 0.536,0.416 0.892,0.594 0.476,0.356 0.832,0.772 1.01,1.366 0,0.06 -0.059,0.12 -0.059,0.12 C 10.282,-0.356 9.39,-1.01 8.439,-1.486 7.191,-2.139 5.824,-2.021 4.517,-2.199 c 0.06,0.119 0.178,0.119 0.297,0.119 0,0.178 0.119,0.238 0.237,0.357 H 5.23 c 0.06,0 0.06,0.119 0.119,0.119 0.118,0 0.297,0.059 0.237,0.059 -0.178,0.238 -0.535,-0.178 -0.832,0 0.12,0.119 0.06,0.297 0.179,0.357 H 5.17 c 0,0.118 0.12,0.237 0.12,0.237 0.891,0.535 1.722,0.951 2.554,1.427 -0.177,0 -0.297,-0.179 -0.474,-0.06 0.118,0 0,0.178 0.118,0.178 0.654,0.178 1.189,0.535 1.843,0.773 -0.239,0 -0.416,-0.179 -0.654,0 0.118,0.059 0.178,0.178 0.357,0.178 v 0.179 c 0,0.059 0.058,0.059 0.118,0.059 -0.06,0 -0.118,0.059 -0.118,0.059 0.058,0.119 0.237,0.06 0.356,0.179 -0.059,0 -0.179,0 -0.179,0.059 0.179,0.238 0.476,0.297 0.773,0.357 -0.06,0.119 -0.237,0 -0.237,0.119 0,0.059 0.059,0.059 0.119,0.059 H 9.747 c -0.12,0.059 -0.06,0.178 -0.06,0.238 0.356,0.416 0.356,0.951 0.535,1.426 -0.059,0 -0.119,0 -0.119,0.059 C 9.508,3.685 8.558,3.447 7.667,3.209 H 7.37 C 7.072,3.09 6.656,3.09 6.359,3.269 6.122,3.388 6.002,3.566 5.765,3.744 5.29,4.041 4.814,4.279 4.279,4.457 2.793,4.933 1.248,5.17 -0.297,5.111 c 0.654,0.356 1.375,0.387 2.08,0.594 1.01,0.297 1.961,0.654 3.031,0.594 -0.179,0.06 -0.416,0 -0.595,0 C 3.387,6.359 2.555,6.121 1.664,5.943 1.07,5.824 0.535,5.586 -0.059,5.467 -0.416,5.349 -0.594,4.992 -1.01,5.052 V 5.23 c 0.594,0.713 1.307,1.426 2.258,1.485 1.07,0.179 2.08,0 3.15,-0.118 0.772,-0.06 1.485,-0.238 2.258,-0.416 0.298,0 0.356,-0.476 0.594,-0.535 0.357,-0.119 0.713,0 1.07,-0.238 0,0.119 -0.06,0.238 0,0.357 0.238,0.237 0.535,-0.06 0.772,0.059 0.476,0.297 -0.415,0.832 -0.653,1.248 0,0.059 0.06,0.119 0.06,0.119 C 8.974,6.775 9.331,6.299 9.924,6.002 10.222,5.883 10.935,5.705 10.816,6.062 10.519,6.715 9.924,7.25 9.45,7.845 v 0.238 c -0.119,0 -0.119,0.059 -0.179,0.118 V 8.439 C 9.034,8.558 9.092,8.795 8.974,8.974 8.795,9.271 8.915,9.687 8.795,10.043 8.677,10.4 8.618,10.697 8.558,11.054 c -0.179,1.01 -0.416,1.902 -0.535,2.852 -0.119,1.13 0.654,2.021 1.188,3.031 0.416,0.713 0.892,1.427 1.664,1.902 0.179,0.713 0.655,1.307 1.129,1.902 0.475,0.58 1.264,0.933 1.835,1.188 0.83,0.371 1.579,0.603 1.579,0.603 H -25.367 V -8.917 H 3.516 c 1.132,0.815 2.262,1.202 3.841,1.98 0.746,0.367 2.452,1.151 3.03,1.729"
       style="fill:#29387d;fill-opacity:1;fill-rule:nonzero;stroke:none"
       id="path4452" /></g><g
     id="g4454"
     transform="translate(357.8691,727.1046)"><path
       d="m 0,0 h -33.83 c 10e-4,0 0.063,-0.011 0.321,-0.148 0.275,-0.148 0.63,-0.338 0.854,-0.455 0.435,-0.228 0.86,-0.514 1.133,-0.951 0.119,-0.178 0.297,-0.535 0.178,-0.772 -0.119,-0.298 -0.178,-0.773 -0.475,-0.892 -0.357,-0.178 -0.832,-0.178 -1.248,-0.119 -0.238,0 -0.476,0.06 -0.713,0.119 0.891,-0.356 1.723,-0.772 2.317,-1.604 0.06,-0.119 0.298,-0.179 0.535,-0.179 0.06,0 0.06,-0.119 0.06,-0.178 -0.119,-0.119 -0.238,-0.178 -0.179,-0.357 h 0.179 c 0.297,0.119 0.237,0.714 0.653,0.535 0.297,-0.178 0.416,-0.594 0.238,-0.891 -0.238,-0.238 -0.475,-0.416 -0.713,-0.594 -0.06,-0.119 -0.06,-0.298 0,-0.416 0.178,-0.238 0.238,-0.476 0.297,-0.714 0.178,-0.416 0.238,-0.891 0.416,-1.307 0.238,-0.891 0.475,-1.783 0.416,-2.674 0,-0.476 -0.238,-0.892 -0.059,-1.367 0.118,-0.475 0.416,-0.832 0.653,-1.248 0.238,-0.357 0.476,-0.595 0.655,-0.951 0.356,-0.594 1.009,-1.189 0.712,-1.902 -0.178,-0.415 -0.832,-0.356 -1.248,-0.594 -0.356,-0.297 -0.059,-0.773 0.119,-1.07 0.297,-0.535 -0.357,-0.891 -0.773,-1.069 0.119,-0.179 0.356,-0.119 0.416,-0.238 0.06,-0.297 0.357,-0.476 0.179,-0.773 -0.239,-0.357 -0.951,-0.535 -0.595,-1.069 0.238,-0.416 0.084,-0.878 -0.059,-1.308 -0.178,-0.535 -0.654,-0.772 -1.07,-0.891 -0.356,-0.119 -0.772,-0.119 -1.129,-0.06 -0.119,0.06 -0.237,0.119 -0.356,0.119 -1.011,0.119 -2.021,0.416 -3.031,0.416 -0.297,-0.059 -0.594,-0.119 -0.832,-0.237 -0.269,-0.198 -0.507,-0.411 -0.719,-0.637 -0.003,-0.003 -0.005,-0.005 -0.008,-0.007 -0.044,-0.048 -0.087,-0.096 -0.129,-0.144 -0.026,-0.031 -0.052,-0.061 -0.077,-0.092 -0.017,-0.02 -0.034,-0.04 -0.051,-0.061 -0.173,-0.217 -0.329,-0.447 -0.468,-0.685 l -0.026,-0.045 c -0.016,-0.028 -0.03,-0.055 -0.046,-0.083 -0.194,-0.362 -0.343,-0.73 -0.449,-1.091 -0.404,-1.361 -0.228,-2.528 0.056,-2.812 0.079,-0.079 1.961,-0.66 3.273,-1.243 0.615,-0.274 1.045,-0.485 1.402,-0.71 H 0 Z"
       style="fill:#ea1c24;fill-opacity:1;fill-rule:nonzero;stroke:none"
       id="path4456" /></g><g
     id="g4458"
     transform="translate(326.0518,715.6315)"><path
       d="m 0,0 c 0.237,-0.059 0.594,-0.059 0.594,-0.178 -0.119,-0.475 -0.832,-0.594 -1.189,-1.07 h -0.178 c -0.178,-0.119 -0.119,-0.416 -0.297,-0.416 -0.179,0.06 -0.357,0 -0.535,-0.059 0.238,-0.238 0.535,-0.417 0.891,-0.357 0.06,0 0.179,-0.119 0.179,-0.238 0,0 0.058,0 0.118,0.06 0.06,0 0.119,0 0.119,-0.06 v -0.238 c -0.179,-0.237 -0.475,-0.118 -0.713,-0.178 0.476,-0.119 0.951,-0.119 1.366,0 0.358,0.119 0,0.713 0.239,1.011 -0.119,0 0,0.178 -0.119,0.178 0.119,0.119 0.238,0.297 0.356,0.357 0.119,0 0.298,0.059 0.357,0.178 0,0.118 -0.238,0.178 -0.178,0.297 0.356,0.237 0.653,0.594 0.535,0.951 -0.06,0.178 -0.535,0.178 -0.832,0.297 -0.298,0.119 -0.654,0 -1.011,-0.059 -0.297,0 -0.594,-0.179 -0.891,-0.238 -0.416,-0.119 -0.773,-0.357 -1.129,-0.594 0.416,0.178 0.832,0.237 1.307,0.356 0.357,0 0.659,0.088 1.011,0"
       style="fill:#8e9190;fill-opacity:1;fill-rule:nonzero;stroke:none"
       id="path4460" /></g></g>



<path
   d="M28.9,13.9c0.1,0,0.2,0,0.2,0.1c0,0.2-0.3,0.2-0.4,0.3h-0.1c-0.1,0,0,0.1-0.1,0.1  c-0.1,0-0.1,0-0.2,0c0.1,0.1,0.2,0.1,0.3,0.1c0,0,0.1,0,0.1,0.1c0,0,0,0,0,0c0,0,0,0,0,0v0.1c-0.1,0.1-0.2,0-0.2,0.1  c0.2,0,0.3,0,0.4,0c0.1,0,0-0.2,0.1-0.3c0,0,0-0.1,0-0.1c0,0,0.1-0.1,0.1-0.1c0,0,0.1,0,0.1-0.1c0,0-0.1-0.1-0.1-0.1  c0.1-0.1,0.2-0.2,0.2-0.3c0-0.1-0.2-0.1-0.3-0.1c-0.1,0-0.2,0-0.3,0c-0.1,0-0.2,0.1-0.3,0.1c-0.1,0-0.3,0.1-0.4,0.2  c0.1-0.1,0.3-0.1,0.4-0.1C28.7,13.9,28.8,13.8,28.9,13.9"
   class="st3"
   id="Yeux_3_" />
</svg>