<svg version="1.0" xmlns="http://www.w3.org/2000/svg" xmlns:xlink="http://www.w3.org/1999/xlink" x="0px" y="0px" viewBox="0 0 734.42 657.59" enable-background="new 0 0 734.42 657.59"  width="734.42" height="657.59" xml:space="preserve">
<style type="text/css">
	.st0{fill:#000091;}
	.st1{fill:#E1000F;}
	.st2{fill:#9D9D9C;}
</style>
<g id="vect">
	<g>
		<g>
			<g >
				<path d="M0,125.79h16.15l15.25,25.98l15.25-25.98H62.8v63.16H49.98v-44.93l-14.08,23.28h-9.02l-14.08-23.28v44.93H0V125.79z"/>
				<path d="M80.39,125.79H93.2v63.16H80.39V125.79z"/>
				<path d="M110.89,125.79h16.42l28.24,45.2v-45.2h12.81v63.16h-16.42l-28.24-45.38v45.38h-12.81V125.79z"/>
				<path d="M186.05,125.79h12.81v63.16h-12.81V125.79z"/>
				<path d="M220.15,171.63c3.79,4.87,8.84,7.76,13.98,7.76c5.05,0,8.12-2.71,8.12-7.31c0-11.28-28.87-8.75-28.87-29.77      c0-10.01,8.21-18.32,20.21-18.32c9.47,0,16.78,4.24,22.11,10.65l-9.38,8.39c-3.7-4.78-7.85-7.85-12.63-7.85      c-4.42,0-7.31,2.89-7.31,6.59c0,11.28,28.87,8.66,28.87,30.04c-0.18,11.73-9.38,18.95-20.93,18.95      c-10.65,0-17.86-3.88-23.46-10.56L220.15,171.63z"/>
				<path d="M261.75,125.79h51.79v11.64h-19.49v51.52h-12.81v-51.52h-19.49V125.79z"/>
				<path d="M324.82,125.79h36.81v10.92h-24v14.62h20.39v10.92h-20.39v15.79h24v10.92h-36.81V125.79z M325.9,108.2h13.17l10.2,12.18      h-11.73L325.9,108.2z"/>
				<path d="M376.52,125.79h19.31c13.89,0,22.47,7.13,22.47,18.86c0,7.58-3.7,13.26-10.11,16.33l19.85,27.97H412.7l-16.78-25.53      h-6.59v25.53h-12.81V125.79z M389.33,136.71v15.79h7.22c5.41,0,8.57-2.89,8.57-8.03c0-4.78-3.16-7.76-8.57-7.76H389.33z"/>
				<path d="M435.98,125.79h36.81v10.92h-24v14.62h20.39v10.92h-20.39v15.79h24v10.92h-36.81V125.79z"/>
				<path d="M0,216.86h24.81c20.03,0,33.56,14.53,33.56,31.58s-13.53,31.58-33.56,31.58H0V216.86z M12.81,228.5v39.88h12.18      c11.73,0,20.21-8.75,20.21-19.94c0-11.28-8.48-19.94-20.21-19.94H12.81z"/>
				<path d="M70.74,216.86h36.81v10.92h-24v14.62h20.39v10.92H83.55v15.79h24v10.92H70.74V216.86z"/>
				<path d="M145.9,216.86h12.81v51.52h24v11.64H145.9V216.86z"/>
				<path d="M186.32,242.85l-1.44-25.99h12.81l-1.35,25.99H186.32z"/>
				<path d="M211.85,216.86h36.81v10.92h-24v14.62h20.39v10.92h-20.39v15.79h24v10.92h-36.81V216.86z"/>
				<path d="M300.46,216.86h12.81v38.44c0,16.6-9.74,26.53-25.62,26.53c-15.79,0-25.53-9.92-25.53-26.53v-38.44h12.81v39.52      c0,8.48,4.78,13.44,12.81,13.44c7.85,0,12.72-4.96,12.72-13.44V216.86z"/>
				<path d="M329.15,216.86h19.31c13.89,0,22.47,7.13,22.47,18.86c0,7.58-3.7,13.26-10.1,16.33l19.85,27.97h-15.34l-16.78-25.53      h-6.59v25.53h-12.81V216.86z M341.96,227.78v15.79h7.22c5.41,0,8.57-2.89,8.57-8.03c0-4.78-3.16-7.76-8.57-7.76H341.96z"/>
				<path d="M449.6,248.44c0,18.04-13.62,33.38-33.47,33.38c-19.94,0-33.56-15.34-33.56-33.38s13.62-33.38,33.56-33.38      C435.98,215.06,449.6,230.4,449.6,248.44z M436.43,248.44c0-12.09-8.48-21.38-20.3-21.38c-11.91,0-20.39,9.29-20.39,21.38      c0,12.09,8.48,21.38,20.39,21.38C427.95,269.82,436.43,260.53,436.43,248.44z"/>
				<path d="M461.88,216.86h20.84c13.89,0,22.38,7.13,22.38,18.86c0,11.64-8.48,18.77-22.38,18.77h-8.03v25.53h-12.81V216.86z       M474.69,227.78v15.79h8.57c5.41,0,8.66-2.89,8.66-8.03c0-4.78-3.25-7.76-8.66-7.76H474.69z"/>
				<path d="M515.65,216.86h36.81v10.92h-24v14.62h20.39v10.92h-20.39v15.79h24v10.92h-36.81V216.86z"/>
				<path d="M0,307.93h36.81v10.92h-24v14.62H33.2v10.92H12.81v15.79h24v10.92H0V307.93z"/>
				<path d="M46.56,307.93h51.79v11.64H78.86v51.52H66.05v-51.52H46.56V307.93z"/>
				<path d="M133.09,307.93h24.81c20.03,0,33.56,14.53,33.56,31.58s-13.53,31.58-33.56,31.58h-24.81V307.93z M145.9,319.57v39.88      h12.18c11.73,0,20.21-8.75,20.21-19.94c0-11.28-8.48-19.94-20.21-19.94H145.9z"/>
				<path d="M203.82,307.93h36.81v10.92h-24v14.62h20.39v10.92h-20.39v15.79h24v10.92h-36.81V307.93z"/>
				<path d="M259.13,353.77c3.79,4.87,8.84,7.76,13.98,7.76c5.05,0,8.12-2.71,8.12-7.31c0-11.28-28.87-8.75-28.87-29.77      c0-10.02,8.21-18.32,20.21-18.32c9.47,0,16.78,4.24,22.11,10.65l-9.38,8.39c-3.7-4.78-7.85-7.85-12.63-7.85      c-4.42,0-7.31,2.89-7.31,6.59c0,11.28,28.87,8.66,28.87,30.05c-0.18,11.73-9.38,18.95-20.93,18.95      c-10.65,0-17.86-3.88-23.46-10.56L259.13,353.77z"/>
				<path d="M347.11,307.93h16.78l23.91,63.16h-13.62l-6.04-16.42h-25.26l-6.04,16.42H323.2L347.11,307.93z M364.16,343.75      l-8.66-23.73l-8.66,23.73H364.16z"/>
				<path d="M397.54,307.93h36.81v10.92h-24v14.62h20.39v10.92h-20.39v26.71h-12.81V307.93z"/>
				<path d="M445.64,307.93h36.81v10.92h-24v14.62h20.39v10.92h-20.39v26.71h-12.81V307.93z"/>
				<path d="M503.83,307.93h16.78l23.91,63.16H530.9l-6.04-16.42h-25.26l-6.04,16.42h-13.62L503.83,307.93z M520.89,343.75      l-8.66-23.73l-8.66,23.73H520.89z"/>
				<path d="M554.27,307.93h12.81v63.16h-12.81V307.93z"/>
				<path d="M584.77,307.93h19.31c13.89,0,22.47,7.13,22.47,18.86c0,7.58-3.7,13.26-10.11,16.33l19.85,27.97h-15.34l-16.78-25.53      h-6.59v25.53h-12.81V307.93z M597.58,318.85v15.79h7.22c5.41,0,8.57-2.89,8.57-8.03c0-4.78-3.16-7.76-8.57-7.76H597.58z"/>
				<path d="M644.23,307.93h36.81v10.92h-24v14.62h20.39v10.92h-20.39v15.79h24v10.92h-36.81V307.93z"/>
				<path d="M699.54,353.77c3.79,4.87,8.84,7.76,13.98,7.76c5.05,0,8.12-2.71,8.12-7.31c0-11.28-28.87-8.75-28.87-29.77      c0-10.02,8.21-18.32,20.21-18.32c9.47,0,16.78,4.24,22.11,10.65l-9.38,8.39c-3.7-4.78-7.85-7.85-12.63-7.85      c-4.42,0-7.31,2.89-7.31,6.59c0,11.28,28.87,8.66,28.87,30.05c-0.18,11.73-9.38,18.95-20.93,18.95      c-10.65,0-17.86-3.88-23.46-10.56L699.54,353.77z"/>
				<path d="M0,399h36.81v10.92h-24v14.62H33.2v10.92H12.81v15.79h24v10.92H0V399z M12.45,393.59l10.2-12.18h13.17l-11.73,12.18      H12.45z"/>
				<path d="M46.56,399h51.79v11.64H78.86v51.52H66.05v-51.52H46.56V399z"/>
				<path d="M109.63,399h19.31c13.89,0,22.47,7.13,22.47,18.86c0,7.58-3.7,13.26-10.1,16.33l19.85,27.97h-15.34l-16.78-25.53h-6.59      v25.53h-12.81V399z M122.44,409.92v15.79h7.22c5.41,0,8.57-2.89,8.57-8.03c0-4.78-3.16-7.76-8.57-7.76H122.44z"/>
				<path d="M187.76,399h16.78l23.91,63.16h-13.62l-6.04-16.42h-25.26l-6.04,16.42h-13.62L187.76,399z M204.82,434.82l-8.66-23.73      l-8.66,23.73H204.82z"/>
				<path d="M238.2,399h16.42l28.24,45.2V399h12.81v63.16h-16.42l-28.24-45.38v45.38H238.2V399z"/>
				<path d="M357.12,446.46v-10.65h-16.06v-11.64h28.87v26.89c-5.86,7.85-15.7,12.9-27.52,12.9c-20.48,0-34.47-15.34-34.47-33.38      c0-18.05,13.62-33.38,33.56-33.38c11.46,0,20.84,5.14,26.62,12.81l-10.11,7.85c-3.61-5.14-9.29-8.66-16.51-8.66      c-11.91,0-20.39,9.29-20.39,21.38c0,12.09,8.93,21.38,21.29,21.38C348.37,451.97,353.51,449.89,357.12,446.46z"/>
				<path d="M384.19,399H421v10.92h-24v14.62h20.39v10.92H397v15.79h24v10.92h-36.81V399z M385.27,381.41h13.17l10.2,12.18h-11.73      L385.27,381.41z"/>
				<path d="M435.89,399h19.31c13.89,0,22.46,7.13,22.46,18.86c0,7.58-3.7,13.26-10.1,16.33l19.85,27.97h-15.34l-16.78-25.53h-6.59      v25.53h-12.81V399z M448.7,409.92v15.79h7.22c5.41,0,8.57-2.89,8.57-8.03c0-4.78-3.16-7.76-8.57-7.76H448.7z"/>
				<path d="M495.35,399h36.81v10.92h-24v14.62h20.39v10.92h-20.39v15.79h24v10.92h-36.81V399z"/>
				<path d="M550.66,444.84c3.79,4.87,8.84,7.76,13.98,7.76c5.05,0,8.12-2.71,8.12-7.31c0-11.28-28.87-8.75-28.87-29.77      c0-10.01,8.21-18.32,20.21-18.32c9.47,0,16.78,4.24,22.11,10.65l-9.38,8.39c-3.7-4.78-7.85-7.85-12.63-7.85      c-4.42,0-7.31,2.89-7.31,6.59c0,11.28,28.87,8.66,28.87,30.04c-0.18,11.73-9.38,18.95-20.93,18.95      c-10.65,0-17.86-3.88-23.46-10.56L550.66,444.84z"/>
			</g>
		</g>
		<g>
			<path d="M205.52,636.75c1.71,0,3.2,1.3,2.41,4.58l-7.96,1.85C201.36,639.48,203.67,636.75,205.52,636.75 M209.92,649.57h-1.57     c-1.99,2.36-4.12,4.21-6.25,4.21c-2.18,0-3.29-1.3-3.29-4.21c0-1.2,0.14-2.41,0.37-3.52l12.83-4.21c2.5-5.93-0.51-8.52-4.03-8.52     c-6.07,0-12.97,10.14-12.97,19.03c0,3.98,1.9,6.16,4.86,6.16C203.35,658.51,206.96,655.13,209.92,649.57 M207.38,630.96     l9.03-8.43v-0.97h-4.86l-5.56,9.4H207.38z M179.68,636.89h4.26l-6.76,18.48c-0.6,1.57,0.23,3.15,1.85,3.15     c3.84,0,10.05-3.8,12.23-8.98h-1.2c-1.71,1.81-5,4.21-7.83,4.72l6.21-17.37h6.34l0.79-2.64h-6.16l2.36-6.67h-2.45l-4.4,6.67     l-5.23,0.74V636.89z M173.94,636.01c0.51-1.71-0.65-2.69-1.53-2.69c-3.7,0-8.1,3.33-9.86,8.01h1.2c1.2-1.71,3.24-3.61,5.14-3.94     l-7.08,18.43c-0.65,1.71,0.65,2.69,1.53,2.69c3.52,0,7.64-3.38,9.4-8.01h-1.2c-1.2,1.71-3.24,3.61-5.14,3.94L173.94,636.01z      M175.24,626.74c1.67,0,3.06-1.34,3.06-3.06c0-1.67-1.39-3.06-3.06-3.06c-1.71,0-3.06,1.39-3.06,3.06     C172.18,625.4,173.53,626.74,175.24,626.74 M134.44,655.08c-0.93,2.08,0.05,3.43,2.08,3.43c1.25,0,1.81-0.32,2.32-1.67     l4.91-13.01c2.27-2.78,6.95-5.74,8.8-5.74c1.34,0,1.16,1.11,0.28,2.78l-7.55,14.49c-0.74,1.44,0.23,3.15,1.85,3.15     c3.7,0,8.1-3.33,9.86-8.01h-1.2c-1.2,1.71-3.24,3.61-5.14,3.94l6.48-13.1c0.83-1.67,1.25-3.24,1.25-4.49     c0-2.13-1.2-3.52-3.43-3.52c-3.2,0-6.44,3.61-10.28,8.06v-3.43c0-2.45-0.79-4.63-3.01-4.63c-1.39,0-2.73,1.2-3.98,2.92v0.46     c2.41-0.14,3.47,3.47,1.76,7.27L134.44,655.08z M134.35,638.97c0.88-3.01,0.42-5.65-1.9-5.65c-2.73,0-3.43,2.08-6.21,8.06v-3.43     c0-2.45-0.79-4.63-3.01-4.63c-2.59,0-4.95,4.03-6.76,8.01h1.2c1.25-1.81,2.41-2.87,3.33-2.87c1.11,0,1.71,1.71,0,5.51l-5,11.11     c-0.93,2.08,0.05,3.43,2.08,3.43c1.25,0,1.81-0.32,2.32-1.67l4.91-13.01c1.39-1.71,2.64-3.2,4.21-4.86H134.35z M105.92,636.75     c1.71,0,3.2,1.3,2.41,4.58l-7.96,1.85C101.75,639.48,104.07,636.75,105.92,636.75 M110.32,649.57h-1.57     c-1.99,2.36-4.12,4.21-6.25,4.21c-2.18,0-3.29-1.3-3.29-4.21c0-1.2,0.14-2.41,0.37-3.52l12.83-4.21c2.5-5.93-0.51-8.52-4.03-8.52     c-6.07,0-12.97,10.14-12.97,19.03c0,3.98,1.9,6.16,4.86,6.16C103.74,658.51,107.35,655.13,110.32,649.57 M80.08,636.89h4.26     l-6.76,18.48c-0.6,1.57,0.23,3.15,1.85,3.15c3.84,0,10.05-3.8,12.23-8.98h-1.2c-1.71,1.81-5,4.21-7.83,4.72l6.21-17.37h6.34     l0.79-2.64H89.8l2.36-6.67h-2.45l-4.4,6.67l-5.23,0.74V636.89z M56.7,651.29c0-5.7,6.34-13.43,9.91-13.43     c0.79,0,1.53,0.09,2.18,0.28l-3.7,9.86c-2.13,2.59-5.42,5.74-6.95,5.74C57.25,653.74,56.7,653,56.7,651.29 M76.19,632.26     l-1.94-0.14l-2.18,2.13h-0.46c-10.56,0-19.68,11.85-19.68,20.47c0,2.41,1.48,3.8,3.8,3.8c2.73,0,5.42-3.89,8.43-8.06l-0.14,1.48     c-0.37,4.26,0.93,6.58,3.15,6.58c2.59,0,4.95-4.03,6.76-8.01h-1.2c-1.25,1.81-2.41,2.87-3.33,2.87c-0.97,0-1.67-1.76,0-5.51     L76.19,632.26z M53.69,638.97c0.88-3.01,0.42-5.65-1.9-5.65c-2.73,0-3.43,2.08-6.21,8.06v-3.43c0-2.45-0.79-4.63-3.01-4.63     c-2.59,0-4.95,4.03-6.76,8.01h1.2c1.25-1.81,2.41-2.87,3.33-2.87c1.11,0,1.71,1.71,0,5.51l-5,11.11     c-0.93,2.08,0.05,3.43,2.08,3.43c1.25,0,1.81-0.32,2.32-1.67l4.91-13.01c1.39-1.71,2.64-3.2,4.21-4.86H53.69z M18.22,657.59     l0.46-1.44c-6.16-1.16-6.95-1.16-4.49-7.87l2.5-6.9h6.81c3.06,0,3.1,1.25,2.64,4.58h1.76l4.08-11.16h-1.76     c-1.53,2.64-2.73,4.58-6.07,4.58h-6.71l3.57-9.77c1.11-3.1,1.76-3.75,5.93-3.75h2.96c4.31,0,4.82,1.16,4.82,5.51h1.71l1.44-7.59     H12.29l-0.46,1.44c4.95,1.02,5.42,1.48,3.1,7.87l-5.56,15.19c-2.32,6.34-3.29,6.85-8.98,7.87l-0.42,1.44H18.22z"/>
			<path d="M143.52,578.86c1.71,0,3.2,1.3,2.41,4.58l-7.96,1.85C139.35,581.6,141.67,578.86,143.52,578.86 M147.92,591.69h-1.57     c-1.99,2.36-4.12,4.21-6.25,4.21c-2.18,0-3.29-1.3-3.29-4.21c0-1.2,0.14-2.41,0.37-3.52l12.83-4.21c2.5-5.93-0.51-8.52-4.03-8.52     c-6.07,0-12.97,10.14-12.97,19.03c0,3.98,1.9,6.16,4.86,6.16C141.34,600.63,144.96,597.25,147.92,591.69 M145.37,573.08     l9.03-8.43v-0.97h-4.86l-5.56,9.4H145.37z M117.68,579h4.26l-6.76,18.48c-0.6,1.57,0.23,3.15,1.85,3.15     c3.84,0,10.05-3.8,12.23-8.98h-1.2c-1.71,1.81-5,4.21-7.83,4.72l6.21-17.37h6.34l0.79-2.64h-6.16l2.36-6.67h-2.45l-4.4,6.67     l-5.23,0.74V579z M111.94,578.12c0.51-1.71-0.65-2.69-1.53-2.69c-3.7,0-8.1,3.33-9.86,8.01h1.2c1.2-1.71,3.24-3.61,5.14-3.94     l-7.08,18.43c-0.65,1.71,0.65,2.69,1.53,2.69c3.52,0,7.64-3.38,9.4-8.01h-1.2c-1.2,1.71-3.24,3.61-5.14,3.94L111.94,578.12z      M113.24,568.86c1.67,0,3.06-1.34,3.06-3.06c0-1.67-1.39-3.06-3.06-3.06c-1.71,0-3.06,1.39-3.06,3.06     C110.18,567.52,111.52,568.86,113.24,568.86 M88.6,596.55l12.92-33.85l-0.42-0.51l-8.1,0.93v0.97l1.57,1.2     c1.44,1.11,0.97,2.18-0.32,5.6l-10.09,26.58c-0.74,1.44,0.23,3.15,1.85,3.15c3.7,0,7.64-3.33,9.4-8.01h-1.2     C93,594.33,90.5,596.23,88.6,596.55 M64.06,593.4c0-5.7,6.34-13.43,9.91-13.43c0.79,0,1.53,0.09,2.18,0.28l-3.7,9.86     c-2.13,2.59-5.42,5.74-6.95,5.74C64.61,595.86,64.06,595.12,64.06,593.4 M83.55,574.37l-1.94-0.14l-2.18,2.13h-0.46     c-10.56,0-19.68,11.85-19.68,20.47c0,2.41,1.48,3.8,3.8,3.8c2.73,0,5.42-3.89,8.43-8.06l-0.14,1.48     c-0.37,4.26,0.93,6.58,3.15,6.58c2.59,0,4.95-4.03,6.76-8.01h-1.2c-1.25,1.81-2.41,2.87-3.33,2.87c-0.97,0-1.67-1.76,0-5.51     L83.55,574.37z M36.41,605.12c0-2.45,2.36-3.98,5.74-5.33c1.11,0.56,2.78,1.16,5,1.9c3.52,1.16,4.86,1.62,4.86,2.69     c0,2.27-3.84,3.98-9.08,3.98C38.54,608.36,36.41,607.43,36.41,605.12 M46,590.16c-1.53,0-2.13-1.3-2.13-2.78     c0-4.12,2.22-10.19,5.7-10.19c1.53,0,2.13,1.3,2.13,2.78C51.7,584.1,49.47,590.16,46,590.16 M56.05,602.85     c0-2.96-2.64-4.03-6.95-5.33c-3.7-1.11-5.37-1.44-5.37-2.64c0-0.97,0.79-2.13,2.36-2.96c6.07-0.32,10-5.79,10-10.37     c0-0.97-0.19-1.81-0.51-2.55h5.14l0.79-2.64h-8.15c-0.97-0.6-2.13-0.93-3.29-0.93c-6.44,0-10.6,5.65-10.6,10.23     c0,3.47,2.22,5.65,4.91,6.16c-3.01,1.34-4.68,2.92-4.68,4.77c0,1.07,0.37,1.81,1.25,2.5c-6.95,2.04-9.68,4.35-9.68,7.64     c0,3.2,4.21,4.54,9.22,4.54C48.96,611.28,56.05,606.69,56.05,602.85 M23.68,583.03c3.06,0,3.1,1.25,2.64,4.58h1.76l4.08-11.16     h-1.76c-1.53,2.64-2.73,4.58-6.07,4.58h-6.71l3.38-9.31c1.11-3.1,1.76-3.7,5.93-3.7h2.96c4.31,0,4.82,1.16,4.82,5.46h1.71     l1.44-7.59H12.29l-0.46,1.44c4.95,1.02,5.42,1.48,3.1,7.87l-5.56,15.19c-2.32,6.34-3.29,6.85-8.98,7.87l-0.42,1.44H28.4     l5.09-8.06h-1.94c-3.24,3.06-7.32,5.97-13.01,5.97c-7.55,0-6.85-0.32-4.35-7.22l2.69-7.36H23.68z M27.38,563.63l9.03-6.21v-0.97     h-5.46l-5,7.18H27.38z"/>
			<path d="M140.51,520.98c1.71,0,3.2,1.3,2.41,4.58l-7.96,1.85C136.34,523.71,138.66,520.98,140.51,520.98 M144.91,533.81h-1.57     c-1.99,2.36-4.12,4.21-6.25,4.21c-2.18,0-3.29-1.3-3.29-4.21c0-1.2,0.14-2.41,0.37-3.52l12.83-4.21c2.5-5.93-0.51-8.52-4.03-8.52     c-6.07,0-12.97,10.14-12.97,19.03c0,3.98,1.9,6.16,4.86,6.16C138.33,542.74,141.95,539.36,144.91,533.81 M142.36,515.19     l9.03-8.43v-0.97h-4.86l-5.56,9.4H142.36z M115.83,521.12h3.38l-6.76,18.48c-0.6,1.57,0.23,3.15,1.85,3.15     c3.84,0,10.05-3.8,12.23-8.98h-1.2c-1.71,1.81-5,4.21-7.83,4.72l6.21-17.37h6.34l0.79-2.64h-6.16l2.36-6.67h-2.45l-4.4,6.67     l-4.35,0.74V521.12z M112.5,523.2c0.88-3.01,0.42-5.65-1.9-5.65c-2.73,0-3.43,2.08-6.21,8.06v-3.43c0-2.45-0.79-4.63-3.01-4.63     c-2.59,0-4.95,4.03-6.76,8.01h1.2c1.25-1.81,2.41-2.87,3.33-2.87c1.11,0,1.71,1.71,0,5.51l-5,11.11     c-0.93,2.08,0.05,3.43,2.08,3.43c1.25,0,1.81-0.32,2.32-1.67l4.91-13.01c1.39-1.71,2.64-3.2,4.21-4.86H112.5z M84.06,520.98     c1.71,0,3.2,1.3,2.41,4.58l-7.96,1.85C79.89,523.71,82.21,520.98,84.06,520.98 M88.46,533.81h-1.57     c-1.99,2.36-4.12,4.21-6.25,4.21c-2.18,0-3.29-1.3-3.29-4.21c0-1.2,0.14-2.41,0.37-3.52l12.83-4.21c2.5-5.93-0.51-8.52-4.03-8.52     c-6.07,0-12.97,10.14-12.97,19.03c0,3.98,1.9,6.16,4.86,6.16C81.89,542.74,85.5,539.36,88.46,533.81 M57.02,538.99     c-1.25,0-3.06-1.16-3.06-2.18c0-0.32,0.56-1.76,1.25-3.57l2.08-5.51c2.22-2.64,5.6-5.46,7.5-5.46c1.16,0,2.04,0.74,2.04,2.45     C66.84,529.78,62.11,538.99,57.02,538.99 M71.61,522.69c0-3.75-1.39-5.14-3.98-5.14c-3.24,0-6.3,3.43-9.35,7.59L66,504.82     l-0.42-0.51l-8.1,0.93v0.97l1.57,1.2c1.44,1.11,0.97,2.27-0.32,5.6L50.4,534.5c-0.6,1.57-1.34,3.43-1.34,3.94     c0,2.22,3.01,4.31,5.74,4.31C61.09,542.74,71.61,531.4,71.61,522.69 M46.42,520.24c0.51-1.71-0.65-2.69-1.53-2.69     c-3.7,0-8.1,3.33-9.86,8.01h1.2c1.2-1.71,3.24-3.61,5.14-3.94l-7.08,18.43c-0.65,1.71,0.65,2.69,1.53,2.69     c3.52,0,7.64-3.38,9.4-8.01h-1.2c-1.2,1.71-3.24,3.61-5.14,3.94L46.42,520.24z M47.71,510.98c1.67,0,3.06-1.34,3.06-3.06     c0-1.67-1.39-3.06-3.06-3.06c-1.71,0-3.06,1.39-3.06,3.06C44.66,509.63,46,510.98,47.71,510.98 M29.05,508.01H12.2l-0.46,1.44     c4.95,1.02,5.42,1.48,3.1,7.87l-5.46,15.19c-2.32,6.34-3.29,6.85-8.98,7.87l-0.42,1.44h25.65l5.56-9.91h-1.94     c-3.15,3.47-6.85,7.83-12.55,7.83c-4.31,0-4.82-0.74-2.5-7.22l5.46-15.19c2.27-6.34,3.29-6.85,8.98-7.87L29.05,508.01z"/>
		</g>
		<g>
			<path class="st0" d="M95.13,73.97c0.9-0.9,1.81-1.87,2.71-2.84h-0.02c1.68-1.91,3.33-3.72,5.29-5.39     c0.59-0.53,1.17-1,1.72-1.38c0.16-0.16,0.16-0.48,0.32-0.63c-0.79,0.32-1.27,0.95-2.06,1.27c-0.16,0-0.32-0.16-0.16-0.32     c0.56-0.42,1.13-0.85,1.69-1.27c-0.03,0-0.07,0-0.11,0c-0.16,0-0.16-0.16-0.16-0.32c-2.06-0.32-3.65,1.11-5.07,2.38     c-0.32,0.16-0.63-0.16-0.79-0.16c-2.38,0.79-4.12,2.85-6.5,3.8c0-0.16,0-0.16,0-0.32c-0.95,0.32-1.87,0.89-2.85,1.11     c-1.43,0.32-2.69,0.16-3.96,0.16c-1.92,0.19-3.84,0.62-5.76,1.03c-0.06,0.01-0.11,0.03-0.17,0.04c-1.03,0.28-2,0.67-2.95,1.19     c-0.04,0.02-0.07,0.04-0.11,0.06c-0.08,0.1-0.16,0.19-0.23,0.27c-0.34,0.37-0.63,0.72-1.09,0.95c-0.97,0.5-1.77,1.36-2.63,2.06     c-0.06,0.05-0.16,0.07-0.25,0.08c-0.85,0.82-1.69,1.64-2.55,2.44c-0.06,0.06-0.31,0.09-0.48,0.06c0-0.01,0.01-0.01,0.01-0.01     c0.03-0.05,0.06-0.1,0.09-0.15c0.13-0.22,0.27-0.45,0.41-0.67c0.15-0.25,0.31-0.49,0.47-0.74c0.22-0.33,0.44-0.65,0.67-0.96     c0.06-0.08,0.04-0.15-0.01-0.21c-0.05-0.05-0.13-0.08-0.22-0.08c0.79-0.77,1.73-1.42,2.66-1.99c0-0.01,0-0.02,0-0.03     c-0.11,0.04-0.26-0.05-0.18-0.16c0.1-0.14,0.18-0.29,0.27-0.43c0.02-0.05,0.03-0.09,0.05-0.14c-0.04-0.04-0.08-0.08-0.12-0.13     c-0.26,0.17-0.53,0.32-0.74,0.52c-0.38,0.34-0.68,1.04-1.25,1.03c-0.04,0-0.15-0.01-0.24-0.03c-0.07-0.01-0.13-0.03-0.17-0.06     c0.01-0.01,0.01-0.02,0.02-0.04c0.01-0.01,0.02-0.03,0.02-0.04c0.01-0.01,0.02-0.03,0.02-0.04c0.02-0.05,0.05-0.09,0.08-0.14     c0.03-0.05,0.05-0.09,0.08-0.14c0.02-0.04,0.04-0.07,0.06-0.11c0.04-0.07,0.07-0.13,0.11-0.2c0.03-0.05,0.06-0.1,0.08-0.14     c0.07-0.12,0.14-0.23,0.2-0.35c0.03-0.06,0.07-0.11,0.1-0.17c0.06-0.1,0.11-0.19,0.17-0.29c0.08-0.13,0-0.24-0.12-0.28     c0.29-0.38,0.65-0.7,1.09-0.95h-0.05c0.61-0.31,1.21-0.68,1.82-1.02c0.09-0.08,0.17-0.15,0.26-0.23c-0.9,0.3-1.72,0.71-2.52,1.24     c0,0-0.21,0.09-0.27,0.14c0,0-0.18,0.07-0.4-0.14c-0.02-0.03-0.04-0.06-0.04-0.12c0.16-0.32,0.63-0.48,0.95-0.79     c0.16,0,0.32,0,0.32,0.16c5.07-3.96,12.04-3.01,17.91-5.07c0.48-0.32,0.95-0.63,1.43-0.95c0.79-0.32,1.43-1.11,2.38-1.58     c1.27-0.95,2.22-2.06,2.69-3.64c0-0.16-0.16-0.32-0.16-0.32c-2.06,2.22-4.44,3.96-6.97,5.23c-3.33,1.74-6.97,1.43-10.46,1.9     c0.16-0.32,0.48-0.32,0.79-0.32c0-0.48,0.32-0.63,0.63-0.95c0.16,0,0.32,0,0.48,0c0.16,0,0.16-0.32,0.32-0.32     c0.32,0,0.79-0.16,0.63-0.16c-0.48-0.63-1.43,0.48-2.22,0c0.32-0.32,0.16-0.79,0.48-0.95c0.16,0,0.48,0,0.63,0     c0-0.32,0.32-0.63,0.32-0.63c2.38-1.43,4.6-2.54,6.81-3.8c-0.48,0-0.79,0.48-1.27,0.16c0.32,0,0-0.48,0.32-0.48     c1.74-0.48,3.17-1.43,4.91-2.06c-0.63,0-1.11,0.48-1.74,0c0.32-0.16,0.48-0.48,0.95-0.48c0-0.16,0-0.32,0-0.48     c0-0.16,0.16-0.16,0.32-0.16c-0.16,0-0.32-0.16-0.32-0.16c0.16-0.32,0.63-0.16,0.95-0.48c-0.16,0-0.48,0-0.48-0.16     c0.48-0.63,1.27-0.79,2.06-0.95c-0.16-0.32-0.63,0-0.63-0.32c0-0.16,0.16-0.16,0.32-0.16c-0.16,0-0.16,0-0.32,0     c-0.32-0.16-0.16-0.48-0.16-0.63c0.95-1.11,0.95-2.54,1.43-3.8c-0.16,0-0.32,0-0.32-0.16c-1.58,1.74-4.12,2.38-6.5,3.01     c-0.16,0-0.63,0-0.79,0c-0.79,0.32-1.9,0.32-2.69-0.16c-0.63-0.32-0.95-0.79-1.58-1.27c-1.27-0.79-2.54-1.43-3.96-1.9     c-3.96-1.27-8.08-1.9-12.2-1.74c1.74-0.95,3.67-1.03,5.55-1.58c2.69-0.79,5.23-1.74,8.08-1.58c-0.48-0.16-1.11,0-1.58,0     c-2.22-0.16-4.44,0.48-6.81,0.95c-1.58,0.32-3.01,0.95-4.6,1.27c-0.95,0.32-1.43,1.27-2.54,1.11c0,0,0-0.32,0-0.48     c1.58-1.9,3.49-3.8,6.02-3.96c2.85-0.48,5.55,0,8.4,0.32c2.06,0.16,3.96,0.63,6.02,1.11c0.79,0,0.95,1.27,1.59,1.43     c0.95,0.32,1.9,0,2.85,0.63c0-0.32-0.16-0.63,0-0.95c0.63-0.63,1.43,0.16,2.06-0.16c1.27-0.79-1.11-2.22-1.74-3.33     c0-0.16,0.16-0.32,0.16-0.32c1.27,1.11,2.22,2.38,3.8,3.17c0.79,0.32,2.69,0.79,2.38-0.16c-0.79-1.74-2.38-3.17-3.64-4.75     c0-0.16,0-0.48,0-0.63c-0.32,0-0.32-0.16-0.48-0.32c0-0.16,0-0.48,0-0.63c-0.63-0.32-0.48-0.95-0.79-1.43     c-0.48-0.79-0.16-1.9-0.48-2.85s-0.48-1.74-0.63-2.69c-0.48-2.69-1.11-5.07-1.43-7.61c-0.32-3.01,1.74-5.39,3.17-8.08     c1.11-1.9,2.38-3.8,4.44-5.07c0.48-1.9,1.74-3.49,3.01-5.07c1.27-1.55,3.37-2.49,4.89-3.17c2.21-0.99,4.21-1.61,4.21-1.61H-0.21     v83.86h77.02c3.02-2.17,6.03-3.2,10.24-5.28C89.04,77.6,93.59,75.52,95.13,73.97z M70.76,62.62c-0.32,0-0.95,0.16-0.79-0.16     c0.16-0.79,1.27-0.79,1.9-1.11c0.32-0.16,0.79-0.48,1.11-0.32c0.32,0.48,0.79,0.32,1.11,0.63     C73.14,62.62,71.87,62.15,70.76,62.62z M46.52,59.13c0,0-0.16-0.16-0.16-0.32c2.06-2.69,3.64-5.23,5.07-8.08     c2.06-1.11,3.77-2.72,5.39-4.44c2.69-2.85,5.55-5.39,8.87-6.97c1.27-0.48,2.85-0.32,4.12,0.16c-0.48,0.63-1.27,0.48-1.9,0.95     c-0.16,0-0.32,0-0.48-0.16c0.16-0.16,0.16-0.32,0.16-0.48c-1.58,1.74-3.8,2.54-5.07,4.6c-0.95,1.58-1.58,3.65-3.64,4.12     c-0.63,0.16,0.16-0.48-0.16-0.32C53.81,51.21,50.32,54.86,46.52,59.13z M59.67,48.68c-0.16,0.32-0.33,0.35-0.48,0.63     c-0.16,0.32-0.32,0.48-0.63,0.63c-0.16,0-0.32,0-0.32-0.16c0.16-0.63,0.63-1.27,1.27-1.43C59.67,48.36,59.67,48.52,59.67,48.68z      M67.03,72.42c-0.07,0.17-0.23,0.32-0.39,0.46c0.2,0.04,0.34,0.13,0.21,0.25c-0.37,0.34-0.72,0.68-1.2,0.84     c-0.03,0.01-0.13,0.03-0.24,0.03c-0.19,0.19-0.39,0.37-0.59,0.55c-0.19,0.17-1.06,0.05-0.79-0.19c0.4-0.36,0.77-0.74,1.17-1.11     c0.22-0.2,0.46-0.4,0.66-0.63c0.11-0.13,0.2-0.25,0.34-0.35C66.32,72.18,67.16,72.11,67.03,72.42z M64.19,71.11     c-0.01,0.01-0.03,0.02-0.04,0.03c-0.59,0.42-1.18,0.84-1.81,1.21c-0.68,0.39-1.39,0.69-2.09,1.03c-0.01-0.01-0.01-0.03-0.02-0.04     c-0.05-0.07-0.16-0.12-0.27-0.06c-0.6,0.32-1.11,0.75-1.6,1.21c-0.07,0.07-0.15,0.14-0.22,0.21c0,0-0.01,0.01-0.01,0.01     c0,0-0.01,0.01-0.01,0.01c-0.08,0.07-0.15,0.15-0.23,0.22c-0.01,0.01-0.02,0.02-0.03,0.03c0,0-0.01,0.01-0.01,0.01     c-0.11,0.11-0.22,0.23-0.34,0.37c-0.08,0.09-0.11,0.15-0.21,0.22c-0.1,0.07-0.37,0.06-0.35-0.12c0-0.01,0-0.02,0-0.03     c-0.09,0.05-0.19,0.1-0.28,0.14c-0.09,0.04-0.17,0.09-0.25,0.14c-0.03-0.01-0.07-0.02-0.11-0.02c-0.04,0-0.08,0.01-0.11,0.04     c-0.19,0.15-0.39,0.31-0.57,0.48c-0.33,0.3-0.64,0.63-0.92,0.98c-0.01,0-0.01,0.01-0.01,0.01c-0.01,0.01-0.02,0.03-0.03,0.04     c-0.02,0.02-0.03,0.04-0.05,0.06c-0.02,0.02-0.03,0.04-0.05,0.07c0,0.01-0.01,0.01-0.02,0.02c-0.04,0.05-0.07,0.11-0.11,0.16     c0,0,0,0.01-0.01,0.01c-0.03,0.03-0.07,0.05-0.13,0.06c-0.02-0.03-0.04-0.06-0.06-0.09c-0.02-0.02-0.03-0.05-0.04-0.08     c-0.05-0.08-0.09-0.17-0.14-0.25c0,0,0-0.01,0-0.01c-0.01-0.03-0.03-0.05-0.04-0.08c0.17-0.18,0.34-0.38,0.5-0.57     c0.01-0.01,0.02-0.03,0.03-0.04c0.06-0.07,0.11-0.14,0.16-0.2c0.09-0.11,0.18-0.23,0.27-0.34c0.03-0.04,0.06-0.08,0.1-0.13     c0.17-0.23,0.34-0.45,0.5-0.67c0-0.01,0.01-0.01,0.01-0.02c0.02-0.03,0.05-0.07,0.07-0.1c0.08-0.11,0.15-0.23,0.22-0.34     c0.06-0.1,0.12-0.21,0.17-0.32c0-0.01,0.01-0.02,0.01-0.02c0.01-0.01,0.01-0.02,0.02-0.03c0.01-0.02,0.02-0.04,0.03-0.06     c0.06-0.12,0.11-0.24,0.15-0.37c0-0.01,0.01-0.03,0.01-0.04c0.01-0.03,0.02-0.07,0.04-0.1c0.02-0.06,0.03-0.12,0.05-0.17l0,0     c0-0.01,0.01-0.03,0.01-0.04c0.02-0.08,0.04-0.15,0.06-0.23c0.01-0.04,0-0.08-0.02-0.11c0.17-0.3,0.38-0.58,0.63-0.86     c-0.02,0.01-0.05,0.03-0.07,0.04c-0.23,0.15-0.38,0.35-0.59,0.51c-0.17,0.13-0.49-0.08-0.29-0.24c0.14-0.1,0.24-0.22,0.36-0.33     c0.01-0.01,0.01-0.02,0.02-0.03c0.26-0.26,0.51-0.59,0.81-0.8c0.18-0.13,0.34-0.24,0.49-0.37c0.02-0.02,0.05-0.04,0.07-0.06     c0.11-0.15,0.23-0.28,0.35-0.4c0.01-0.01,0.01-0.01,0.02-0.02c1.52-1.46,4.07-1.4,6.07-2.33c0.79-0.32,1.74,0.16,2.54,0     c0.48,0,0.95,0,1.43,0.32C66.8,69.42,65.49,70.3,64.19,71.11z M67.43,60.09c-0.16-0.16,0.48,0,0.63-0.32c-0.48,0-0.79,0-1.27,0     c-0.16,0-0.16-0.16-0.16-0.32c-0.79,0.16-1.74,0.48-2.54,0.63c-1.11,0.32-2.06,1.11-3.33,1.43c-1.74,0.63-3.17,2.06-5.07,2.69     c-0.16,0-0.16-0.16-0.16-0.32c0.16-0.48,0.79-0.63,1.11-1.11c0-0.16,0-0.32-0.16-0.32c1.27-1.74,3.01-2.69,4.6-4.12     c0-0.16,0-0.32,0-0.48c0.48-0.63,1.27-0.95,1.58-1.74c0.16-0.48,0.79-1.11,1.58-1.43c-0.16-0.16-0.48-0.16-0.48-0.48     c-0.63,0-1.27,0.32-1.9-0.16c0.3-0.3,0.63-0.46,0.99-0.56c-0.14-0.03-0.26-0.1-0.36-0.23c-0.16-0.32,0.31-0.67,0.79-0.79     c0.63-0.16,1.43-0.16,1.9-0.63c-1.11-0.16-2.38,0.32-3.49-0.32c0.79-2.06,2.06-3.8,3.96-4.75c0.16,0,0.48,0,0.48,0.16     c0,0.79-0.48,1.43-1.27,1.58c1.27,0.32,2.54,0.32,3.8,0.95c-0.16,0.32-0.48,0.16-0.63,0.16c0.79,0.48,1.74,0.16,2.54,0.79     c-0.48,0.48-0.95,0-1.43,0c4.91,1.43,10.14,2.54,14.26,5.7c-3.49,1.74-7.13,2.54-10.93,3.33c-0.48,0-0.79,0-1.27-0.16     c0,0.16,0,0.48-0.16,0.48c-0.63,0-1.11,0-1.58,0.32C68.86,60.4,67.91,60.56,67.43,60.09z"/>
			<g>
				<path class="st1" d="M230.42,0H140.2c0,0,0.17,0.03,0.86,0.4c0.73,0.39,1.68,0.9,2.28,1.21c1.16,0.61,2.29,1.37,3.02,2.54      c0.32,0.48,0.79,1.43,0.48,2.06c-0.32,0.79-0.48,2.06-1.27,2.38c-0.95,0.48-2.22,0.48-3.33,0.32c-0.63,0-1.27-0.16-1.9-0.32      c2.38,0.95,4.6,2.06,6.18,4.28c0.16,0.32,0.79,0.48,1.43,0.48c0.16,0,0.16,0.32,0.16,0.48c-0.32,0.32-0.63,0.48-0.48,0.95      c0.16,0,0.32,0,0.48,0c0.79-0.32,0.63-1.9,1.74-1.43c0.79,0.48,1.11,1.58,0.63,2.38c-0.63,0.63-1.27,1.11-1.9,1.58      c-0.16,0.32-0.16,0.79,0,1.11c0.48,0.63,0.63,1.27,0.79,1.9c0.48,1.11,0.63,2.38,1.11,3.49c0.63,2.38,1.27,4.75,1.11,7.13      c0,1.27-0.63,2.38-0.16,3.64c0.32,1.27,1.11,2.22,1.74,3.33c0.63,0.95,1.27,1.58,1.74,2.54c0.95,1.58,2.69,3.17,1.9,5.07      c-0.48,1.11-2.22,0.95-3.33,1.58c-0.95,0.79-0.16,2.06,0.32,2.85c0.79,1.43-0.95,2.38-2.06,2.85c0.32,0.48,0.95,0.32,1.11,0.63      c0.16,0.79,0.95,1.27,0.48,2.06c-0.63,0.95-2.54,1.43-1.58,2.85c0.63,1.11,0.22,2.34-0.16,3.49c-0.48,1.43-1.74,2.06-2.85,2.38      c-0.95,0.32-2.06,0.32-3.01,0.16c-0.32-0.16-0.63-0.32-0.95-0.32c-2.69-0.32-5.39-1.11-8.08-1.11      c-0.79,0.16-1.58,0.32-2.22,0.63c-0.72,0.53-1.35,1.1-1.92,1.7c-0.01,0.01-0.01,0.01-0.02,0.02c-0.12,0.13-0.23,0.25-0.35,0.38      c-0.07,0.08-0.14,0.16-0.2,0.24c-0.05,0.05-0.09,0.11-0.13,0.16c-0.46,0.58-0.88,1.19-1.25,1.83c-0.02,0.04-0.05,0.08-0.07,0.12      c-0.04,0.07-0.08,0.15-0.12,0.22c-0.52,0.96-0.91,1.95-1.2,2.91c-1.08,3.63-0.61,6.74,0.15,7.5c0.21,0.21,5.23,1.76,8.73,3.32      c1.64,0.73,2.79,1.29,3.74,1.89h88.59V0z"/>
			</g>
			<path class="st2" d="M145.57,30.59c0.63,0.16,1.58,0.16,1.58,0.48c-0.32,1.27-2.22,1.58-3.17,2.85h-0.48     c-0.48,0.32-0.32,1.11-0.79,1.11c-0.48-0.16-0.95,0-1.43,0.16c0.63,0.63,1.43,1.11,2.38,0.95c0.16,0,0.48,0.32,0.48,0.63     c0,0,0.16,0,0.32-0.16c0.16,0,0.32,0,0.32,0.16v0.63c-0.48,0.63-1.27,0.32-1.9,0.48c1.27,0.32,2.54,0.32,3.64,0     c0.95-0.32,0-1.9,0.63-2.69c-0.32,0,0-0.48-0.32-0.48c0.32-0.32,0.63-0.79,0.95-0.95c0.32,0,0.79-0.16,0.95-0.48     c0-0.32-0.63-0.47-0.48-0.79c0.95-0.63,1.74-1.58,1.43-2.54c-0.16-0.48-1.43-0.48-2.22-0.79c-0.79-0.32-1.74,0-2.69,0.16     c-0.79,0-1.59,0.48-2.38,0.63c-1.11,0.32-2.06,0.95-3.01,1.58c1.11-0.48,2.22-0.63,3.49-0.95     C143.82,30.59,144.63,30.36,145.57,30.59z"/>
		</g>
	</g>
</g>
<g id="zone">
	<rect x="-45.37" y="-122.41" transform="matrix(-1.836970e-16 1 -1 -1.836970e-16 696.005 -38.4184)" fill="none" width="825.15" height="902.41"/>
	<rect x="-0.21" fill="none" width="734.85" height="657.59"/>
</g>
</svg>
