<svg id="Calque_1" data-name="Calque 1" xmlns="http://www.w3.org/2000/svg" xmlns:xlink="http://www.w3.org/1999/xlink" viewBox="0 0 770.95 279.25"><defs><style>.cls-1,.cls-2,.cls-9{fill:none;}.cls-2{stroke:#000;stroke-width:0.61px;}.cls-3{clip-path:url(#clip-path);}.cls-4{fill:#fff;}.cls-5{fill:#164194;}.cls-6{fill:#e30613;}.cls-7{fill:gray;}.cls-8{fill:#24356d;}.cls-9{stroke:#24356d;stroke-linecap:round;stroke-miterlimit:10;stroke-width:2.55px;}</style><clipPath id="clip-path" transform="translate(-14.67 -16.37)"><rect class="cls-1" x="561.07" y="90.65" width="222.98" height="74.1"/></clipPath></defs><title>logo_ART_cmjn</title><path d="M573.84,217.81a2.82,2.82,0,0,1-1.74-.42,8.72,8.72,0,0,1-1.93-2.55c-.75-1.29-1.59-2.68-2.38-3.85a1.39,1.39,0,0,1-.33,0c-.22,0-.39,0-.61,0v1.17c0,.59,0,1.19,0,1.78a6.38,6.38,0,0,0,.22,2.16,1.38,1.38,0,0,0,1.34.92v.61l-.51,0c-.57,0-1.36,0-2.39,0s-1.81,0-2.38,0l-.53,0V217a1.38,1.38,0,0,0,1.08-.44,2.07,2.07,0,0,0,.44-1.19,27.17,27.17,0,0,0,.09-3.23v-3.69a16.2,16.2,0,0,0-.24-4c-.16-.6-.62-.84-1.37-.93V203c.44,0,.88,0,1.32,0,1.15,0,1.5,0,2.86-.06,1.19-.05,1.87-.07,2.4-.07a5.07,5.07,0,0,1,3.14.75,3.59,3.59,0,0,1,1.39,2.88c0,1.8-1.19,3.27-3.21,4a40.14,40.14,0,0,1,2.26,3.32,16.82,16.82,0,0,0,2,2.64,1.64,1.64,0,0,0,.92.55v.61A7.44,7.44,0,0,1,573.84,217.81Zm-5.65-13.76a5.69,5.69,0,0,0-1.32.17c0,1.3,0,3.65,0,5.48a7.27,7.27,0,0,0,1,.06,2.76,2.76,0,0,0,3-2.83A2.69,2.69,0,0,0,568.19,204.05Z" transform="translate(-14.67 -16.37)"/><path d="M581.07,204.34l-.86-.51,1.8-2.65,2.09.38Zm4,13c-.16.27-.35.33-1.34.33-.62,0-1.22,0-1.84-.06-.87,0-1.74,0-2.61,0s-1.75,0-2.62,0v-.5a1.28,1.28,0,0,0,1.25-1.35,19.47,19.47,0,0,0,.06-2.07v-5.14a5,5,0,0,0-.2-1.78,1.14,1.14,0,0,0-1.11-.76v-.51h8.5c0,.53,0,1.07,0,1.6s0,.85,0,1.29h-.65c-.13-1.4-.73-1.78-2.89-1.78l-1.36,0c0,.71-.06,1-.06,2v2.11c.27,0,.49,0,.82,0,1.89,0,2.47-.27,2.58-1.26h.65c0,.29,0,.89,0,1.8s0,1.47,0,1.76h-.65c-.06-1-.55-1.29-2.42-1.29l-1,0c0,1.15,0,2.29,0,3.44,0,.76.13,1,.56,1.12a5.16,5.16,0,0,0,1.26.09c2,0,2.65-.43,3.07-1.92l.71.14A12.47,12.47,0,0,1,585.12,217.36Z" transform="translate(-14.67 -16.37)"/><path d="M592.69,212.24a4.62,4.62,0,0,1-.5,0l-.4-.92c1.7-.11,2.65-1,2.65-2.33a2.35,2.35,0,0,0-2.38-2.49,3.11,3.11,0,0,0-.69.08c0,1.12,0,2.25,0,3.37v3.18c0,2.38,0,2.78.2,3.25a1.11,1.11,0,0,0,1.11.77v.5h-.44c-.47,0-1.12,0-2,0s-1.53,0-2,0h-.44v-.5a1.28,1.28,0,0,0,1.25-1.35,23.59,23.59,0,0,0,.06-2.67v-4.54a5,5,0,0,0-.2-1.78,1.13,1.13,0,0,0-1.11-.76v-.51a5.31,5.31,0,0,0,.84,0c.31,0,.74,0,1.32,0,.93,0,1.86-.09,2.78-.09,2.58,0,4.12,1.27,4.12,3.38S595.09,212.24,592.69,212.24Z" transform="translate(-14.67 -16.37)"/><path d="M609.2,206.43a2.34,2.34,0,0,0-.32,1.36c0,.78-.06,1.38-.06,2.51,0,.41,0,1.67,0,2.92a4.44,4.44,0,0,1-.73,2.8,4.56,4.56,0,0,1-4,1.83,4.82,4.82,0,0,1-2.83-.76c-1.27-.82-1.76-1.89-1.76-3.81s0-2.82,0-3.46a15.3,15.3,0,0,0-.11-2.79c-.11-.66-.45-.93-1.21-1v-.51l.41,0c.48,0,1.15,0,2,0s1.54,0,2,0l.41,0V206c-.56.07-.83.22-1,.53a2.77,2.77,0,0,0-.26,1.43c0,1.15,0,2.27,0,3.41,0,3.13.07,3.73.63,4.38a2.7,2.7,0,0,0,2.06.86,2.75,2.75,0,0,0,2.76-1.84,10.9,10.9,0,0,0,.27-3.4v-1.79c0-2.07-.06-2.71-.25-3a1.15,1.15,0,0,0-1-.56v-.51c.73,0,1,0,1.89,0s1.18,0,1.91,0V206A1.21,1.21,0,0,0,609.2,206.43Z" transform="translate(-14.67 -16.37)"/><path d="M620.37,216.78c-.85.66-1.81.87-3.67.87-1,0-2-.07-3-.07-.4,0-1.14,0-1.65,0h-.22v-.5c.85-.08,1.18-.51,1.26-1.35a25.09,25.09,0,0,0,.07-2.67v-3.43a9.63,9.63,0,0,0-.2-2.89,1.17,1.17,0,0,0-1.13-.76v-.51c.84,0,1.33,0,2.49,0s2.63-.06,3.69-.06c1.67,0,3.2.8,3.2,2.69,0,1.4-.88,2.34-2.6,2.78,1.92.38,2.94,1.49,2.94,3.29A3,3,0,0,1,620.37,216.78Zm-4-10.32c-.32,0-.65,0-1,0,0,1.18,0,3.22-.07,4a7.64,7.64,0,0,0,.8,0c1.78,0,2.8-.75,2.8-2.06S618,206.46,616.41,206.46Zm.06,5.07c-.31,0-.64,0-1.11.06,0,.49,0,.58,0,1.41v1.08a6.26,6.26,0,0,0,.17,1.92c.14.46.58.67,1.34.67a2.17,2.17,0,0,0,2.41-2.38A2.59,2.59,0,0,0,616.47,211.53Z" transform="translate(-14.67 -16.37)"/><path d="M631.85,217.38c-.16.25-.38.31-1.29.31-.45,0-.93,0-1.38,0-1.13,0-2.14-.07-3.38-.07-.93,0-1.54,0-2.12,0v-.5a1.1,1.1,0,0,0,.88-.37c.33-.38.42-.85.42-2.18,0-.91,0-1.63,0-2.58v-1.94c0-2.45,0-2.78-.2-3.27a1.15,1.15,0,0,0-1.12-.76v-.51l.45,0c.49,0,1.16,0,2.07,0s1.58,0,2,0l.46,0V206c-.93,0-1.33.49-1.44,1.36,0,.31,0,.6,0,2.67v3c0,2.53,0,2.84.25,3.09s.58.29,1.36.29a3.94,3.94,0,0,0,2-.36,2.3,2.3,0,0,0,1.07-1.58l.69.18A12.5,12.5,0,0,1,631.85,217.38Z" transform="translate(-14.67 -16.37)"/><path d="M638.17,217.62c-.46,0-1.13,0-2,0s-1.53,0-2,0h-.44v-.5c.86-.08,1.18-.51,1.26-1.35a25.09,25.09,0,0,0,.07-2.67v-3.05c0-.47,0-1,0-1.49a4.9,4.9,0,0,0-.18-1.78,1.15,1.15,0,0,0-1.13-.76v-.51l.44,0c.47,0,1.13,0,2,0s1.52,0,2,0l.43,0V206a1.28,1.28,0,0,0-1.25,1.36c-.05.53-.05,1-.05,2.67v3.05c0,2.38,0,2.78.2,3.25a1.11,1.11,0,0,0,1.1.77v.5Z" transform="translate(-14.67 -16.37)"/><path d="M655.15,220.9a9,9,0,0,1-4.36-1.23,21.55,21.55,0,0,1-2.8-1.92,7.89,7.89,0,0,1-1.43.1,5.72,5.72,0,0,1-6.11-6,6.21,6.21,0,0,1,6.49-6.54c3.74,0,6.23,2.4,6.23,6a6.49,6.49,0,0,1-3.38,5.88c.65.33,1.31.69,1.94,1.07a8.48,8.48,0,0,0,4.33,1.6,4.46,4.46,0,0,0,2.09-.52l.23.63A5.59,5.59,0,0,1,655.15,220.9Zm-8.58-14.36c-2.21,0-3.79,1.85-3.79,4.45,0,3.16,1.87,5.65,4.25,5.65s3.81-1.89,3.81-4.53C650.84,209,649,206.54,646.57,206.54Z" transform="translate(-14.67 -16.37)"/><path d="M665.75,206.43a2.42,2.42,0,0,0-.32,1.36c0,.78-.06,1.38-.06,2.51,0,.41,0,1.67,0,2.92a4.44,4.44,0,0,1-.73,2.8,4.56,4.56,0,0,1-4,1.83,4.84,4.84,0,0,1-2.83-.76c-1.27-.82-1.76-1.89-1.76-3.81s0-2.82,0-3.46A15.3,15.3,0,0,0,656,207c-.1-.66-.45-.93-1.21-1v-.51l.41,0c.48,0,1.15,0,2,0s1.55,0,2,0l.41,0V206c-.56.07-.83.22-1,.53a2.77,2.77,0,0,0-.26,1.43c0,1.15-.05,2.27-.05,3.41,0,3.13.07,3.73.63,4.38a2.7,2.7,0,0,0,2.06.86,2.75,2.75,0,0,0,2.76-1.84,10.9,10.9,0,0,0,.27-3.4v-1.79c0-2.07,0-2.71-.25-3a1.14,1.14,0,0,0-1-.56v-.51c.73,0,1,0,1.89,0s1.18,0,1.91,0V206A1.21,1.21,0,0,0,665.75,206.43Z" transform="translate(-14.67 -16.37)"/><path d="M676.83,217.36c-.16.27-.34.33-1.34.33-.62,0-1.22,0-1.84-.06-.87,0-1.74,0-2.61,0s-1.75,0-2.62,0v-.5a1.29,1.29,0,0,0,1.26-1.35c.05-.54.05-1.12.05-2.07v-5.14a4.77,4.77,0,0,0-.2-1.78,1.13,1.13,0,0,0-1.11-.76v-.51h8.5c0,.53,0,1.07,0,1.6s0,.85,0,1.29h-.65c-.13-1.4-.73-1.78-2.89-1.78l-1.36,0c0,.71,0,1,0,2v2.11c.27,0,.49,0,.81,0,1.89,0,2.47-.27,2.58-1.26H676c0,.29,0,.89,0,1.8s0,1.47,0,1.76h-.66c-.05-1-.54-1.29-2.41-1.29l-1,0c0,1.15,0,2.29,0,3.44,0,.76.13,1,.57,1.12a5.07,5.07,0,0,0,1.25.09c2,0,2.65-.43,3.07-1.92l.71.14A12.47,12.47,0,0,1,676.83,217.36Z" transform="translate(-14.67 -16.37)"/><path d="M693.64,206.51c0-1.58-.95-2.2-3.43-2.2-.51,0-1,0-1.54.07,0,1.51,0,2.57,0,5,.52,0,.79,0,1.16,0,2.05,0,2.66-.35,2.77-1.54h.79c0,.62,0,1.25,0,1.87,0,.81,0,1.65,0,2.46h-.79c-.15-1.32-.66-1.58-3-1.58-.39,0-.54,0-1,0v2.46c0,.49,0,1,0,1.59,0,1.21.13,2.26,1.56,2.35v.61l-.53,0c-.55,0-1.36,0-2.4,0s-1.84,0-2.41,0l-.53,0V217a1.55,1.55,0,0,0,1.52-1.63c.06-.66.06-1,.06-3.23v-5.5a5.8,5.8,0,0,0-.24-2.15,1.38,1.38,0,0,0-1.34-.93V203h10.11c0,.42,0,1.12,0,2a14.24,14.24,0,0,0,0,1.5Z" transform="translate(-14.67 -16.37)"/><path d="M705.8,217.78a2.4,2.4,0,0,1-1.44-.34,7.45,7.45,0,0,1-1.6-2.11c-.61-1.07-1.3-2.22-2-3.18a1.42,1.42,0,0,1-.27,0l-.51,0v1c0,.49,0,1,0,1.47a5.62,5.62,0,0,0,.18,1.78,1.15,1.15,0,0,0,1.11.77v.5h-.42c-.47,0-1.12,0-2,0s-1.49,0-2,0h-.44v-.5a1.18,1.18,0,0,0,.9-.37,1.79,1.79,0,0,0,.36-1,25.09,25.09,0,0,0,.07-2.67v-3.05a13.09,13.09,0,0,0-.2-3.27c-.13-.49-.51-.69-1.13-.76v-.51a10,10,0,0,0,1.09,0c1,0,1.24,0,2.37-.06s1.54,0,2,0a4.17,4.17,0,0,1,2.6.62,3,3,0,0,1,1.15,2.38,3.59,3.59,0,0,1-2.66,3.32,29.93,29.93,0,0,1,1.88,2.74,13.37,13.37,0,0,0,1.61,2.18,1.37,1.37,0,0,0,.77.46v.5A6,6,0,0,1,705.8,217.78Zm-4.67-11.37a4.32,4.32,0,0,0-1.09.15c0,1.07,0,3,0,4.52a6.6,6.6,0,0,0,.8,0,2.28,2.28,0,0,0,2.49-2.34A2.22,2.22,0,0,0,701.13,206.41Z" transform="translate(-14.67 -16.37)"/><path d="M718.91,217.62c-.46,0-1.11,0-1.95,0s-1.5,0-2,0h-.42v-.5c.58,0,.93-.35.93-.86a3.22,3.22,0,0,0-.24-1c-.21-.67-.36-1.12-.58-1.74h-3.48l-.37,1a6.89,6.89,0,0,0-.41,1.73c0,.53.23.76.81.8v.5c-.69,0-.94,0-1.81,0s-1.11,0-1.8,0v-.5a.84.84,0,0,0,.56-.26,6.66,6.66,0,0,0,1.24-2.32l1.72-4.4c.47-1.18,1.18-3.09,1.67-4.63h1.24c.16.56.54,1.45.8,2.11l2.56,6.55a15.92,15.92,0,0,0,1,2.18,1.4,1.4,0,0,0,.94.77v.5Zm-5.89-8.9c-.47,1.23-1.12,2.83-1.4,3.72h2.69Z" transform="translate(-14.67 -16.37)"/><path d="M731.84,206.57a3.08,3.08,0,0,0-.28,1.58c0,1.64-.07,4.18-.07,5.4v2.78c0,.41.06,1,.06,1.3h-1.24c-1.18-1.54-3.63-4.54-3.63-4.54-.29-.36-2.56-3.16-3.71-4.55,0,.38,0,.14,0,1.32V211c0,1.36,0,2.71.08,4.07a3.2,3.2,0,0,0,.29,1.49,1,1,0,0,0,1,.53v.5c-.64,0-1.29,0-1.93,0s-1.29,0-1.94,0v-.5c1.2,0,1.23-1,1.27-2,0-.77,0-1.4,0-2.56v-3.84c0-1.5-.08-1.87-.35-2.27s-.42-.4-1-.45v-.51c.6,0,.82,0,1.58,0s1,0,1.56,0a23.42,23.42,0,0,0,1.82,2.29c1.78,2.16,3.38,4,4.88,5.88v-4a14.67,14.67,0,0,0-.12-2.74,1.17,1.17,0,0,0-1.15-1v-.51c.75,0,1,0,1.93,0s1.18,0,1.92,0V206A1,1,0,0,0,731.84,206.57Z" transform="translate(-14.67 -16.37)"/><path d="M744.51,217.2a9.1,9.1,0,0,1-3.65.65l-.16.73a1.93,1.93,0,0,1,.34,0,1.09,1.09,0,0,1,1.15,1.09c0,1-.78,1.67-2,1.67a2.81,2.81,0,0,1-1.09-.23l.26-.71a1.81,1.81,0,0,0,.65.14c.51,0,.85-.25.85-.71s-.18-.58-.45-.58a.68.68,0,0,0-.4.15l-.4-.11.36-1.47a5.61,5.61,0,0,1-3.74-1.69,6.33,6.33,0,0,1-1.72-4.54c0-3.93,2.52-6.29,6.68-6.29a11.3,11.3,0,0,1,3.52.53c0,.42,0,.83,0,1.23s0,1,0,1.38H744c-.29-1.29-1.33-2-3-2-2.56,0-4.13,1.71-4.13,4.55,0,3.27,1.84,5.64,4.36,5.64a2.85,2.85,0,0,0,3-2.21l.69.14A16.58,16.58,0,0,0,744.51,217.2Z" transform="translate(-14.67 -16.37)"/><path d="M757.12,217.62c-.46,0-1.11,0-2,0s-1.51,0-2,0h-.42v-.5c.58,0,.93-.35.93-.86a3.58,3.58,0,0,0-.24-1c-.22-.67-.36-1.12-.58-1.74h-3.49l-.36,1a7.05,7.05,0,0,0-.42,1.73c0,.53.24.76.82.8v.5c-.69,0-.94,0-1.81,0s-1.11,0-1.8,0v-.5a.84.84,0,0,0,.56-.26,6.66,6.66,0,0,0,1.24-2.32l1.72-4.4c.47-1.18,1.18-3.09,1.67-4.63h1.24c.16.56.54,1.45.79,2.11l2.57,6.55a15.92,15.92,0,0,0,1,2.18,1.4,1.4,0,0,0,.94.77v.5Zm-5.89-8.9c-.47,1.23-1.13,2.83-1.4,3.72h2.69Z" transform="translate(-14.67 -16.37)"/><path d="M763.05,217.62c-.45,0-1.12,0-2,0s-1.52,0-2,0h-.43v-.5c.85-.08,1.18-.51,1.25-1.35a25.09,25.09,0,0,0,.07-2.67v-3.05c0-.47,0-1,0-1.49a4.9,4.9,0,0,0-.18-1.78,1.14,1.14,0,0,0-1.12-.76v-.51l.43,0c.48,0,1.13,0,2,0s1.53,0,2,0l.44,0V206c-.78.05-1.18.54-1.26,1.36-.05.53-.05,1-.05,2.67v3.05c0,2.38,0,2.78.2,3.25a1.11,1.11,0,0,0,1.11.77v.5Z" transform="translate(-14.67 -16.37)"/><path d="M768.7,217.85a7.59,7.59,0,0,1-3.05-.61c-.06-.69-.18-1.75-.33-2.62l.69-.11a2.76,2.76,0,0,0,2.8,2.23c1.29,0,2.16-.67,2.16-1.68,0-.82-.57-1.39-1.38-1.89L767.68,212a3.64,3.64,0,0,1-2.07-3.31c0-2,1.54-3.34,3.94-3.34a6.3,6.3,0,0,1,3,.66c0,.43,0,.58,0,1.14s0,.84,0,1.34h-.69a2.25,2.25,0,0,0-2.32-2,1.78,1.78,0,0,0-1.95,1.71c0,.87.6,1.45,1.56,2.07l1.55,1c1.47,1,2.3,1.89,2.3,3.34C773,216.51,771.24,217.85,768.7,217.85Z" transform="translate(-14.67 -16.37)"/><path d="M783.3,217.36c-.16.27-.34.33-1.34.33-.62,0-1.22,0-1.84-.06-.87,0-1.74,0-2.61,0s-1.75,0-2.62,0v-.5a1.29,1.29,0,0,0,1.26-1.35c.05-.54.05-1.12.05-2.07v-5.14a4.77,4.77,0,0,0-.2-1.78,1.14,1.14,0,0,0-1.11-.76v-.51h8.5c0,.53,0,1.07,0,1.6s0,.85,0,1.29h-.65c-.13-1.4-.73-1.78-2.89-1.78l-1.36,0c0,.71-.06,1-.06,2v2.11c.28,0,.49,0,.82,0,1.89,0,2.47-.27,2.58-1.26h.65c0,.29,0,.89,0,1.8s0,1.47,0,1.76h-.65c-.05-1-.54-1.29-2.42-1.29l-1,0c0,1.15,0,2.29,0,3.44,0,.76.13,1,.56,1.12a5.21,5.21,0,0,0,1.26.09c2,0,2.65-.43,3.07-1.92l.71.14A12.47,12.47,0,0,1,783.3,217.36Z" transform="translate(-14.67 -16.37)"/><path d="M568.85,186.55c-.16.21-.43.28-1.06.28-.87,0-1.72-.06-2.58-.07l-1.7,0c-.53,0-1.82,0-2.2,0h-.24l.07-.37a1.34,1.34,0,0,0,1.09-.55,4.6,4.6,0,0,0,.71-1.83c.23-1,.34-1.56.71-3.38l.28-1.4a15.42,15.42,0,0,0,.39-2.69c0-.78-.28-1.09-1-1.18l.07-.39a1.29,1.29,0,0,0,.25,0h3.94a1.69,1.69,0,0,0,.28,0l-.07.39a1.27,1.27,0,0,0-1.11.53c-.44.56-.69,1.32-1.35,4.74l-.23,1.18c-.28,1.45-.38,2-.47,2.6a3.46,3.46,0,0,0-.06.55c0,.69.36.9,1.49.9,2,0,2.74-.4,3.39-1.85l.48.17A12.75,12.75,0,0,1,568.85,186.55Z" transform="translate(-14.67 -16.37)"/><path d="M574.1,177.93a.82.82,0,0,1-.9-.85,1,1,0,0,1,1.09-1.08.79.79,0,0,1,.87.84A1,1,0,0,1,574.1,177.93Zm-1.93,9a.51.51,0,0,1-.58-.51,4.54,4.54,0,0,1,.14-.84c.23-.93.55-2.21.72-2.88a9.21,9.21,0,0,0,.36-1.8c0-.23-.11-.34-.3-.34a3.16,3.16,0,0,0-.69.16l-.12,0-.06-.5a8.34,8.34,0,0,1,2.41-.6c.26,0,.37.09.37.3a11.07,11.07,0,0,1-.41,2l-.26,1a13.62,13.62,0,0,0-.55,2.6.38.38,0,0,0,.4.43,3.92,3.92,0,0,0,1-.25l0,.49A8.38,8.38,0,0,1,572.17,187Z" transform="translate(-14.67 -16.37)"/><path d="M581.91,186.14a3.86,3.86,0,0,1-2.76.85c-1.38,0-2.21-.23-2.21-.59a4.92,4.92,0,0,1,.2-1.06l.92-4c.3-1.29.53-2.32.85-3.77a10.13,10.13,0,0,0,.24-1.54c0-.21-.1-.33-.3-.33a3.52,3.52,0,0,0-.77.17l0-.51.21-.07a8.57,8.57,0,0,1,2.12-.5c.23,0,.37.11.37.3a12.43,12.43,0,0,1-.39,1.95l-.53,2.33c-.17.76-.23,1-.28,1.3a5.9,5.9,0,0,1,3-1c1.08,0,1.61.55,1.61,1.66A6.92,6.92,0,0,1,581.91,186.14Zm0-5.68a2.78,2.78,0,0,0-1.21.39,3.38,3.38,0,0,0-1.08.81,6.11,6.11,0,0,0-.69,2,13.25,13.25,0,0,0-.39,2c0,.34.39.53,1.1.53a2.13,2.13,0,0,0,1.81-1,7.53,7.53,0,0,0,1.23-3.77C582.67,180.83,582.41,180.46,581.9,180.46Z" transform="translate(-14.67 -16.37)"/><path d="M588,183.94h-.52a5.3,5.3,0,0,0-.07.85c0,.9.32,1.38.94,1.38a4.91,4.91,0,0,0,2.32-1l.19.6a6.2,6.2,0,0,1-3.2,1.19c-1.1,0-1.7-.66-1.7-1.84,0-2.92,2-5.45,4.27-5.45,1.11,0,1.76.51,1.76,1.4C592,182.72,590.26,183.94,588,183.94Zm1.82-3.53c-.85,0-1.75,1.17-2.19,2.88h.17c1.65,0,2.89-.87,2.89-2A.87.87,0,0,0,589.82,180.41Z" transform="translate(-14.67 -16.37)"/><path d="M599.09,182l-.59,0a3.85,3.85,0,0,0,.06-.69c0-.32-.29-.55-.73-.55a1,1,0,0,0-.76.43c-.67.76-.94,2-1.33,3.92l-.33,1.72a13.76,13.76,0,0,0-1.54.14c.17-.67.3-1.21.44-1.81l.39-1.64a11.14,11.14,0,0,0,.39-2.18c0-.44-.11-.63-.32-.63a1.55,1.55,0,0,0-.44.09l-.44.14-.06-.53a8,8,0,0,1,2.3-.64.28.28,0,0,1,.32.25,4.59,4.59,0,0,1,.11.76,3.68,3.68,0,0,1,2-1,2.12,2.12,0,0,1,1.16.48A10.38,10.38,0,0,0,599.09,182Z" transform="translate(-14.67 -16.37)"/><path d="M605.08,180.78l-1.47,0-.74,3.63a7.65,7.65,0,0,0-.21,1.34c0,.25.12.39.35.39a4.42,4.42,0,0,0,.82-.19l.17-.06.06.52a7.84,7.84,0,0,1-2.39.62c-.37,0-.6-.18-.6-.52a5.69,5.69,0,0,1,.21-1.29c.16-.62.28-1.13.42-1.82l.55-2.62-.94,0,.13-.57c1.2-.21,1.61-1.16,1.94-2.19l.85-.17-.44,2.08,1.47,0Z" transform="translate(-14.67 -16.37)"/><path d="M610.51,178.6l-.57-.46,2.16-2.44,1.59.39Zm-2,5.34H608a5.3,5.3,0,0,0-.07.85c0,.9.32,1.38.94,1.38a4.91,4.91,0,0,0,2.32-1l.19.6a6.2,6.2,0,0,1-3.2,1.19c-1.1,0-1.7-.66-1.7-1.84,0-2.92,2-5.45,4.26-5.45,1.12,0,1.77.51,1.77,1.4C612.54,182.72,610.81,183.94,608.55,183.94Zm1.82-3.53c-.85,0-1.75,1.17-2.19,2.88h.17c1.65,0,2.88-.87,2.88-2A.86.86,0,0,0,610.37,180.41Z" transform="translate(-14.67 -16.37)"/><path d="M640.9,173.79l-.57-.46,2.16-2.44,1.61.39Zm3.36,3.77h-.51c0-.19,0-.26,0-.39,0-1-.64-1.31-2.4-1.31-.59,0-1.15,0-1.74,0-.37,1.47-.62,2.75-.92,4.32h.66a12.21,12.21,0,0,0,2-.09,1.48,1.48,0,0,0,1.24-1.22h.48c-.25,1.05-.55,2.53-.67,3.43H642a2.27,2.27,0,0,0,0-.3c0-.76-.48-1-1.93-1-.87,0-1.19,0-1.51,0-.08.44,0,0-.4,2.09a11.25,11.25,0,0,0-.27,1.92c0,.62.32.78,1.51.78,2.22,0,2.91-.35,3.6-1.87l.44.17a9.46,9.46,0,0,1-1.06,2.41c-.17.19-.4.25-1.14.25s-1.26,0-1.88,0c-.81,0-1.65,0-2.46,0h-2.48l.08-.37a1.34,1.34,0,0,0,1.09-.55,4.6,4.6,0,0,0,.71-1.83c.23-1,.3-1.4.71-3.38l.28-1.4a16.1,16.1,0,0,0,.39-2.69c0-.78-.28-1.09-1-1.18l.07-.39h8C644.56,175.77,644.38,176.73,644.26,177.56Z" transform="translate(-14.67 -16.37)"/><path d="M653,180.76l-1.21,0a2,2,0,0,1,.29,1.06,3,3,0,0,1-3.13,2.89,3.33,3.33,0,0,1-1-.14c-.44.26-.58.38-.58.54s.19.29,1,.53l1.41.45c1.42.44,2.11.86,2.11,1.89,0,1.87-1.86,3.34-4.23,3.34-1.94,0-3.13-.92-3.13-2.42s.89-2,2.34-2.41c-.89-.31-1.08-.46-1.08-.76s.51-.86,1.57-1.45a1.82,1.82,0,0,1-.81-1.61,3,3,0,0,1,3.11-3,3.18,3.18,0,0,1,1.18.19h2.34Zm-3.38-.39a2,2,0,0,0-1.74,2.21,1.24,1.24,0,0,0,1.17,1.4,2,2,0,0,0,1.7-2.18C650.75,180.92,650.31,180.37,649.62,180.37Zm.26,7.17c-.6-.23-1.32-.48-2.07-.7a2.49,2.49,0,0,0-2.07,2.23c0,1,.82,1.6,2.09,1.6,1.54,0,2.95-1,2.95-2.18C650.78,188.07,650.52,187.78,649.88,187.54Z" transform="translate(-14.67 -16.37)"/><path d="M659.64,187c-.32,0-.42-.2-.58-1.06a6.53,6.53,0,0,1-3.2,1.07c-1.07,0-1.68-.54-1.68-1.52a7,7,0,0,1,1.16-3.36,4.51,4.51,0,0,1,3.95-2.42,8.8,8.8,0,0,1,2.28.34l-.09.28a24.09,24.09,0,0,0-1.1,5c0,.48.11.74.32.74a4.21,4.21,0,0,0,1-.26l.05.54A9.41,9.41,0,0,1,659.64,187Zm-.81-6.55a2.6,2.6,0,0,0-2,1.52,7.53,7.53,0,0,0-1.15,3.45c0,.55.27.85.71.85a4.23,4.23,0,0,0,2.24-1,2.73,2.73,0,0,0,.57-1.28,27.06,27.06,0,0,0,.71-3.25A2.63,2.63,0,0,0,658.83,180.44Z" transform="translate(-14.67 -16.37)"/><path d="M667.48,176.59c-.59,2.35-1.17,5-1.74,7.46a10.32,10.32,0,0,0-.26,1.61c0,.27.12.39.39.39a4.33,4.33,0,0,0,1-.21l0,.49a9,9,0,0,1-2.47.66.48.48,0,0,1-.53-.53,7.93,7.93,0,0,1,.32-1.68c.54-2.34,1.14-4.83,1.62-7.06.21-1,.32-1.54.32-1.7a.28.28,0,0,0-.3-.32,2.51,2.51,0,0,0-.78.18l0-.53a9.1,9.1,0,0,1,2.38-.57c.25,0,.38.11.38.3A8.36,8.36,0,0,1,667.48,176.59Z" transform="translate(-14.67 -16.37)"/><path d="M671.86,177.93a.82.82,0,0,1-.9-.85,1,1,0,0,1,1.09-1.08.8.8,0,0,1,.87.84A1,1,0,0,1,671.86,177.93Zm-1.93,9a.51.51,0,0,1-.58-.51,4.54,4.54,0,0,1,.14-.84c.23-.93.55-2.21.73-2.88a9.72,9.72,0,0,0,.35-1.8c0-.23-.11-.34-.3-.34a3.16,3.16,0,0,0-.69.16l-.13,0-.05-.5a8.34,8.34,0,0,1,2.41-.6c.26,0,.37.09.37.3a11.07,11.07,0,0,1-.41,2l-.26,1a13.62,13.62,0,0,0-.55,2.6.38.38,0,0,0,.4.43,3.92,3.92,0,0,0,1-.25l0,.49A8.46,8.46,0,0,1,669.93,187Z" transform="translate(-14.67 -16.37)"/><path d="M678.82,180.78l-1.46,0-.75,3.63a7.65,7.65,0,0,0-.21,1.34c0,.25.12.39.35.39a4.42,4.42,0,0,0,.82-.19l.18-.06,0,.52a7.84,7.84,0,0,1-2.39.62c-.37,0-.6-.18-.6-.52a5.69,5.69,0,0,1,.21-1.29c.16-.62.28-1.13.43-1.82l.54-2.62-.93,0,.12-.57c1.2-.21,1.61-1.16,2-2.19l.84-.17-.44,2.08,1.47,0Z" transform="translate(-14.67 -16.37)"/><path d="M684.25,178.6l-.57-.46,2.16-2.44,1.59.39Zm-2,5.34h-.51a4.35,4.35,0,0,0-.07.85c0,.9.31,1.38.93,1.38a4.87,4.87,0,0,0,2.32-1l.19.6A6.14,6.14,0,0,1,682,187c-1.09,0-1.69-.66-1.69-1.84,0-2.92,2-5.45,4.26-5.45,1.11,0,1.77.51,1.77,1.4C686.29,182.72,684.55,183.94,682.29,183.94Zm1.82-3.53c-.85,0-1.75,1.17-2.19,2.88h.17c1.65,0,2.89-.87,2.89-2A.87.87,0,0,0,684.11,180.41Z" transform="translate(-14.67 -16.37)"/><path d="M717.76,177.54h-.51a3.94,3.94,0,0,0,0-.4,1.15,1.15,0,0,0-.33-.85c-.34-.32-1-.45-2.3-.45-.37,0-.87,0-1.31,0-.32,1.45-.6,2.85-.92,4.35l1,0c2,0,2.35-.18,2.72-1.33h.48a29.18,29.18,0,0,0-.67,3.45h-.5a2.27,2.27,0,0,0,0-.3.93.93,0,0,0-.34-.74c-.3-.23-.65-.29-1.72-.29-.56,0-.72,0-1.18,0l-.23,1.18a18.18,18.18,0,0,0-.46,3,1,1,0,0,0,1,1.15l-.07.37h-.28l-1.59,0c-.71,0-2,0-2.25,0h-.3l.07-.37a1.38,1.38,0,0,0,1.1-.55A4.6,4.6,0,0,0,710,184c.24-1,.33-1.54.7-3.38l.28-1.4a15.69,15.69,0,0,0,.4-2.69c0-.78-.29-1.09-1-1.18l.07-.39h7.86C718.08,175.77,717.9,176.69,717.76,177.54Z" transform="translate(-14.67 -16.37)"/><path d="M723.79,182l-.59,0a3.87,3.87,0,0,0,0-.69c0-.32-.28-.55-.72-.55a1,1,0,0,0-.76.43c-.67.76-.94,2-1.33,3.92l-.33,1.72a13.76,13.76,0,0,0-1.54.14c.17-.67.3-1.21.44-1.81l.39-1.64a11.14,11.14,0,0,0,.39-2.18c0-.44-.11-.63-.32-.63a1.43,1.43,0,0,0-.44.09l-.44.14-.06-.53a8,8,0,0,1,2.3-.64.28.28,0,0,1,.32.25,4.59,4.59,0,0,1,.11.76,3.69,3.69,0,0,1,2-1,2.15,2.15,0,0,1,1.17.48A10.38,10.38,0,0,0,723.79,182Z" transform="translate(-14.67 -16.37)"/><path d="M730.76,187c-.31,0-.42-.2-.58-1.06A6.53,6.53,0,0,1,727,187c-1.06,0-1.68-.54-1.68-1.52a7,7,0,0,1,1.16-3.36,4.52,4.52,0,0,1,3.95-2.42,8.73,8.73,0,0,1,2.28.34l-.09.28a23.9,23.9,0,0,0-1.09,5c0,.48.1.74.31.74a4.08,4.08,0,0,0,1-.26l.05.54A9.41,9.41,0,0,1,730.76,187Zm-.81-6.55a2.6,2.6,0,0,0-2,1.52,7.53,7.53,0,0,0-1.15,3.45c0,.55.27.85.71.85a4.26,4.26,0,0,0,2.25-1,2.74,2.74,0,0,0,.56-1.28,25.25,25.25,0,0,0,.71-3.25A2.63,2.63,0,0,0,730,180.44Z" transform="translate(-14.67 -16.37)"/><path d="M739.2,180.78l-1.47,0-.74,3.63a6.62,6.62,0,0,0-.21,1.34c0,.25.12.39.35.39a4.39,4.39,0,0,0,.81-.19l.18-.06,0,.52a7.77,7.77,0,0,1-2.39.62c-.37,0-.6-.18-.6-.52a5.28,5.28,0,0,1,.22-1.29c.16-.62.28-1.13.42-1.82l.55-2.62-.94,0,.13-.57c1.2-.21,1.6-1.16,1.94-2.19l.85-.17-.44,2.08,1.47,0Z" transform="translate(-14.67 -16.37)"/><path d="M742.66,183.94h-.51a5.3,5.3,0,0,0-.07.85c0,.9.32,1.38.94,1.38a5,5,0,0,0,2.32-1l.19.6a6.2,6.2,0,0,1-3.2,1.19c-1.1,0-1.7-.66-1.7-1.84,0-2.92,2-5.45,4.26-5.45,1.12,0,1.77.51,1.77,1.4C746.66,182.72,744.93,183.94,742.66,183.94Zm1.83-3.53c-.85,0-1.75,1.17-2.2,2.88h.18c1.64,0,2.88-.87,2.88-2A.86.86,0,0,0,744.49,180.41Z" transform="translate(-14.67 -16.37)"/><path d="M753.75,182l-.58,0a3.87,3.87,0,0,0,.05-.69c0-.32-.28-.55-.72-.55a1,1,0,0,0-.76.43c-.67.76-.94,2-1.33,3.92l-.33,1.72a13.55,13.55,0,0,0-1.54.14c.17-.67.3-1.21.44-1.81l.39-1.64a12,12,0,0,0,.39-2.18c0-.44-.11-.63-.32-.63a1.43,1.43,0,0,0-.44.09l-.45.14,0-.53a8,8,0,0,1,2.3-.64.28.28,0,0,1,.32.25,3.79,3.79,0,0,1,.1.76,3.74,3.74,0,0,1,2-1,2.15,2.15,0,0,1,1.17.48A10.45,10.45,0,0,0,753.75,182Z" transform="translate(-14.67 -16.37)"/><path d="M760.81,187a.52.52,0,0,1-.57-.53,8,8,0,0,1,.28-1.49l.18-.74a20.21,20.21,0,0,0,.65-3.26c0-.26-.12-.4-.37-.4a3,3,0,0,0-1.32.49,3.68,3.68,0,0,0-1.21,1,6.65,6.65,0,0,0-.49,1.66c-.28,1.29-.46,2.18-.6,3-.69,0-.87.07-1.56.16.36-1.33.62-2.43.88-3.65a12.44,12.44,0,0,0,.38-2.08c0-.41-.13-.6-.39-.6a3.67,3.67,0,0,0-.87.21l0-.5a8,8,0,0,1,2.19-.58c.39,0,.51.23.51,1.06v.14a8.26,8.26,0,0,1,3.68-1.2c.58,0,.81.14.81.49a11,11,0,0,1-.47,2.39c-.22.82-.41,1.68-.48,2.07a5.74,5.74,0,0,0-.16,1,.36.36,0,0,0,.39.41,3.3,3.3,0,0,0,.92-.24l.05.52A10.77,10.77,0,0,1,760.81,187Z" transform="translate(-14.67 -16.37)"/><path d="M768.25,177.93a.82.82,0,0,1-.9-.85,1.05,1.05,0,0,1,1.1-1.08.79.79,0,0,1,.86.84A1,1,0,0,1,768.25,177.93Zm-1.93,9a.51.51,0,0,1-.58-.51,4.54,4.54,0,0,1,.14-.84c.23-.93.55-2.21.73-2.88a9.72,9.72,0,0,0,.35-1.8c0-.23-.11-.34-.3-.34a3.16,3.16,0,0,0-.69.16l-.13,0-.05-.5a8.42,8.42,0,0,1,2.41-.6c.26,0,.37.09.37.3a11.07,11.07,0,0,1-.41,2l-.26,1a13.62,13.62,0,0,0-.55,2.6.38.38,0,0,0,.41.43,4,4,0,0,0,1-.25l0,.49A8.38,8.38,0,0,1,766.32,187Z" transform="translate(-14.67 -16.37)"/><path d="M775.22,180.78l-1.47,0-.75,3.63a7.65,7.65,0,0,0-.21,1.34c0,.25.12.39.35.39a4.42,4.42,0,0,0,.82-.19l.17-.06.06.52a7.84,7.84,0,0,1-2.39.62c-.37,0-.6-.18-.6-.52a5.69,5.69,0,0,1,.21-1.29c.16-.62.28-1.13.43-1.82l.54-2.62-.93,0,.12-.57c1.2-.21,1.61-1.16,1.95-2.19l.84-.17-.44,2.08,1.47,0Z" transform="translate(-14.67 -16.37)"/><path d="M780.64,178.6l-.56-.46,2.16-2.44,1.59.39Zm-2,5.34h-.51a4.35,4.35,0,0,0-.07.85c0,.9.31,1.38.94,1.38a4.88,4.88,0,0,0,2.31-1l.2.6a6.2,6.2,0,0,1-3.21,1.19c-1.09,0-1.69-.66-1.69-1.84,0-2.92,2-5.45,4.26-5.45,1.11,0,1.77.51,1.77,1.4C782.68,182.72,780.94,183.94,778.68,183.94Zm1.82-3.53c-.85,0-1.75,1.17-2.19,2.88h.18c1.64,0,2.88-.87,2.88-2A.87.87,0,0,0,780.5,180.41Z" transform="translate(-14.67 -16.37)"/><path d="M697.72,183.69a2.15,2.15,0,1,0-2.15-2.14A2.15,2.15,0,0,0,697.72,183.69Z" transform="translate(-14.67 -16.37)"/><path d="M624,183.69a2.15,2.15,0,1,0-2.14-2.14A2.14,2.14,0,0,0,624,183.69Z" transform="translate(-14.67 -16.37)"/><line class="cls-2" x1="547.54" y1="178.41" x2="768.13" y2="178.41"/><g class="cls-3"><rect class="cls-4" x="545.56" y="70.91" width="225.39" height="79.43"/><path class="cls-5" d="M628.2,136.69c-2,.59-4.05.67-5.91,1.68a38.08,38.08,0,0,1,13,1.86,19.43,19.43,0,0,1,4.21,2,11.61,11.61,0,0,0,1.69,1.35,3.4,3.4,0,0,0,2.87.17h.84c2.53-.67,5.23-1.35,6.92-3.2,0,.17.16.17.33.17-.5,1.35-.5,2.86-1.51,4,0,.17-.17.51.16.68h.34c-.17,0-.34,0-.34.17,0,.33.51,0,.68.33a3.32,3.32,0,0,0-2.19,1c0,.16.33.16.5.16-.33.34-.84.17-1,.51a.59.59,0,0,0,.34.17c-.17,0-.34,0-.34.17v.5c-.5,0-.67.34-1,.51.67.5,1.18,0,1.85,0-1.85.67-3.37,1.69-5.22,2.19-.34,0,0,.51-.34.51.5.33.84-.17,1.35-.17-2.36,1.35-4.72,2.53-7.25,4.05a1.15,1.15,0,0,0-.34.67h-.68c-.33.17-.16.68-.5,1,.84.51,1.85-.67,2.36,0,.17,0-.34.17-.68.17-.16,0-.16.34-.33.34h-.51c-.34.34-.67.5-.67,1-.34,0-.68,0-.85.34,3.71-.51,7.59-.17,11.13-2a25.92,25.92,0,0,0,7.42-5.56.59.59,0,0,1,.17.34,7.39,7.39,0,0,1-2.86,3.87c-1,.51-1.69,1.35-2.53,1.69l-1.52,1c-6.24,2.2-13.66,1.18-19.06,5.4,0-.17-.17-.17-.34-.17-.33.34-.84.51-1,.84,0,.34.51.17.68.17a11.35,11.35,0,0,1,3.2-1.52,22.55,22.55,0,0,1-4.05,2,28.36,28.36,0,0,1-8.43,0c1.69-1,3.38-2.19,5.23-3.21a2.56,2.56,0,0,0-1.52-.33c-.84.17-1.85-.34-2.7,0-2.52,1.18-5.9.84-7.25,3.54H560.22V90.32c7.5,0,73.71-.18,102.89,0-2,1-4.39,1.86-5.91,3.71a14.77,14.77,0,0,0-3.2,5.4,14.42,14.42,0,0,0-4.72,5.4c-1.52,2.86-3.71,5.39-3.38,8.6.34,2.69,1,5.22,1.52,8.09a17.56,17.56,0,0,0,.68,2.87c.33,1,0,2.19.5,3,.34.51.17,1.18.85,1.52v.68c.16.16.16.33.5.33v.68c1.35,1.68,3,3.2,3.88,5.06.34,1-1.69.5-2.53.17-1.69-.85-2.7-2.2-4-3.38a.59.59,0,0,0-.17.34c.68,1.18,3.21,2.7,1.86,3.54-.67.34-1.52-.5-2.19.17-.17.34,0,.68,0,1-1-.67-2-.33-3-.67-.67-.17-.84-1.52-1.69-1.52a42.28,42.28,0,0,0-6.4-1.18c-3-.34-5.91-.84-8.94-.34C624,134,622,136,620.27,138v.5c1.18.17,1.69-.84,2.7-1.18,1.68-.33,3.2-1,4.89-1.35,2.53-.5,4.89-1.18,7.25-1a5.63,5.63,0,0,1,1.69,0C633.76,134.83,631.06,135.85,628.2,136.69Z" transform="translate(-14.67 -16.37)"/><path class="cls-4" d="M618.75,144.78c-.52.13-1,.51-.84.85.51.67,1.52-.17,2.36-.17-1,.34-2.19.17-3,1,.67.51,1.34.17,2,.17,0,.34.34.34.5.5a3.07,3.07,0,0,0-1.68,1.52c-.34.84-1.18,1.18-1.69,1.86v.5c-1.68,1.52-3.54,2.53-4.89,4.39.17,0,.17.17.17.33-.34.51-1,.68-1.18,1.19,0,.16,0,.33.17.33,2-.67,3.54-2.19,5.39-2.86,1.35-.34,2.37-1.19,3.55-1.52.84-.17,1.85-.51,2.69-.68,0,.17,0,.34.17.34h1.35c-.17.34-.84.17-.67.34.5.5,1.51.33,2.19,0a2.76,2.76,0,0,1,1.69-.34c.16,0,.16-.34.16-.51a3.72,3.72,0,0,0,1.35.17,46.11,46.11,0,0,0,11.64-3.54c-4.38-3.37-9.95-4.55-15.18-6.07.51,0,1,.51,1.52,0-.84-.67-1.86-.34-2.7-.84.17,0,.51.17.68-.17a17.16,17.16,0,0,0-4-1,1.65,1.65,0,0,0,1.35-1.69c0-.17-.34-.17-.51-.17a9,9,0,0,0-4.21,5.06c1.18.68,2.53.17,3.71.34C620.27,144.61,619.43,144.61,618.75,144.78Z" transform="translate(-14.67 -16.37)"/><path class="cls-4" d="M611.84,138.21a23.18,23.18,0,0,1-5.74,4.72,52,52,0,0,1-5.39,8.6.59.59,0,0,0,.17.34c4-4.56,7.75-8.44,13-11.64.34-.17-.5.51.17.34,2.19-.51,2.87-2.7,3.88-4.39,1.35-2.19,3.71-3,5.4-4.89a.62.62,0,0,1-.17.51.6.6,0,0,0,.5.17c.68-.51,1.52-.34,2-1a6.56,6.56,0,0,0-4.39-.16A32.66,32.66,0,0,0,611.84,138.21Z" transform="translate(-14.67 -16.37)"/><path class="cls-4" d="M614.37,141.41c.15-.3.34-.34.5-.67,0-.17,0-.34-.16-.34a2,2,0,0,0-1.35,1.52c0,.17.17.17.33.17A1.33,1.33,0,0,0,614.37,141.41Z" transform="translate(-14.67 -16.37)"/><path class="cls-4" d="M627.86,154.23c-.68.34-1.86.34-2,1.18-.17.33.5.17.84.17,1.18-.51,2.53,0,3.54-1-.34-.34-.84-.17-1.18-.68C628.7,153.72,628.2,154.06,627.86,154.23Z" transform="translate(-14.67 -16.37)"/><path class="cls-5" d="M646.24,163.33a31.28,31.28,0,0,0,3-1.18v.34c2.53-1,4.38-3.2,6.91-4.05.17,0,.51.34.84.17,1.52-1.35,3.21-2.87,5.4-2.53,0,.17,0,.34.17.34s.34,0,.34-.17l-2,1.52c-.17.17,0,.34.17.34.84-.34,1.35-1,2.19-1.35-.16.17-.16.5-.33.67a51.14,51.14,0,0,0-8.1,7.93h-5.23c0-.17,0-.34-.16-.34-5.91.51-11.64.34-17.54.34,3.37-.51,6.74-1.52,10.11-1.86A17.91,17.91,0,0,0,646.24,163.33Z" transform="translate(-14.67 -16.37)"/><path class="cls-6" d="M712.68,154.73c.41-1.22.85-2.53.17-3.71-1-1.52,1-2,1.69-3,.51-.85-.34-1.35-.51-2.19-.17-.34-.84-.17-1.18-.68,1.18-.51,3-1.52,2.2-3-.51-.85-1.35-2.2-.34-3,1.18-.68,3-.51,3.54-1.69.84-2-1-3.71-2-5.39a23.18,23.18,0,0,0-1.85-2.7,14.06,14.06,0,0,1-1.85-3.54c-.51-1.35.16-2.53.16-3.88a23.83,23.83,0,0,0-1.17-7.59c-.51-1.18-.68-2.53-1.19-3.71a4.93,4.93,0,0,0-.84-2,1.43,1.43,0,0,1,0-1.18,18.92,18.92,0,0,0,2-1.69,1.92,1.92,0,0,0-.68-2.53c-1.18-.51-1,1.18-1.86,1.52h-.5c-.17-.51.17-.68.5-1,0-.17,0-.51-.16-.51-.68,0-1.35-.17-1.52-.51-1.69-2.36-4-3.54-6.58-4.55a8.45,8.45,0,0,0,2,.34,6.22,6.22,0,0,0,3.54-.34c.84-.34,1-1.69,1.35-2.53.33-.67-.17-1.69-.51-2.19a12.51,12.51,0,0,0-4.23-3.64h81.94v75.64H688.57a16.35,16.35,0,0,1,5.9-8.77,9.58,9.58,0,0,1,2.36-.68c2.87,0,5.74.85,8.6,1.18a2.42,2.42,0,0,1,1,.34,6.82,6.82,0,0,0,3.2-.17A4.1,4.1,0,0,0,712.68,154.73Z" transform="translate(-14.67 -16.37)"/><path class="cls-7" d="M706.28,121.51a11,11,0,0,0-2.87,0,24.78,24.78,0,0,0-3.71,1,11.53,11.53,0,0,1,3.2-1.68,14.19,14.19,0,0,1,2.53-.68,5.72,5.72,0,0,1,2.87-.17c.84.34,2.19.34,2.36.85.34,1-.5,2-1.52,2.69-.17.34.51.51.51.85a1.2,1.2,0,0,1-1,.5c-.34.17-.68.68-1,1,.33,0,0,.5.33.5-.67.84.34,2.53-.67,2.87a7.5,7.5,0,0,1-3.88,0c.67-.17,1.52.17,2-.51v-.67c0-.17-.17-.17-.33-.17a.53.53,0,0,1-.34.17.76.76,0,0,0-.51-.68,2.88,2.88,0,0,1-2.53-1,2.38,2.38,0,0,1,1.52-.17c.51,0,.34-.84.84-1.18h.51c1-1.35,3-1.68,3.37-3C708,121.68,707,121.68,706.28,121.51Z" transform="translate(-14.67 -16.37)"/></g><path class="cls-8" d="M38.86,114.29l1.56-4H37.65L29.46,131c-4.74,11.73-7.8,17.71-12.59,20.87H31.56c-2.75-1.58-3.22-4.09-3.22-8.12,0-4.24,2.79-9.92,5-15.5.43-1.08.85-2.13,1.23-3.1l2.2-5.29H64.26L66,117.4H41.27S37.94,117.63,38.86,114.29Z" transform="translate(-14.67 -16.37)"/><path class="cls-8" d="M68.09,35.72h.08L107,126.93c5.83,13.84,9.55,21.31,14,24.93H88.9c2-1.37,4.07-3.75,2.86-7.22L58.55,65.76,40.42,110.31H37.65Z" transform="translate(-14.67 -16.37)"/><path class="cls-8" d="M71.65,171H85.41c4.71,0,6.68.38,8.4,1,4.58,1.71,7.57,6.24,7.57,12.15,0,5.73-3.18,10.57-8.08,12.16v.13a12.87,12.87,0,0,1,1.34,2l9.54,17.44H97.06L87.57,198H78v17.89H71.65ZM87,192.57c4.9,0,8-3.12,8-8.15,0-3.31-1.27-5.67-3.56-6.94-1.21-.64-2.67-1-6.18-1H78v16.11Z" transform="translate(-14.67 -16.37)"/><path class="cls-8" d="M112.46,171h26.1v5.47h-19.8v14.07h16.11V196H118.76v14.45h20.88v5.47H112.46Zm15.66-11.21h6.62l-6.11,8.09h-5.16Z" transform="translate(-14.67 -16.37)"/><path class="cls-8" d="M168.54,170.22c10.76,0,16.36,5.41,16.36,5.41l-3.18,4.72a20.68,20.68,0,0,0-12.67-4.4c-10.57,0-16.93,7.71-16.93,17.32,0,10.44,7.13,17.63,16.55,17.63a18.36,18.36,0,0,0,12.73-5.6v-6.49h-7.32v-5.48h13v22.6h-5.54v-2.8c0-.95.07-1.91.07-1.91h-.13a19.35,19.35,0,0,1-13.82,5.48c-12.09,0-22.09-9.55-22.09-23.3C145.62,180.41,155.43,170.22,168.54,170.22Z" transform="translate(-14.67 -16.37)"/><path class="cls-8" d="M196.36,171h6.3v29c0,6.87,4.46,10.88,11.33,10.88s11.46-4,11.46-11V171h6.3v29c0,10-7.19,16.68-17.69,16.68S196.36,210,196.36,200Z" transform="translate(-14.67 -16.37)"/><path class="cls-8" d="M243.34,171h6.3v39.47h20.12v5.47H243.34Z" transform="translate(-14.67 -16.37)"/><path class="cls-8" d="M299.93,203H283l-4.46,12.92h-6.49L288.22,171h6.62L311,215.93h-6.56Zm-8.47-25.85s-1,4.08-1.78,6.37l-5,14.26h13.62l-5-14.26c-.77-2.29-1.72-6.37-1.72-6.37Z" transform="translate(-14.67 -16.37)"/><path class="cls-8" d="M324.5,176.46H309.09V171h37.12v5.47H330.8v39.47h-6.3Z" transform="translate(-14.67 -16.37)"/><path class="cls-8" d="M352.64,171h6.3v44.94h-6.3Z" transform="translate(-14.67 -16.37)"/><path class="cls-8" d="M391.21,170.22a22.66,22.66,0,0,1,23.05,22.92c0,13.24-10.06,23.56-23.05,23.56s-23.11-10.32-23.11-23.56A22.72,22.72,0,0,1,391.21,170.22Zm0,40.68c9.17,0,16.55-7.64,16.55-17.76,0-9.8-7.38-17.19-16.55-17.19s-16.61,7.39-16.61,17.19C374.6,203.26,382,210.9,391.21,210.9Z" transform="translate(-14.67 -16.37)"/><path class="cls-8" d="M423.42,171h6.24l20,29.22c1.65,2.42,3.76,6.49,3.76,6.49h.12s-.44-4-.44-6.49V171h6.3v44.94h-6.18l-20-29.15c-1.65-2.49-3.75-6.56-3.75-6.56h-.13s.44,4,.44,6.56v29.15h-6.3Z" transform="translate(-14.67 -16.37)"/><path class="cls-8" d="M121.44,99.57h17.62v30.76c0,4.88,1.94,6.92,5.61,6.92,7.53,0,11.1-6.62,11.1-14.46V99.57h17.62V152H156.48v-4.58a28.32,28.32,0,0,1,.2-3.26h-.2c-2.85,5.6-9.37,9.06-16.4,9.06-10.39,0-18.64-4.89-18.64-19.65Z" transform="translate(-14.67 -16.37)"/><path class="cls-8" d="M189.07,114.23h-6.72V100.48h7.23V85.41h17.11v15.07h11v13.75h-11v16.1c0,5.9,6,6.72,9.37,6.72,1.43,0,2.35-.1,2.35-.1v15.27a33.54,33.54,0,0,1-4.79.31c-8.35,0-24.55-2.24-24.55-19.86Z" transform="translate(-14.67 -16.37)"/><path class="cls-8" d="M254.46,98.34c16.6,0,29.84,11.11,29.84,27.61s-13.24,27.29-29.74,27.29-29.74-10.9-29.74-27.29S238.06,98.34,254.46,98.34Zm.1,40.24c6.42,0,11.92-4.79,11.92-12.63S261,113,254.56,113s-11.91,5-11.91,12.94S248.15,138.58,254.56,138.58Z" transform="translate(-14.67 -16.37)"/><path class="cls-8" d="M293.47,99.57h16.91v8.86a27,27,0,0,1-.21,3.26h.21c2.24-7.13,8.86-13,16.7-13a12.16,12.16,0,0,1,2,.2v17.32a18.57,18.57,0,0,0-3.57-.31c-4.17,0-11,1.33-13.54,9.17a23.48,23.48,0,0,0-.92,7.13V152H293.47Z" transform="translate(-14.67 -16.37)"/><path class="cls-8" d="M337.26,99.57h17.62V152H337.26Zm.21-20.37h17.21V93H337.47Z" transform="translate(-14.67 -16.37)"/><path class="cls-8" d="M370.57,114.23h-6.72V100.48h7.23V85.41h17.11v15.07h11v13.75h-11v16.1c0,5.9,6,6.72,9.37,6.72,1.43,0,2.34-.1,2.34-.1v15.27a33.3,33.3,0,0,1-4.78.31c-8.36,0-24.55-2.24-24.55-19.86Z" transform="translate(-14.67 -16.37)"/><path class="cls-8" d="M433.72,98.34c15.48,0,24.24,10.8,24.24,25.37,0,1.73-.41,5.5-.41,5.5h-33.1c1.32,6.41,6.62,9.37,12.22,9.37,7.54,0,14.46-5.3,14.46-5.3l6.52,12.32a35.4,35.4,0,0,1-22.4,7.64c-18.75,0-28.83-13.54-28.83-27.5C406.42,110.36,416.81,98.34,433.72,98.34Zm6.52,20.78c0-4-2.75-7.54-6.93-7.54-5.09,0-7.54,3.67-8.45,7.54Zm-6-39.92h17.41l-12,15.27H426Z" transform="translate(-14.67 -16.37)"/><path class="cls-8" d="M152.3,241.05H141.8v-7.26h29.47v7.26h-10.5v27.34H152.3Z" transform="translate(-14.67 -16.37)"/><path class="cls-8" d="M175.52,233.79h12c3.53,0,5.23.25,6.73.83,3.92,1.5,6.38,5,6.38,10.06,0,3.68-1.74,7.69-5.17,9.44v.09a20.34,20.34,0,0,1,1.3,2.08l6.73,12.1H194.1L188,256.73h-4v11.66h-8.47Zm12.15,15.68c2.71,0,4.4-1.5,4.4-4.26s-1-4.16-5.22-4.16H184v8.42Z" transform="translate(-14.67 -16.37)"/><path class="cls-8" d="M226,261.13H215.2l-2.08,7.26h-8.71l11.75-34.6h8.91l11.75,34.6h-8.7Zm-5.42-19.45s-.78,3.77-1.41,5.95l-2,6.73H224l-1.93-6.73c-.63-2.18-1.41-5.95-1.41-5.95Z" transform="translate(-14.67 -16.37)"/><path class="cls-8" d="M240.69,233.79h8.56L258.84,250a63.34,63.34,0,0,1,2.9,5.91h.1s-.39-3.73-.39-5.91V233.79h8.47v34.6H261.4l-9.63-16.11a63.34,63.34,0,0,1-2.9-5.91h-.1s.39,3.73.39,5.91v16.11h-8.47Z" transform="translate(-14.67 -16.37)"/><path class="cls-8" d="M279.93,257.6s3.92,3.58,8.27,3.58c1.74,0,3.63-.68,3.63-2.76,0-4.11-15.58-4-15.58-14.61,0-6.39,5.37-10.6,12.24-10.6,7.45,0,11.13,3.92,11.13,3.92L296,244.05s-3.48-3.05-7.65-3.05c-1.74,0-3.67.78-3.67,2.71,0,4.36,15.58,3.58,15.58,14.52,0,5.76-4.41,10.74-12.2,10.74A17.84,17.84,0,0,1,275.48,264Z" transform="translate(-14.67 -16.37)"/><path class="cls-8" d="M306.1,233.79h14.37c6.73,0,11.27,4.94,11.27,11.91s-4.54,12-11.27,12h-5.9v10.69H306.1Zm12.63,16.65c2.95,0,4.4-2,4.4-4.74s-1.45-4.65-4.26-4.65h-4.3v9.39Z" transform="translate(-14.67 -16.37)"/><path class="cls-8" d="M352.5,233.21c10.45,0,18.09,7.74,18.09,17.66a18.1,18.1,0,1,1-36.19,0C334.4,241,342,233.21,352.5,233.21Zm0,28c5.17,0,9.33-4.45,9.33-10.36,0-5.66-4.16-9.92-9.33-9.92s-9.34,4.26-9.34,9.92C343.16,256.78,347.32,261.23,352.5,261.23Z" transform="translate(-14.67 -16.37)"/><path class="cls-8" d="M376.35,233.79h12c3.54,0,5.23.25,6.73.83,3.92,1.5,6.39,5,6.39,10.06,0,3.68-1.75,7.69-5.18,9.44v.09a21.21,21.21,0,0,1,1.31,2.08l6.72,12.1h-9.43l-6.15-11.66h-4v11.66h-8.46Zm12.14,15.68c2.71,0,4.4-1.5,4.4-4.26s-1-4.16-5.22-4.16h-2.86v8.42Z" transform="translate(-14.67 -16.37)"/><path class="cls-8" d="M416.11,241.05h-10.5v-7.26h29.47v7.26h-10.5v27.34h-8.47Z" transform="translate(-14.67 -16.37)"/><path class="cls-8" d="M441.22,257.6s3.92,3.58,8.28,3.58c1.74,0,3.62-.68,3.62-2.76,0-4.11-15.58-4-15.58-14.61,0-6.39,5.37-10.6,12.25-10.6,7.45,0,11.12,3.92,11.12,3.92l-3.58,6.92s-3.48-3.05-7.64-3.05c-1.74,0-3.68.78-3.68,2.71,0,4.36,15.58,3.58,15.58,14.52,0,5.76-4.4,10.74-12.19,10.74A17.85,17.85,0,0,1,436.77,264Z" transform="translate(-14.67 -16.37)"/><path class="cls-8" d="M14.67,171H23c7.69,0,12.76,4.6,12.76,12.55S30.71,196.15,23,196.15H14.67Zm8.1,22.1c5.66,0,9.37-3.35,9.37-9.55s-3.74-9.48-9.37-9.48H18.2v19Z" transform="translate(-14.67 -16.37)"/><path class="cls-8" d="M41.05,171H55.67v3.07H44.58v7.88h9V185h-9v8.09H56.27v3.07H41.05Z" transform="translate(-14.67 -16.37)"/><path class="cls-8" d="M66.13,234.9h8.34c7.7,0,12.76,4.6,12.76,12.54s-5.06,12.62-12.76,12.62H66.13ZM74.22,257c5.67,0,9.38-3.35,9.38-9.56S79.85,238,74.22,238H69.66v19Z" transform="translate(-14.67 -16.37)"/><path class="cls-8" d="M92.51,234.9h14.61V238H96v7.88h9v3.07H96V257h11.69v3.06H92.51Z" transform="translate(-14.67 -16.37)"/><path class="cls-8" d="M113,254.5a9.91,9.91,0,0,0,6.41,2.71c2.36,0,4.35-1.32,4.35-3.71,0-5.45-12.19-4.27-12.19-12,0-3.92,3.39-7,8.13-7a10.32,10.32,0,0,1,7.13,2.53l-1.61,2.92a8.85,8.85,0,0,0-5.52-2.17c-2.67,0-4.56,1.67-4.56,3.67,0,5.2,12.19,3.81,12.19,12,0,3.88-3,7.09-8,7.09a11.8,11.8,0,0,1-8.34-3.31Z" transform="translate(-14.67 -16.37)"/><line class="cls-9" x1="493.34" y1="1.27" x2="493.34" y2="277.98"/></svg>