<?xml version="1.0" encoding="utf-8"?>
<!-- Generator: Adobe Illustrator 22.1.0, SVG Export Plug-In . SVG Version: 6.00 Build 0)  -->
<svg version="1.1" id="Calque_1" xmlns="http://www.w3.org/2000/svg" xmlns:xlink="http://www.w3.org/1999/xlink" x="0px" y="0px"
	 viewBox="0 0 116.9 100" style="enable-background:new 0 0 116.9 100;" xml:space="preserve">
<style type="text/css">
	.st0{fill:#FFFFFF;}
	.st1{fill:#000091;}
	.st2{fill:#E1000F;}
	.st3{fill:#9C9B9B;}
</style>
<path id="Devise_Républicaine_3_" d="M36.1,87.5c0.2,0,0.4,0.2,0.3,0.6l-1,0.2C35.6,87.8,35.8,87.5,36.1,87.5 M36.6,89h-0.2
	c-0.2,0.3-0.5,0.5-0.8,0.5c-0.3,0-0.4-0.2-0.4-0.5c0-0.1,0-0.3,0-0.4l1.5-0.5c0.3-0.7-0.1-1-0.5-1c-0.7,0-1.6,1.2-1.6,2.3
	c0,0.5,0.2,0.7,0.6,0.7C35.8,90.1,36.2,89.7,36.6,89 M36.3,86.8l1.1-1v-0.1h-0.6l-0.7,1.1H36.3z M33,87.5h0.5l-0.8,2.2
	c-0.1,0.2,0,0.4,0.2,0.4c0.5,0,1.2-0.5,1.5-1.1h-0.1c-0.2,0.2-0.6,0.5-0.9,0.6l0.7-2.1h0.8l0.1-0.3h-0.7l0.3-0.8h-0.3l-0.5,0.8
	L33,87.3V87.5z M32.3,87.4c0.1-0.2-0.1-0.3-0.2-0.3c-0.4,0-1,0.4-1.2,1H31c0.1-0.2,0.4-0.4,0.6-0.5l-0.9,2.2
	c-0.1,0.2,0.1,0.3,0.2,0.3c0.4,0,0.9-0.4,1.1-1H32c-0.1,0.2-0.4,0.4-0.6,0.5L32.3,87.4z M32.4,86.3c0.2,0,0.4-0.2,0.4-0.4
	c0-0.2-0.2-0.4-0.4-0.4c-0.2,0-0.4,0.2-0.4,0.4C32,86.1,32.2,86.3,32.4,86.3 M27.5,89.7c-0.1,0.3,0,0.4,0.3,0.4c0.2,0,0.2,0,0.3-0.2
	l0.6-1.6c0.3-0.3,0.8-0.7,1.1-0.7c0.2,0,0.1,0.1,0,0.3l-0.9,1.7c-0.1,0.2,0,0.4,0.2,0.4c0.4,0,1-0.4,1.2-1h-0.1
	c-0.1,0.2-0.4,0.4-0.6,0.5l0.8-1.6c0.1-0.2,0.2-0.4,0.2-0.5c0-0.3-0.1-0.4-0.4-0.4c-0.4,0-0.8,0.4-1.2,1v-0.4c0-0.3-0.1-0.6-0.4-0.6
	c-0.2,0-0.3,0.1-0.5,0.4v0.1c0.3,0,0.4,0.4,0.2,0.9L27.5,89.7z M27.5,87.8c0.1-0.4,0.1-0.7-0.2-0.7c-0.3,0-0.4,0.3-0.7,1v-0.4
	c0-0.3-0.1-0.6-0.4-0.6c-0.3,0-0.6,0.5-0.8,1h0.1c0.2-0.2,0.3-0.3,0.4-0.3c0.1,0,0.2,0.2,0,0.7l-0.6,1.3c-0.1,0.3,0,0.4,0.3,0.4
	c0.2,0,0.2,0,0.3-0.2l0.6-1.6c0.2-0.2,0.3-0.4,0.5-0.6H27.5z M24,87.5c0.2,0,0.4,0.2,0.3,0.6l-1,0.2C23.5,87.8,23.8,87.5,24,87.5
	 M24.6,89h-0.2c-0.2,0.3-0.5,0.5-0.8,0.5c-0.3,0-0.4-0.2-0.4-0.5c0-0.1,0-0.3,0-0.4l1.5-0.5c0.3-0.7-0.1-1-0.5-1
	c-0.7,0-1.6,1.2-1.6,2.3c0,0.5,0.2,0.7,0.6,0.7C23.8,90.1,24.2,89.7,24.6,89 M20.9,87.5h0.5l-0.8,2.2c-0.1,0.2,0,0.4,0.2,0.4
	c0.5,0,1.2-0.5,1.5-1.1h-0.1c-0.2,0.2-0.6,0.5-0.9,0.6l0.7-2.1h0.8l0.1-0.3h-0.7l0.3-0.8h-0.3l-0.5,0.8l-0.6,0.1V87.5z M18.1,89.2
	c0-0.7,0.8-1.6,1.2-1.6c0.1,0,0.2,0,0.3,0l-0.4,1.2c-0.3,0.3-0.7,0.7-0.8,0.7C18.2,89.5,18.1,89.4,18.1,89.2 M20.5,86.9l-0.2,0
	L20,87.2h-0.1c-1.3,0-2.4,1.4-2.4,2.5c0,0.3,0.2,0.5,0.5,0.5c0.3,0,0.7-0.5,1-1l0,0.2c0,0.5,0.1,0.8,0.4,0.8c0.3,0,0.6-0.5,0.8-1H20
	c-0.2,0.2-0.3,0.3-0.4,0.3c-0.1,0-0.2-0.2,0-0.7L20.5,86.9z M17.7,87.8c0.1-0.4,0.1-0.7-0.2-0.7c-0.3,0-0.4,0.3-0.7,1v-0.4
	c0-0.3-0.1-0.6-0.4-0.6c-0.3,0-0.6,0.5-0.8,1h0.1c0.2-0.2,0.3-0.3,0.4-0.3c0.1,0,0.2,0.2,0,0.7l-0.6,1.3c-0.1,0.3,0,0.4,0.3,0.4
	c0.2,0,0.2,0,0.3-0.2l0.6-1.6c0.2-0.2,0.3-0.4,0.5-0.6H17.7z M13.5,90l0.1-0.2c-0.7-0.1-0.8-0.1-0.5-1l0.3-0.8h0.8
	c0.4,0,0.4,0.2,0.3,0.6h0.2l0.5-1.3h-0.2c-0.2,0.3-0.3,0.6-0.7,0.6h-0.8l0.4-1.2c0.1-0.4,0.2-0.5,0.7-0.5h0.4c0.5,0,0.6,0.1,0.6,0.7
	h0.2l0.2-0.9h-3.1l-0.1,0.2c0.6,0.1,0.7,0.2,0.4,1l-0.7,1.8c-0.3,0.8-0.4,0.8-1.1,1L11.3,90H13.5z M28.6,80.5c0.2,0,0.4,0.2,0.3,0.6
	l-1,0.2C28.1,80.8,28.4,80.5,28.6,80.5 M29.1,82h-0.2c-0.2,0.3-0.5,0.5-0.8,0.5c-0.3,0-0.4-0.2-0.4-0.5c0-0.1,0-0.3,0-0.4l1.5-0.5
	c0.3-0.7-0.1-1-0.5-1c-0.7,0-1.6,1.2-1.6,2.3c0,0.5,0.2,0.7,0.6,0.7C28.3,83.1,28.8,82.7,29.1,82 M28.8,79.8l1.1-1v-0.1h-0.6
	l-0.7,1.1H28.8z M25.5,80.5H26l-0.8,2.2c-0.1,0.2,0,0.4,0.2,0.4c0.5,0,1.2-0.5,1.5-1.1h-0.1c-0.2,0.2-0.6,0.5-0.9,0.6l0.7-2.1h0.8
	l0.1-0.3h-0.7l0.3-0.8h-0.3l-0.5,0.8l-0.6,0.1V80.5z M24.8,80.4c0.1-0.2-0.1-0.3-0.2-0.3c-0.4,0-1,0.4-1.2,1h0.1
	c0.1-0.2,0.4-0.4,0.6-0.5l-0.9,2.2c-0.1,0.2,0.1,0.3,0.2,0.3c0.4,0,0.9-0.4,1.1-1h-0.1c-0.1,0.2-0.4,0.4-0.6,0.5L24.8,80.4z
	 M24.9,79.3c0.2,0,0.4-0.2,0.4-0.4c0-0.2-0.2-0.4-0.4-0.4c-0.2,0-0.4,0.2-0.4,0.4C24.6,79.1,24.7,79.3,24.9,79.3 M22,82.6l1.6-4.1
	l0-0.1l-1,0.1v0.1l0.2,0.1c0.2,0.1,0.1,0.3,0,0.7l-1.2,3.2c-0.1,0.2,0,0.4,0.2,0.4c0.4,0,0.9-0.4,1.1-1h-0.1
	C22.5,82.4,22.2,82.6,22,82.6 M19,82.3c0-0.7,0.8-1.6,1.2-1.6c0.1,0,0.2,0,0.3,0L20,81.9c-0.3,0.3-0.7,0.7-0.8,0.7
	C19.1,82.5,19,82.5,19,82.3 M21.3,80l-0.2,0l-0.3,0.3h-0.1c-1.3,0-2.4,1.4-2.4,2.5c0,0.3,0.2,0.5,0.5,0.5c0.3,0,0.7-0.5,1-1l0,0.2
	c0,0.5,0.1,0.8,0.4,0.8c0.3,0,0.6-0.5,0.8-1h-0.1c-0.2,0.2-0.3,0.3-0.4,0.3c-0.1,0-0.2-0.2,0-0.7L21.3,80z M15.7,83.7
	c0-0.3,0.3-0.5,0.7-0.6c0.1,0.1,0.3,0.1,0.6,0.2c0.4,0.1,0.6,0.2,0.6,0.3c0,0.3-0.5,0.5-1.1,0.5C15.9,84.1,15.7,83.9,15.7,83.7
	 M16.8,81.9c-0.2,0-0.3-0.2-0.3-0.3c0-0.5,0.3-1.2,0.7-1.2c0.2,0,0.3,0.2,0.3,0.3C17.5,81.1,17.2,81.9,16.8,81.9 M18,83.4
	c0-0.4-0.3-0.5-0.8-0.6c-0.4-0.1-0.6-0.2-0.6-0.3c0-0.1,0.1-0.3,0.3-0.4c0.7,0,1.2-0.7,1.2-1.3c0-0.1,0-0.2-0.1-0.3h0.6l0.1-0.3h-1
	c-0.1-0.1-0.3-0.1-0.4-0.1c-0.8,0-1.3,0.7-1.3,1.2c0,0.4,0.3,0.7,0.6,0.7c-0.4,0.2-0.6,0.4-0.6,0.6c0,0.1,0,0.2,0.2,0.3
	c-0.8,0.2-1.2,0.5-1.2,0.9c0,0.4,0.5,0.5,1.1,0.5C17.2,84.4,18,83.9,18,83.4 M14.1,81c0.4,0,0.4,0.2,0.3,0.6h0.2l0.5-1.3h-0.2
	c-0.2,0.3-0.3,0.6-0.7,0.6h-0.8l0.4-1.1c0.1-0.4,0.2-0.4,0.7-0.4h0.4c0.5,0,0.6,0.1,0.6,0.7h0.2l0.2-0.9h-3.1l-0.1,0.2
	c0.6,0.1,0.7,0.2,0.4,1l-0.7,1.8c-0.3,0.8-0.4,0.8-1.1,1L11.3,83h3.4l0.6-1h-0.2c-0.4,0.4-0.9,0.7-1.6,0.7c-0.9,0-0.8,0-0.5-0.9
	l0.3-0.9H14.1z M14.6,78.7l1.1-0.7v-0.1H15l-0.6,0.9H14.6z M28.2,73.5c0.2,0,0.4,0.2,0.3,0.6l-1,0.2C27.7,73.8,28,73.5,28.2,73.5
	 M28.8,75.1h-0.2c-0.2,0.3-0.5,0.5-0.8,0.5c-0.3,0-0.4-0.2-0.4-0.5c0-0.1,0-0.3,0-0.4l1.5-0.5c0.3-0.7-0.1-1-0.5-1
	c-0.7,0-1.6,1.2-1.6,2.3c0,0.5,0.2,0.7,0.6,0.7C28,76.1,28.4,75.7,28.8,75.1 M28.4,72.8l1.1-1v-0.1h-0.6l-0.7,1.1H28.4z M25.2,73.5
	h0.4l-0.8,2.2c-0.1,0.2,0,0.4,0.2,0.4c0.5,0,1.2-0.5,1.5-1.1h-0.1c-0.2,0.2-0.6,0.5-0.9,0.6l0.7-2.1H27l0.1-0.3h-0.7l0.3-0.8h-0.3
	l-0.5,0.8l-0.5,0.1V73.5z M24.8,73.8c0.1-0.4,0.1-0.7-0.2-0.7c-0.3,0-0.4,0.3-0.7,1v-0.4c0-0.3-0.1-0.6-0.4-0.6
	c-0.3,0-0.6,0.5-0.8,1h0.1c0.2-0.2,0.3-0.3,0.4-0.3c0.1,0,0.2,0.2,0,0.7l-0.6,1.3c-0.1,0.3,0,0.4,0.3,0.4c0.2,0,0.2,0,0.3-0.2
	l0.6-1.6c0.2-0.2,0.3-0.4,0.5-0.6H24.8z M21.4,73.5c0.2,0,0.4,0.2,0.3,0.6l-1,0.2C20.9,73.8,21.2,73.5,21.4,73.5 M21.9,75.1h-0.2
	c-0.2,0.3-0.5,0.5-0.8,0.5c-0.3,0-0.4-0.2-0.4-0.5c0-0.1,0-0.3,0-0.4l1.5-0.5c0.3-0.7-0.1-1-0.5-1c-0.7,0-1.6,1.2-1.6,2.3
	c0,0.5,0.2,0.7,0.6,0.7C21.1,76.1,21.6,75.7,21.9,75.1 M18.1,75.7c-0.2,0-0.4-0.1-0.4-0.3c0,0,0.1-0.2,0.2-0.4l0.3-0.7
	c0.3-0.3,0.7-0.7,0.9-0.7c0.1,0,0.2,0.1,0.2,0.3C19.3,74.6,18.8,75.7,18.1,75.7 M19.9,73.7c0-0.5-0.2-0.6-0.5-0.6
	c-0.4,0-0.8,0.4-1.1,0.9l0.9-2.5l-0.1-0.1l-1,0.1v0.1l0.2,0.1c0.2,0.1,0.1,0.3,0,0.7l-1,2.6c-0.1,0.2-0.2,0.4-0.2,0.5
	c0,0.3,0.4,0.5,0.7,0.5C18.6,76.1,19.9,74.8,19.9,73.7 M16.9,73.4c0.1-0.2-0.1-0.3-0.2-0.3c-0.4,0-1,0.4-1.2,1h0.1
	c0.1-0.2,0.4-0.4,0.6-0.5l-0.9,2.2c-0.1,0.2,0.1,0.3,0.2,0.3c0.4,0,0.9-0.4,1.1-1h-0.1c-0.1,0.2-0.4,0.4-0.6,0.5L16.9,73.4z
	 M17,72.3c0.2,0,0.4-0.2,0.4-0.4c0-0.2-0.2-0.4-0.4-0.4c-0.2,0-0.4,0.2-0.4,0.4C16.7,72.1,16.8,72.3,17,72.3 M14.8,71.9h-2l-0.1,0.2
	c0.6,0.1,0.7,0.2,0.4,0.9l-0.7,1.8c-0.3,0.8-0.4,0.8-1.1,0.9L11.3,76h3.1l0.7-1.2h-0.2c-0.4,0.4-0.8,0.9-1.5,0.9
	c-0.5,0-0.6-0.1-0.3-0.9l0.7-1.8c0.3-0.8,0.4-0.8,1.1-0.9L14.8,71.9z"/>
<g>
	<path d="M11.3,32.8v-7.4h1.9l1.8,3l1.8-3h1.9v7.4h-1.5v-5.3l-1.7,2.7h-1.1l-1.7-2.7v5.3H11.3z"/>
	<path d="M20.7,32.8v-7.4h1.5v7.4H20.7z"/>
	<path d="M24.3,32.8v-7.4h1.9l3.3,5.3v-5.3H31v7.4h-1.9l-3.3-5.3v5.3H24.3z"/>
	<path d="M33.1,32.8v-7.4h1.5v7.4H33.1z"/>
	<path d="M36,31.8l1.1-1c0.2,0.3,0.5,0.5,0.8,0.7c0.3,0.2,0.6,0.2,0.9,0.2c0.3,0,0.5-0.1,0.7-0.2c0.2-0.2,0.3-0.4,0.3-0.6
		c0-0.3-0.2-0.6-0.5-0.8c-0.4-0.2-0.7-0.4-1.2-0.6c-0.4-0.2-0.8-0.5-1.2-0.8c-0.4-0.3-0.5-0.8-0.5-1.4c0-0.3,0.1-0.6,0.2-0.8
		c0.1-0.3,0.3-0.5,0.5-0.7c0.2-0.2,0.5-0.3,0.7-0.5c0.3-0.1,0.6-0.2,1-0.2c0.6,0,1,0.1,1.5,0.3c0.4,0.2,0.8,0.5,1.1,0.9l-1.1,1
		c-0.2-0.3-0.4-0.5-0.7-0.7c-0.2-0.2-0.5-0.2-0.8-0.2c-0.3,0-0.5,0.1-0.6,0.2c-0.2,0.1-0.2,0.3-0.2,0.6c0,0.3,0.2,0.6,0.5,0.8
		c0.4,0.2,0.7,0.4,1.2,0.6c0.4,0.2,0.8,0.5,1.2,0.8c0.4,0.3,0.5,0.8,0.5,1.4c0,0.3-0.1,0.7-0.2,0.9c-0.1,0.3-0.3,0.5-0.5,0.7
		c-0.2,0.2-0.5,0.3-0.8,0.4c-0.3,0.1-0.6,0.2-1,0.2c-0.6,0-1.2-0.1-1.6-0.3C36.7,32.5,36.3,32.2,36,31.8z"/>
	<path d="M42,26.8v-1.4H48v1.4h-2.3v6h-1.5v-6H42z"/>
	<path d="M49.4,32.8v-7.4h4.3v1.3h-2.8v1.7h2.4v1.3h-2.4v1.9h2.8v1.3H49.4z M50.9,24.8l-1.4-1.4H51l1.2,1.4H50.9z"/>
	<path d="M55.4,32.8v-7.4h2.3c0.8,0,1.5,0.2,1.9,0.6c0.5,0.4,0.7,0.9,0.7,1.6c0,0.4-0.1,0.8-0.3,1.2c-0.2,0.3-0.5,0.6-0.9,0.8
		l2.3,3.3h-1.8l-2-3h-0.8v3H55.4z M57.8,26.7h-0.8v1.9h0.8c0.3,0,0.6-0.1,0.7-0.2s0.3-0.4,0.3-0.7c0-0.3-0.1-0.5-0.3-0.7
		C58.3,26.8,58.1,26.7,57.8,26.7z"/>
	<path d="M62.4,32.8v-7.4h4.3v1.3h-2.8v1.7h2.4v1.3h-2.4v1.9h2.8v1.3H62.4z"/>
	<path d="M11.3,44v-7.4h2.9c0.6,0,1.1,0.1,1.6,0.3c0.5,0.2,0.9,0.5,1.2,0.8c0.3,0.3,0.6,0.7,0.8,1.2c0.2,0.4,0.3,0.9,0.3,1.4
		c0,0.5-0.1,1-0.3,1.4c-0.2,0.4-0.5,0.8-0.8,1.2c-0.3,0.3-0.8,0.6-1.2,0.8c-0.5,0.2-1,0.3-1.6,0.3H11.3z M14.2,38h-1.4v4.7h1.4
		c0.3,0,0.7-0.1,1-0.2c0.3-0.1,0.5-0.3,0.7-0.5c0.2-0.2,0.4-0.5,0.5-0.7c0.1-0.3,0.2-0.6,0.2-0.9c0-0.3-0.1-0.6-0.2-0.9
		c-0.1-0.3-0.3-0.5-0.5-0.7c-0.2-0.2-0.5-0.4-0.7-0.5C14.9,38,14.5,38,14.2,38z"/>
	<path d="M19.6,44v-7.4h4.3v1.3h-2.8v1.7h2.4v1.3h-2.4v1.9h2.8V44H19.6z"/>
	<path d="M28.4,44v-7.4h1.5v6h2.8V44H28.4z"/>
	<path d="M33.6,39.7h-1.2l1-3h1.5L33.6,39.7z"/>
	<path d="M36,44v-7.4h4.3v1.3h-2.8v1.7h2.4v1.3h-2.4v1.9h2.8V44H36z M38.8,36h-1.4l1.2-1.4h1.5L38.8,36z"/>
	<path d="M45.2,42.8c0.4,0,0.8-0.1,1.1-0.3c0.3-0.2,0.6-0.4,0.8-0.7l1.2,0.9c-0.3,0.5-0.8,0.8-1.3,1.1c-0.5,0.3-1.1,0.4-1.8,0.4
		c-0.6,0-1.1-0.1-1.6-0.3c-0.5-0.2-0.9-0.5-1.2-0.8c-0.3-0.4-0.6-0.8-0.8-1.2c-0.2-0.5-0.3-1-0.3-1.5c0-0.5,0.1-1,0.3-1.5
		c0.2-0.5,0.5-0.9,0.8-1.2c0.3-0.4,0.8-0.6,1.2-0.8c0.5-0.2,1-0.3,1.6-0.3c0.7,0,1.3,0.1,1.8,0.4c0.5,0.3,1,0.6,1.3,1.1l-1.2,0.9
		c-0.2-0.3-0.5-0.5-0.8-0.7c-0.3-0.2-0.7-0.3-1.1-0.3c-0.3,0-0.7,0.1-1,0.2c-0.3,0.1-0.5,0.3-0.8,0.5c-0.2,0.2-0.4,0.5-0.5,0.8
		c-0.1,0.3-0.2,0.6-0.2,1c0,0.4,0.1,0.7,0.2,1c0.1,0.3,0.3,0.6,0.5,0.8c0.2,0.2,0.5,0.4,0.8,0.5C44.5,42.8,44.9,42.8,45.2,42.8z"/>
	<path d="M52.9,36.4c0.6,0,1.1,0.1,1.6,0.3c0.5,0.2,0.9,0.5,1.2,0.8c0.3,0.4,0.6,0.8,0.8,1.2c0.2,0.5,0.3,1,0.3,1.5
		c0,0.5-0.1,1-0.3,1.5c-0.2,0.5-0.5,0.9-0.8,1.2c-0.3,0.4-0.8,0.6-1.2,0.8s-1,0.3-1.6,0.3c-0.6,0-1.1-0.1-1.6-0.3
		c-0.5-0.2-0.9-0.5-1.2-0.8c-0.3-0.4-0.6-0.8-0.8-1.2c-0.2-0.5-0.3-1-0.3-1.5c0-0.5,0.1-1,0.3-1.5c0.2-0.5,0.5-0.9,0.8-1.2
		c0.3-0.4,0.8-0.6,1.2-0.8C51.8,36.5,52.3,36.4,52.9,36.4z M52.9,42.8c0.3,0,0.7-0.1,1-0.2c0.3-0.1,0.5-0.3,0.8-0.5
		c0.2-0.2,0.4-0.5,0.5-0.8c0.1-0.3,0.2-0.6,0.2-1c0-0.4-0.1-0.7-0.2-1c-0.1-0.3-0.3-0.6-0.5-0.8c-0.2-0.2-0.5-0.4-0.8-0.5
		c-0.3-0.1-0.6-0.2-1-0.2c-0.3,0-0.7,0.1-1,0.2c-0.3,0.1-0.5,0.3-0.8,0.5c-0.2,0.2-0.4,0.5-0.5,0.8c-0.1,0.3-0.2,0.6-0.2,1
		c0,0.4,0.1,0.7,0.2,1c0.1,0.3,0.3,0.6,0.5,0.8c0.2,0.2,0.5,0.4,0.8,0.5C52.2,42.8,52.5,42.8,52.9,42.8z"/>
	<path d="M58.3,44v-7.4h1.9l3.3,5.3v-5.3H65V44h-1.9l-3.3-5.3V44H58.3z"/>
	<path d="M70.4,36.4c0.6,0,1.1,0.1,1.6,0.3c0.5,0.2,0.9,0.5,1.2,0.8s0.6,0.8,0.8,1.2c0.2,0.5,0.3,1,0.3,1.5c0,0.5-0.1,1-0.3,1.5
		c-0.2,0.5-0.5,0.9-0.8,1.2c-0.3,0.4-0.8,0.6-1.2,0.8c-0.5,0.2-1,0.3-1.6,0.3s-1.1-0.1-1.6-0.3c-0.5-0.2-0.9-0.5-1.2-0.8
		c-0.3-0.4-0.6-0.8-0.8-1.2c-0.2-0.5-0.3-1-0.3-1.5c0-0.5,0.1-1,0.3-1.5c0.2-0.5,0.5-0.9,0.8-1.2c0.3-0.4,0.8-0.6,1.2-0.8
		C69.3,36.5,69.8,36.4,70.4,36.4z M70.4,42.8c0.3,0,0.7-0.1,1-0.2s0.5-0.3,0.8-0.5c0.2-0.2,0.4-0.5,0.5-0.8c0.1-0.3,0.2-0.6,0.2-1
		c0-0.4-0.1-0.7-0.2-1c-0.1-0.3-0.3-0.6-0.5-0.8c-0.2-0.2-0.5-0.4-0.8-0.5c-0.3-0.1-0.6-0.2-1-0.2s-0.7,0.1-1,0.2
		c-0.3,0.1-0.5,0.3-0.8,0.5c-0.2,0.2-0.4,0.5-0.5,0.8C68,39.6,68,40,68,40.3c0,0.4,0.1,0.7,0.2,1c0.1,0.3,0.3,0.6,0.5,0.8
		c0.2,0.2,0.5,0.4,0.8,0.5C69.7,42.8,70,42.8,70.4,42.8z"/>
	<path d="M75.7,44v-7.4h1.9l1.8,3l1.8-3h1.9V44h-1.5v-5.3l-1.7,2.7h-1.1l-1.7-2.7V44H75.7z"/>
	<path d="M85.2,44v-7.4h1.5V44H85.2z"/>
	<path d="M88.7,44v-7.4h4.3v1.3h-2.8v1.7h2.4v1.3h-2.4v1.9h2.8V44H88.7z"/>
	<path d="M95.3,45.7h-1.2l1-3.2h1.5L95.3,45.7z"/>
	<path d="M11.3,55.2v-7.4h2.9c0.6,0,1.1,0.1,1.6,0.3c0.5,0.2,0.9,0.5,1.2,0.8c0.3,0.3,0.6,0.7,0.8,1.2c0.2,0.4,0.3,0.9,0.3,1.4
		c0,0.5-0.1,1-0.3,1.4c-0.2,0.4-0.5,0.8-0.8,1.2c-0.3,0.3-0.8,0.6-1.2,0.8c-0.5,0.2-1,0.3-1.6,0.3H11.3z M14.2,49.2h-1.4v4.7h1.4
		c0.3,0,0.7-0.1,1-0.2c0.3-0.1,0.5-0.3,0.7-0.5c0.2-0.2,0.4-0.5,0.5-0.7c0.1-0.3,0.2-0.6,0.2-0.9c0-0.3-0.1-0.6-0.2-0.9
		c-0.1-0.3-0.3-0.5-0.5-0.7c-0.2-0.2-0.5-0.4-0.7-0.5C14.9,49.2,14.5,49.2,14.2,49.2z"/>
	<path d="M19.6,55.2v-7.4h4.3v1.3h-2.8v1.7h2.4v1.3h-2.4v1.9h2.8v1.3H19.6z"/>
	<path d="M25,54.2l1.1-1c0.2,0.3,0.5,0.5,0.8,0.7c0.3,0.2,0.6,0.2,0.9,0.2c0.3,0,0.5-0.1,0.7-0.2c0.2-0.2,0.3-0.4,0.3-0.6
		c0-0.3-0.2-0.6-0.5-0.8c-0.4-0.2-0.7-0.4-1.2-0.6c-0.4-0.2-0.8-0.5-1.2-0.8c-0.4-0.3-0.5-0.8-0.5-1.4c0-0.3,0.1-0.6,0.2-0.8
		c0.1-0.3,0.3-0.5,0.5-0.7c0.2-0.2,0.5-0.3,0.7-0.5c0.3-0.1,0.6-0.2,1-0.2c0.6,0,1,0.1,1.5,0.3c0.4,0.2,0.8,0.5,1.1,0.9l-1.1,1
		c-0.2-0.3-0.4-0.5-0.7-0.7c-0.2-0.2-0.5-0.2-0.8-0.2c-0.3,0-0.5,0.1-0.6,0.2c-0.2,0.1-0.2,0.3-0.2,0.6c0,0.3,0.2,0.6,0.5,0.8
		c0.4,0.2,0.7,0.4,1.2,0.6c0.4,0.2,0.8,0.5,1.2,0.8c0.4,0.3,0.5,0.8,0.5,1.4c0,0.3-0.1,0.7-0.2,0.9c-0.1,0.3-0.3,0.5-0.5,0.7
		c-0.2,0.2-0.5,0.3-0.8,0.4c-0.3,0.1-0.6,0.2-1,0.2c-0.6,0-1.2-0.1-1.6-0.3C25.7,54.9,25.3,54.6,25,54.2z"/>
	<path d="M34.5,55.2v-7.4h4.3v1.3H36v1.7h2.4v1.3H36v3.1H34.5z"/>
	<path d="M40.1,55.2v-7.4h1.5v7.4H40.1z"/>
	<path d="M43.7,55.2v-7.4h1.9l3.3,5.3v-5.3h1.5v7.4h-1.9l-3.3-5.3v5.3H43.7z"/>
	<path d="M51.6,55.2l2.8-7.4h2l2.8,7.4h-1.6l-0.7-1.9h-3l-0.7,1.9H51.6z M54.4,52h2l-1-2.8L54.4,52z"/>
	<path d="M60.3,55.2v-7.4h1.9l3.3,5.3v-5.3h1.5v7.4h-1.9l-3.3-5.3v5.3H60.3z"/>
	<path d="M72.4,54c0.4,0,0.8-0.1,1.1-0.3c0.3-0.2,0.6-0.4,0.8-0.7l1.2,0.9c-0.3,0.5-0.8,0.8-1.3,1.1c-0.5,0.3-1.1,0.4-1.8,0.4
		c-0.6,0-1.1-0.1-1.6-0.3c-0.5-0.2-0.9-0.5-1.2-0.8c-0.3-0.4-0.6-0.8-0.8-1.2c-0.2-0.5-0.3-1-0.3-1.5c0-0.5,0.1-1,0.3-1.5
		c0.2-0.5,0.5-0.9,0.8-1.2s0.8-0.6,1.2-0.8c0.5-0.2,1-0.3,1.6-0.3c0.7,0,1.3,0.1,1.8,0.4c0.5,0.3,1,0.6,1.3,1.1L74.4,50
		c-0.2-0.3-0.5-0.5-0.8-0.7c-0.3-0.2-0.7-0.3-1.1-0.3c-0.3,0-0.7,0.1-1,0.2c-0.3,0.1-0.5,0.3-0.8,0.5c-0.2,0.2-0.4,0.5-0.5,0.8
		c-0.1,0.3-0.2,0.6-0.2,1c0,0.4,0.1,0.7,0.2,1c0.1,0.3,0.3,0.6,0.5,0.8c0.2,0.2,0.5,0.4,0.8,0.5C71.8,54,72.1,54,72.4,54z"/>
	<path d="M76.9,55.2v-7.4h4.3v1.3h-2.8v1.7h2.4v1.3h-2.4v1.9h2.8v1.3H76.9z"/>
	<path d="M82.3,54.2l1.1-1c0.2,0.3,0.5,0.5,0.8,0.7c0.3,0.2,0.6,0.2,0.9,0.2c0.3,0,0.5-0.1,0.7-0.2c0.2-0.2,0.3-0.4,0.3-0.6
		c0-0.3-0.2-0.6-0.5-0.8c-0.4-0.2-0.7-0.4-1.2-0.6c-0.4-0.2-0.8-0.5-1.2-0.8c-0.4-0.3-0.5-0.8-0.5-1.4c0-0.3,0.1-0.6,0.2-0.8
		c0.1-0.3,0.3-0.5,0.5-0.7c0.2-0.2,0.5-0.3,0.7-0.5c0.3-0.1,0.6-0.2,1-0.2c0.6,0,1,0.1,1.5,0.3c0.4,0.2,0.8,0.5,1.1,0.9l-1.1,1
		c-0.2-0.3-0.4-0.5-0.7-0.7c-0.2-0.2-0.5-0.2-0.8-0.2c-0.3,0-0.5,0.1-0.6,0.2c-0.2,0.1-0.2,0.3-0.2,0.6c0,0.3,0.2,0.6,0.5,0.8
		c0.4,0.2,0.7,0.4,1.2,0.6c0.4,0.2,0.8,0.5,1.2,0.8c0.4,0.3,0.5,0.8,0.5,1.4c0,0.3-0.1,0.7-0.2,0.9c-0.1,0.3-0.3,0.5-0.5,0.7
		c-0.2,0.2-0.5,0.3-0.8,0.4c-0.3,0.1-0.6,0.2-1,0.2c-0.6,0-1.2-0.1-1.6-0.3C83,54.9,82.6,54.6,82.3,54.2z"/>
	<path d="M11.3,66.4V59h4.3v1.3h-2.8V62h2.4v1.3h-2.4v1.9h2.8v1.3H11.3z"/>
	<path d="M16.7,60.4V59h6.1v1.4h-2.3v6H19v-6H16.7z"/>
	<path d="M26.9,66.4V59h2.9c0.6,0,1.1,0.1,1.6,0.3c0.5,0.2,0.9,0.5,1.2,0.8c0.3,0.3,0.6,0.7,0.8,1.2c0.2,0.4,0.3,0.9,0.3,1.4
		c0,0.5-0.1,1-0.3,1.4c-0.2,0.4-0.5,0.8-0.8,1.2c-0.3,0.3-0.8,0.6-1.2,0.8c-0.5,0.2-1,0.3-1.6,0.3H26.9z M29.8,60.4h-1.4V65h1.4
		c0.3,0,0.7-0.1,1-0.2c0.3-0.1,0.5-0.3,0.7-0.5c0.2-0.2,0.4-0.5,0.5-0.7c0.1-0.3,0.2-0.6,0.2-0.9c0-0.3-0.1-0.6-0.2-0.9
		c-0.1-0.3-0.3-0.5-0.5-0.7c-0.2-0.2-0.5-0.4-0.7-0.5C30.5,60.4,30.1,60.4,29.8,60.4z"/>
	<path d="M35.2,66.4V59h4.3v1.3h-2.8V62h2.4v1.3h-2.4v1.9h2.8v1.3H35.2z"/>
	<path d="M44,66.4V59h1.5v6h2.8v1.4H44z"/>
	<path d="M49,66.4l2.8-7.4h2l2.8,7.4H55l-0.7-1.9h-3l-0.7,1.9H49z M51.8,63.2h2l-1-2.8L51.8,63.2z"/>
	<path d="M60.5,66.4V59h2.3c0.8,0,1.5,0.2,1.9,0.6c0.5,0.4,0.7,0.9,0.7,1.6c0,0.4-0.1,0.8-0.3,1.2c-0.2,0.3-0.5,0.6-0.9,0.8l2.3,3.3
		h-1.8l-2-3H62v3H60.5z M62.8,60.3H62v1.9h0.8c0.3,0,0.6-0.1,0.7-0.2c0.2-0.2,0.3-0.4,0.3-0.7c0-0.3-0.1-0.5-0.3-0.7
		C63.4,60.4,63.2,60.3,62.8,60.3z"/>
	<path d="M67.5,66.4V59h4.3v1.3H69V62h2.4v1.3H69v1.9h2.8v1.3H67.5z"/>
	<path d="M73.5,66.4V59H75v6h2.8v1.4H73.5z"/>
	<path d="M78.6,66.4l2.8-7.4h2l2.8,7.4h-1.6l-0.7-1.9h-3l-0.7,1.9H78.6z M81.3,63.2h2l-1-2.8L81.3,63.2z"/>
	<path d="M87.3,66.4V59h1.9l3.3,5.3V59H94v7.4h-1.9l-3.3-5.3v5.3H87.3z"/>
	<path d="M99.4,65.2c0.4,0,0.8-0.1,1.1-0.3c0.3-0.2,0.6-0.4,0.8-0.7l1.2,0.9c-0.3,0.5-0.8,0.8-1.3,1.1c-0.5,0.3-1.1,0.4-1.8,0.4
		c-0.6,0-1.1-0.1-1.6-0.3c-0.5-0.2-0.9-0.5-1.2-0.8c-0.3-0.4-0.6-0.8-0.8-1.2c-0.2-0.5-0.3-1-0.3-1.5c0-0.5,0.1-1,0.3-1.5
		c0.2-0.5,0.5-0.9,0.8-1.2s0.8-0.6,1.2-0.8c0.5-0.2,1-0.3,1.6-0.3c0.7,0,1.3,0.1,1.8,0.4c0.5,0.3,1,0.6,1.3,1.1l-1.2,0.9
		c-0.2-0.3-0.5-0.5-0.8-0.7c-0.3-0.2-0.7-0.3-1.1-0.3c-0.3,0-0.7,0.1-1,0.2c-0.3,0.1-0.5,0.3-0.8,0.5c-0.2,0.2-0.4,0.5-0.5,0.8
		c-0.1,0.3-0.2,0.6-0.2,1c0,0.4,0.1,0.7,0.2,1c0.1,0.3,0.3,0.6,0.5,0.8c0.2,0.2,0.5,0.4,0.8,0.5C98.7,65.2,99,65.2,99.4,65.2z"/>
	<path d="M103.8,66.4V59h4.3v1.3h-2.8V62h2.4v1.3h-2.4v1.9h2.8v1.3H103.8z"/>
</g>
<path id="Fond_3_" class="st0" d="M22.8,19.1c0.1-0.1,0.2-0.2,0.3-0.3h0c0.2-0.2,0.4-0.5,0.6-0.7c0.1-0.1,0.1-0.1,0.2-0.2
	c0,0,0-0.1,0-0.1c-0.1,0-0.2,0.1-0.2,0.2c0,0,0,0,0,0c0.1-0.1,0.1-0.1,0.2-0.2c0,0,0,0,0,0c0,0,0,0,0,0c-0.3,0-0.4,0.1-0.6,0.3
	c0,0-0.1,0-0.1,0c-0.3,0.1-0.5,0.3-0.8,0.5v0c-0.1,0-0.2,0.1-0.3,0.1c-0.2,0-0.3,0-0.5,0c-0.2,0-0.5,0.1-0.7,0.1c0,0,0,0,0,0
	c-0.1,0-0.2,0.1-0.4,0.1c0,0,0,0,0,0c0,0,0,0,0,0c0,0-0.1,0.1-0.1,0.1c-0.1,0.1-0.2,0.2-0.3,0.2c0,0,0,0,0,0
	c-0.1,0.1-0.2,0.2-0.3,0.3c0,0,0,0-0.1,0c0,0,0,0,0,0c0,0,0,0,0,0c0,0,0-0.1,0-0.1c0,0,0-0.1,0.1-0.1c0,0,0.1-0.1,0.1-0.1
	c0,0,0,0,0,0c0,0,0,0,0,0c0.1-0.1,0.2-0.2,0.3-0.2v0c0,0,0,0,0,0c0,0,0,0,0-0.1c0,0,0,0,0,0c0,0,0,0,0,0c0,0-0.1,0-0.1,0.1
	c0,0-0.1,0.1-0.2,0.1c0,0,0,0,0,0c0,0,0,0,0,0c0,0,0,0,0,0c0,0,0,0,0,0c0,0,0,0,0,0c0,0,0,0,0,0c0,0,0,0,0,0c0,0,0,0,0,0
	c0,0,0,0,0,0c0,0,0,0,0,0c0,0,0,0,0,0c0,0,0,0,0,0c0,0,0,0,0,0c0,0,0,0,0,0c0,0,0.1-0.1,0.1-0.1h0c0.1,0,0.1-0.1,0.2-0.1
	c0,0,0,0,0,0c-0.1,0-0.2,0.1-0.3,0.2c0,0,0,0,0,0c0,0,0,0,0,0c0,0,0,0,0,0c0,0,0.1-0.1,0.1-0.1c0,0,0,0,0,0c0.6-0.5,1.5-0.4,2.2-0.6
	c0.1,0,0.1-0.1,0.2-0.1c0.1,0,0.2-0.1,0.3-0.2c0.2-0.1,0.3-0.2,0.3-0.4c0,0,0,0,0,0c-0.2,0.3-0.5,0.5-0.8,0.6
	c-0.4,0.2-0.8,0.2-1.3,0.2c0,0,0.1,0,0.1,0c0-0.1,0-0.1,0.1-0.1h0.1c0,0,0,0,0,0c0,0,0.1,0,0.1,0c-0.1-0.1-0.2,0.1-0.3,0
	c0,0,0-0.1,0.1-0.1h0.1c0,0,0-0.1,0-0.1c0.3-0.2,0.6-0.3,0.8-0.5c-0.1,0-0.1,0.1-0.2,0c0,0,0-0.1,0-0.1c0.2-0.1,0.4-0.2,0.6-0.2
	c-0.1,0-0.1,0.1-0.2,0c0,0,0.1-0.1,0.1-0.1v-0.1c0,0,0,0,0,0c0,0,0,0,0,0c0,0,0.1,0,0.1-0.1c0,0-0.1,0-0.1,0
	c0.1-0.1,0.2-0.1,0.3-0.1c0,0-0.1,0-0.1,0c0,0,0,0,0,0h0c0,0,0-0.1,0-0.1c0.1-0.1,0.1-0.3,0.2-0.5c0,0,0,0,0,0
	c-0.2,0.2-0.5,0.3-0.8,0.4h-0.1c-0.1,0-0.2,0-0.3,0c-0.1,0-0.1-0.1-0.2-0.2c-0.2-0.1-0.3-0.2-0.5-0.2c-0.5-0.2-1-0.2-1.5-0.2
	c0.2-0.1,0.4-0.1,0.7-0.2c0.3-0.1,0.6-0.2,1-0.2c-0.1,0-0.1,0-0.2,0c-0.3,0-0.5,0.1-0.8,0.1c-0.2,0-0.4,0.1-0.6,0.2
	c-0.1,0-0.2,0.2-0.3,0.1v-0.1c0.2-0.2,0.4-0.5,0.7-0.5c0.3-0.1,0.7,0,1,0c0.2,0,0.5,0.1,0.7,0.1c0.1,0,0.1,0.2,0.2,0.2
	c0.1,0,0.2,0,0.3,0.1c0,0,0-0.1,0-0.1c0.1-0.1,0.2,0,0.2,0c0.2-0.1-0.1-0.3-0.2-0.4c0,0,0,0,0,0c0.2,0.1,0.3,0.3,0.5,0.4
	c0.1,0,0.3,0.1,0.3,0c-0.1-0.2-0.3-0.4-0.4-0.6v-0.1c0,0,0,0-0.1,0v-0.1c-0.1,0-0.1-0.1-0.1-0.2c-0.1-0.1,0-0.2-0.1-0.3
	c0-0.1-0.1-0.2-0.1-0.3c-0.1-0.3-0.1-0.6-0.2-0.9c0-0.4,0.2-0.7,0.4-1c0.1-0.2,0.3-0.5,0.5-0.6c0.1-0.2,0.2-0.4,0.4-0.6
	c0.2-0.2,0.4-0.3,0.6-0.4c0.3-0.1,0.5-0.2,0.5-0.2l3.8,0c0,0,0,0,0.1,0c0.1,0,0.2,0.1,0.3,0.1c0.1,0.1,0.3,0.2,0.4,0.3
	c0,0.1,0.1,0.2,0.1,0.2c0,0.1-0.1,0.2-0.2,0.3c-0.1,0.1-0.3,0.1-0.4,0c-0.1,0-0.2,0-0.2,0c0.3,0.1,0.6,0.2,0.7,0.5
	c0,0,0.1,0.1,0.2,0.1c0,0,0,0,0,0.1c0,0-0.1,0.1-0.1,0.1h0.1c0.1,0,0.1-0.2,0.2-0.2c0.1,0.1,0.1,0.2,0.1,0.3
	c-0.1,0.1-0.2,0.1-0.2,0.2c0,0,0,0.1,0,0.1c0.1,0.1,0.1,0.2,0.1,0.2c0.1,0.1,0.1,0.3,0.1,0.4c0.1,0.3,0.2,0.6,0.1,0.9
	c0,0.2-0.1,0.3,0,0.4c0,0.2,0.1,0.3,0.2,0.4c0.1,0.1,0.2,0.2,0.2,0.3c0.1,0.2,0.3,0.4,0.2,0.6c-0.1,0.1-0.3,0.1-0.4,0.2
	c-0.1,0.1,0,0.2,0,0.3c0.1,0.2-0.1,0.3-0.3,0.3c0,0.1,0.1,0,0.1,0.1c0,0.1,0.1,0.2,0.1,0.2c-0.1,0.1-0.3,0.2-0.2,0.3
	c0.1,0.1,0,0.3,0,0.4c-0.1,0.2-0.2,0.2-0.3,0.3c-0.1,0-0.2,0-0.4,0c0,0-0.1,0-0.1,0c-0.3,0-0.7-0.1-1-0.1c-0.1,0-0.2,0-0.3,0.1
	c-0.1,0.1-0.2,0.1-0.2,0.2c0,0,0,0,0,0c0,0,0,0,0,0c0,0,0,0,0,0c0,0,0,0,0,0c-0.1,0.1-0.1,0.1-0.2,0.2c0,0,0,0,0,0c0,0,0,0,0,0
	C27,18.6,27,18.7,27,18.8c-0.1,0.4-0.1,0.8,0,0.9c0,0,0.6,0.2,1.1,0.4c0.2,0.1,0.3,0.2,0.5,0.2l-7.9,0c0.4-0.3,0.7-0.4,1.2-0.6
	C22.1,19.6,22.6,19.3,22.8,19.1 M19.9,17.8C19.8,17.8,19.8,17.8,19.9,17.8c-0.1-0.1,0.1-0.1,0.1-0.2c0,0,0.1-0.1,0.1,0
	c0,0.1,0.1,0,0.1,0.1C20.2,17.8,20,17.7,19.9,17.8 M16.9,17.3C16.9,17.3,16.9,17.3,16.9,17.3c0.2-0.4,0.4-0.7,0.6-1
	c0.3-0.1,0.5-0.3,0.7-0.5c0.3-0.3,0.7-0.7,1.1-0.8c0.2-0.1,0.3,0,0.5,0c-0.1,0.1-0.2,0.1-0.2,0.1c0,0,0,0-0.1,0c0,0,0,0,0-0.1
	c-0.2,0.2-0.5,0.3-0.6,0.6c-0.1,0.2-0.2,0.4-0.4,0.5c-0.1,0,0-0.1,0,0C17.8,16.4,17.4,16.8,16.9,17.3 M18.5,16.1
	C18.5,16.1,18.5,16.1,18.5,16.1c-0.1,0.1-0.1,0.1-0.1,0.2c0,0,0,0,0,0C18.4,16.1,18.4,16.1,18.5,16.1C18.5,16,18.5,16.1,18.5,16.1
	 M19.4,18.9C19.4,19,19.4,19,19.4,18.9C19.4,19,19.4,19,19.4,18.9c-0.1,0.1-0.1,0.2-0.2,0.2c0,0,0,0,0,0c0,0,0,0-0.1,0.1
	c0,0-0.1,0-0.1,0c0,0,0.1-0.1,0.1-0.1c0,0,0.1,0,0.1-0.1c0,0,0,0,0,0C19.3,18.9,19.4,18.9,19.4,18.9 M19.1,18.8
	C19.1,18.8,19.1,18.8,19.1,18.8c-0.1,0.1-0.1,0.1-0.2,0.1c-0.1,0-0.2,0.1-0.3,0.1c0,0,0,0,0,0c0,0,0,0,0,0c-0.1,0-0.1,0.1-0.2,0.1
	c0,0,0,0,0,0c0,0,0,0,0,0c0,0,0,0,0,0c0,0,0,0,0,0c0,0,0,0,0,0c0,0,0,0,0,0c0,0,0,0,0,0c0,0,0,0,0,0c0,0,0,0,0,0c0,0,0,0,0,0
	c0,0,0,0,0,0c0,0,0,0,0,0c0,0,0,0,0,0c0,0,0,0,0,0c0,0,0,0-0.1,0.1c0,0-0.1,0.1-0.1,0.1c0,0,0,0,0,0c0,0,0,0,0,0c0,0,0,0,0,0
	c0,0,0,0,0,0c0,0,0,0,0,0c0,0,0,0,0,0l0,0c0,0,0,0,0,0c0,0,0,0,0,0c0,0,0,0,0,0c0,0,0,0,0,0l0,0c0,0,0,0,0,0c0,0,0,0,0.1-0.1
	c0,0,0,0,0,0c0,0,0,0,0,0c0,0,0,0,0,0c0,0,0,0,0,0c0,0,0-0.1,0.1-0.1c0,0,0,0,0,0c0,0,0,0,0,0c0,0,0,0,0,0c0,0,0,0,0,0c0,0,0,0,0,0
	c0,0,0,0,0,0c0,0,0,0,0,0c0,0,0,0,0,0c0,0,0,0,0,0c0,0,0,0,0,0c0,0,0,0,0,0c0,0,0,0,0,0c0,0,0,0,0,0c0,0,0,0,0,0c0,0,0-0.1,0.1-0.1
	c0,0,0,0,0,0c0,0,0,0-0.1,0.1c0,0-0.1,0,0,0c0,0,0,0,0,0c0,0,0,0,0,0c0,0,0.1-0.1,0.1-0.1c0,0,0,0,0.1,0c0,0,0,0,0,0c0,0,0,0,0,0
	c0,0,0,0,0,0c0.2-0.2,0.5-0.2,0.7-0.3c0.1,0,0.2,0,0.3,0c0.1,0,0.1,0,0.2,0C19.4,18.6,19.2,18.7,19.1,18.8 M19.5,17.5
	C19.4,17.4,19.5,17.5,19.5,17.5L19.5,17.5C19.4,17.4,19.4,17.4,19.5,17.5c-0.2-0.1-0.3,0-0.4,0c-0.1,0-0.2,0.1-0.4,0.2
	c-0.2,0.1-0.4,0.2-0.6,0.3c0,0,0,0,0,0c0-0.1,0.1-0.1,0.1-0.1c0,0,0,0,0,0c0.2-0.2,0.4-0.3,0.6-0.5v-0.1c0.1-0.1,0.2-0.1,0.2-0.2
	c0-0.1,0.1-0.1,0.2-0.2c0,0-0.1,0-0.1-0.1c-0.1,0-0.2,0-0.2,0c0,0,0.1-0.1,0.1-0.1c0,0,0,0,0,0c0,0,0-0.1,0.1-0.1
	c0.1,0,0.2,0,0.2-0.1c-0.1,0-0.3,0-0.4,0c0.1-0.2,0.3-0.5,0.5-0.6c0,0,0.1,0,0.1,0c0,0.1-0.1,0.2-0.2,0.2c0.2,0,0.3,0,0.5,0.1
	c0,0-0.1,0-0.1,0c0.1,0.1,0.2,0,0.3,0.1c-0.1,0.1-0.1,0-0.2,0c0.6,0.2,1.2,0.3,1.7,0.7c-0.4,0.2-0.9,0.3-1.3,0.4c-0.1,0-0.1,0-0.2,0
	c0,0,0,0.1,0,0.1c-0.1,0-0.1,0-0.2,0C19.6,17.5,19.5,17.5,19.5,17.5"/>
<path id="Rouge_3_" class="st1" d="M22.8,19.1c0.1-0.1,0.2-0.2,0.3-0.3h0c0.2-0.2,0.4-0.5,0.6-0.7c0.1-0.1,0.1-0.1,0.2-0.2
	c0,0,0-0.1,0-0.1c-0.1,0-0.2,0.1-0.2,0.2c0,0,0,0,0,0c0.1-0.1,0.1-0.1,0.2-0.2c0,0,0,0,0,0c0,0,0,0,0,0c-0.3,0-0.4,0.1-0.6,0.3
	c0,0-0.1,0-0.1,0c-0.3,0.1-0.5,0.3-0.8,0.5v0c-0.1,0-0.2,0.1-0.3,0.1c-0.2,0-0.3,0-0.5,0c-0.2,0-0.5,0.1-0.7,0.1c0,0,0,0,0,0
	c-0.1,0-0.2,0.1-0.4,0.1c0,0,0,0,0,0c0,0,0,0,0,0c0,0-0.1,0.1-0.1,0.1c-0.1,0.1-0.2,0.2-0.3,0.2c0,0,0,0,0,0
	c-0.1,0.1-0.2,0.2-0.3,0.3c0,0,0,0-0.1,0c0,0,0,0,0,0c0,0,0,0,0,0c0,0,0-0.1,0-0.1c0,0,0-0.1,0.1-0.1c0,0,0.1-0.1,0.1-0.1
	c0,0,0,0,0,0c0,0,0,0,0,0c0.1-0.1,0.2-0.2,0.3-0.2v0c0,0,0,0,0,0c0,0,0,0,0-0.1c0,0,0,0,0,0c0,0,0,0,0,0c0,0-0.1,0-0.1,0.1
	c0,0-0.1,0.1-0.2,0.1c0,0,0,0,0,0c0,0,0,0,0,0c0,0,0,0,0,0c0,0,0,0,0,0c0,0,0,0,0,0c0,0,0,0,0,0c0,0,0,0,0,0c0,0,0,0,0,0
	c0,0,0,0,0,0c0,0,0,0,0,0c0,0,0,0,0,0c0,0,0,0,0,0c0,0,0,0,0,0c0,0,0,0,0,0c0,0,0.1-0.1,0.1-0.1h0c0.1,0,0.1-0.1,0.2-0.1
	c0,0,0,0,0,0c-0.1,0-0.2,0.1-0.3,0.2c0,0,0,0,0,0c0,0,0,0,0,0c0,0,0,0,0,0c0,0,0.1-0.1,0.1-0.1c0,0,0,0,0,0c0.6-0.5,1.5-0.4,2.2-0.6
	c0.1,0,0.1-0.1,0.2-0.1c0.1,0,0.2-0.1,0.3-0.2c0.2-0.1,0.3-0.2,0.3-0.4c0,0,0,0,0,0c-0.2,0.3-0.5,0.5-0.8,0.6
	c-0.4,0.2-0.8,0.2-1.3,0.2c0,0,0.1,0,0.1,0c0-0.1,0-0.1,0.1-0.1h0.1c0,0,0,0,0,0c0,0,0.1,0,0.1,0c-0.1-0.1-0.2,0.1-0.3,0
	c0,0,0-0.1,0.1-0.1h0.1c0,0,0-0.1,0-0.1c0.3-0.2,0.6-0.3,0.8-0.5c-0.1,0-0.1,0.1-0.2,0c0,0,0-0.1,0-0.1c0.2-0.1,0.4-0.2,0.6-0.2
	c-0.1,0-0.1,0.1-0.2,0c0,0,0.1-0.1,0.1-0.1v-0.1c0,0,0,0,0,0c0,0,0,0,0,0c0,0,0.1,0,0.1-0.1c0,0-0.1,0-0.1,0
	c0.1-0.1,0.2-0.1,0.3-0.1c0,0-0.1,0-0.1,0c0,0,0,0,0,0h0c0,0,0-0.1,0-0.1c0.1-0.1,0.1-0.3,0.2-0.5c0,0,0,0,0,0
	c-0.2,0.2-0.5,0.3-0.8,0.4h-0.1c-0.1,0-0.2,0-0.3,0c-0.1,0-0.1-0.1-0.2-0.2c-0.2-0.1-0.3-0.2-0.5-0.2c-0.5-0.2-1-0.2-1.5-0.2
	c0.2-0.1,0.4-0.1,0.7-0.2c0.3-0.1,0.6-0.2,1-0.2c-0.1,0-0.1,0-0.2,0c-0.3,0-0.5,0.1-0.8,0.1c-0.2,0-0.4,0.1-0.6,0.2
	c-0.1,0-0.2,0.2-0.3,0.1v-0.1c0.2-0.2,0.4-0.5,0.7-0.5c0.3-0.1,0.7,0,1,0c0.2,0,0.5,0.1,0.7,0.1c0.1,0,0.1,0.2,0.2,0.2
	c0.1,0,0.2,0,0.3,0.1c0,0,0-0.1,0-0.1c0.1-0.1,0.2,0,0.2,0c0.2-0.1-0.1-0.3-0.2-0.4c0,0,0,0,0,0c0.2,0.1,0.3,0.3,0.5,0.4
	c0.1,0,0.3,0.1,0.3,0c-0.1-0.2-0.3-0.4-0.4-0.6v-0.1c0,0,0,0-0.1,0v-0.1c-0.1,0-0.1-0.1-0.1-0.2c-0.1-0.1,0-0.2-0.1-0.3
	c0-0.1-0.1-0.2-0.1-0.3c-0.1-0.3-0.1-0.6-0.2-0.9c0-0.4,0.2-0.7,0.4-1c0.1-0.2,0.3-0.5,0.5-0.6c0.1-0.2,0.2-0.4,0.4-0.6
	c0.2-0.2,0.4-0.3,0.6-0.4c0.3-0.1,0.5-0.2,0.5-0.2H11.3v10.2h9.3c0.4-0.3,0.7-0.4,1.2-0.6C22.1,19.6,22.6,19.3,22.8,19.1 M19.9,17.8
	C19.8,17.8,19.8,17.8,19.9,17.8c-0.1-0.1,0.1-0.1,0.1-0.2c0,0,0.1-0.1,0.1,0c0,0.1,0.1,0,0.1,0.1C20.2,17.8,20,17.7,19.9,17.8
	 M16.9,17.3C16.9,17.3,16.9,17.3,16.9,17.3c0.2-0.4,0.4-0.7,0.6-1c0.3-0.1,0.5-0.3,0.7-0.5c0.3-0.3,0.7-0.7,1.1-0.8
	c0.2-0.1,0.3,0,0.5,0c-0.1,0.1-0.2,0.1-0.2,0.1c0,0,0,0-0.1,0c0,0,0,0,0-0.1c-0.2,0.2-0.5,0.3-0.6,0.6c-0.1,0.2-0.2,0.4-0.4,0.5
	c-0.1,0,0-0.1,0,0C17.8,16.4,17.4,16.8,16.9,17.3 M18.5,16.1C18.5,16.1,18.5,16.1,18.5,16.1c-0.1,0.1-0.1,0.1-0.1,0.2c0,0,0,0,0,0
	C18.4,16.1,18.4,16.1,18.5,16.1C18.5,16,18.5,16.1,18.5,16.1 M19.4,18.9C19.4,19,19.4,19,19.4,18.9C19.4,19,19.4,19,19.4,18.9
	c-0.1,0.1-0.1,0.2-0.2,0.2c0,0,0,0,0,0c0,0,0,0-0.1,0.1c0,0-0.1,0-0.1,0c0,0,0.1-0.1,0.1-0.1c0,0,0.1,0,0.1-0.1c0,0,0,0,0,0
	C19.3,18.9,19.4,18.9,19.4,18.9 M19.1,18.8C19.1,18.8,19.1,18.8,19.1,18.8c-0.1,0.1-0.1,0.1-0.2,0.1c-0.1,0-0.2,0.1-0.3,0.1
	c0,0,0,0,0,0c0,0,0,0,0,0c-0.1,0-0.1,0.1-0.2,0.1c0,0,0,0,0,0c0,0,0,0,0,0c0,0,0,0,0,0c0,0,0,0,0,0c0,0,0,0,0,0c0,0,0,0,0,0
	c0,0,0,0,0,0c0,0,0,0,0,0c0,0,0,0,0,0c0,0,0,0,0,0c0,0,0,0,0,0c0,0,0,0,0,0c0,0,0,0,0,0c0,0,0,0,0,0c0,0,0,0-0.1,0.1
	c0,0-0.1,0.1-0.1,0.1c0,0,0,0,0,0c0,0,0,0,0,0c0,0,0,0,0,0c0,0,0,0,0,0c0,0,0,0,0,0c0,0,0,0,0,0l0,0c0,0,0,0,0,0c0,0,0,0,0,0
	c0,0,0,0,0,0c0,0,0,0,0,0l0,0c0,0,0,0,0,0c0,0,0,0,0.1-0.1c0,0,0,0,0,0c0,0,0,0,0,0c0,0,0,0,0,0c0,0,0,0,0,0c0,0,0-0.1,0.1-0.1
	c0,0,0,0,0,0c0,0,0,0,0,0c0,0,0,0,0,0c0,0,0,0,0,0c0,0,0,0,0,0c0,0,0,0,0,0c0,0,0,0,0,0c0,0,0,0,0,0c0,0,0,0,0,0c0,0,0,0,0,0
	c0,0,0,0,0,0c0,0,0,0,0,0c0,0,0,0,0,0c0,0,0,0,0,0c0,0,0-0.1,0.1-0.1c0,0,0,0,0,0c0,0,0,0-0.1,0.1c0,0-0.1,0,0,0c0,0,0,0,0,0
	c0,0,0,0,0,0c0,0,0.1-0.1,0.1-0.1c0,0,0,0,0.1,0c0,0,0,0,0,0c0,0,0,0,0,0c0,0,0,0,0,0c0.2-0.2,0.5-0.2,0.7-0.3c0.1,0,0.2,0,0.3,0
	c0.1,0,0.1,0,0.2,0C19.4,18.6,19.2,18.7,19.1,18.8 M19.5,17.5C19.4,17.4,19.5,17.5,19.5,17.5L19.5,17.5
	C19.4,17.4,19.4,17.4,19.5,17.5c-0.2-0.1-0.3,0-0.4,0c-0.1,0-0.2,0.1-0.4,0.2c-0.2,0.1-0.4,0.2-0.6,0.3c0,0,0,0,0,0
	c0-0.1,0.1-0.1,0.1-0.1c0,0,0,0,0,0c0.2-0.2,0.4-0.3,0.6-0.5v-0.1c0.1-0.1,0.2-0.1,0.2-0.2c0-0.1,0.1-0.1,0.2-0.2c0,0-0.1,0-0.1-0.1
	c-0.1,0-0.2,0-0.2,0c0,0,0.1-0.1,0.1-0.1c0,0,0,0,0,0c0,0,0-0.1,0.1-0.1c0.1,0,0.2,0,0.2-0.1c-0.1,0-0.3,0-0.4,0
	c0.1-0.2,0.3-0.5,0.5-0.6c0,0,0.1,0,0.1,0c0,0.1-0.1,0.2-0.2,0.2c0.2,0,0.3,0,0.5,0.1c0,0-0.1,0-0.1,0c0.1,0.1,0.2,0,0.3,0.1
	c-0.1,0.1-0.1,0-0.2,0c0.6,0.2,1.2,0.3,1.7,0.7c-0.4,0.2-0.9,0.3-1.3,0.4c-0.1,0-0.1,0-0.2,0c0,0,0,0.1,0,0.1c-0.1,0-0.1,0-0.2,0
	C19.6,17.5,19.5,17.5,19.5,17.5"/>
<path id="Bleu_3_" class="st2" d="M39.2,10.2H28.3c0,0,0,0,0.1,0c0.1,0,0.2,0.1,0.3,0.1c0.1,0.1,0.3,0.2,0.4,0.3
	c0,0.1,0.1,0.2,0.1,0.2c0,0.1-0.1,0.2-0.2,0.3c-0.1,0.1-0.3,0.1-0.4,0c-0.1,0-0.2,0-0.2,0c0.3,0.1,0.6,0.2,0.7,0.5
	c0,0,0.1,0.1,0.2,0.1c0,0,0,0,0,0.1c0,0-0.1,0.1-0.1,0.1h0.1c0.1,0,0.1-0.2,0.2-0.2c0.1,0.1,0.1,0.2,0.1,0.3
	c-0.1,0.1-0.2,0.1-0.2,0.2c0,0,0,0.1,0,0.1c0.1,0.1,0.1,0.2,0.1,0.2c0.1,0.1,0.1,0.3,0.1,0.4c0.1,0.3,0.2,0.6,0.1,0.9
	c0,0.2-0.1,0.3,0,0.4c0,0.2,0.1,0.3,0.2,0.4c0.1,0.1,0.2,0.2,0.2,0.3c0.1,0.2,0.3,0.4,0.2,0.6c-0.1,0.1-0.3,0.1-0.4,0.2
	c-0.1,0.1,0,0.2,0,0.3c0.1,0.2-0.1,0.3-0.3,0.3c0,0.1,0.1,0,0.1,0.1c0,0.1,0.1,0.2,0.1,0.2c-0.1,0.1-0.3,0.2-0.2,0.3
	c0.1,0.1,0,0.3,0,0.4c-0.1,0.2-0.2,0.2-0.3,0.3c-0.1,0-0.2,0-0.4,0c0,0-0.1,0-0.1,0c-0.3,0-0.7-0.1-1-0.1c-0.1,0-0.2,0-0.3,0.1
	c-0.1,0.1-0.2,0.1-0.2,0.2c0,0,0,0,0,0c0,0,0,0,0,0c0,0,0,0,0,0c0,0,0,0,0,0c-0.1,0.1-0.1,0.1-0.2,0.2c0,0,0,0,0,0c0,0,0,0,0,0
	C27,18.6,27,18.7,27,18.8c-0.1,0.4-0.1,0.8,0,0.9c0,0,0.6,0.2,1.1,0.4c0.2,0.1,0.3,0.2,0.5,0.2h10.7V10.2z"/>
<path id="Yeux_3_" class="st3" d="M28.9,13.9c0.1,0,0.2,0,0.2,0.1c0,0.2-0.3,0.2-0.4,0.3h-0.1c-0.1,0,0,0.1-0.1,0.1
	c-0.1,0-0.1,0-0.2,0c0.1,0.1,0.2,0.1,0.3,0.1c0,0,0.1,0,0.1,0.1c0,0,0,0,0,0c0,0,0,0,0,0v0.1c-0.1,0.1-0.2,0-0.2,0.1
	c0.2,0,0.3,0,0.4,0c0.1,0,0-0.2,0.1-0.3c0,0,0-0.1,0-0.1c0,0,0.1-0.1,0.1-0.1c0,0,0.1,0,0.1-0.1c0,0-0.1-0.1-0.1-0.1
	c0.1-0.1,0.2-0.2,0.2-0.3c0-0.1-0.2-0.1-0.3-0.1c-0.1,0-0.2,0-0.3,0c-0.1,0-0.2,0.1-0.3,0.1c-0.1,0-0.3,0.1-0.4,0.2
	c0.1-0.1,0.3-0.1,0.4-0.1C28.7,13.9,28.8,13.8,28.9,13.9"/>
</svg>
