<?xml version="1.0" encoding="UTF-8" standalone="no"?>
<svg
   xmlns:dc="http://purl.org/dc/elements/1.1/"
   xmlns:cc="http://creativecommons.org/ns#"
   xmlns:rdf="http://www.w3.org/1999/02/22-rdf-syntax-ns#"
   xmlns:svg="http://www.w3.org/2000/svg"
   xmlns="http://www.w3.org/2000/svg"
   xmlns:sodipodi="http://sodipodi.sourceforge.net/DTD/sodipodi-0.dtd"
   xmlns:inkscape="http://www.inkscape.org/namespaces/inkscape"
   id="78bf026f-5d34-4e97-88cf-29aa2cfb8006"
   data-name="Layer 1"
   width="682.71075"
   height="718.51379"
   viewBox="0 0 682.71074 718.51379"
   version="1.1"
   sodipodi:docname="undraw_interview_rmcf.svg"
   inkscape:version="0.92.4 (5da689c313, 2019-01-14)">
  <metadata
     id="metadata1515">
    <rdf:RDF>
      <cc:Work
         rdf:about="">
        <dc:format>image/svg+xml</dc:format>
        <dc:type
           rdf:resource="http://purl.org/dc/dcmitype/StillImage" />
        <dc:title>interview</dc:title>
      </cc:Work>
    </rdf:RDF>
  </metadata>
  <defs
     id="defs1513" />
  <sodipodi:namedview
     pagecolor="#ffffff"
     bordercolor="#666666"
     borderopacity="1"
     objecttolerance="10"
     gridtolerance="10"
     guidetolerance="10"
     inkscape:pageopacity="0"
     inkscape:pageshadow="2"
     inkscape:window-width="1920"
     inkscape:window-height="1017"
     id="namedview1511"
     showgrid="false"
     fit-margin-top="20"
     fit-margin-left="20"
     fit-margin-right="20"
     fit-margin-bottom="20"
     inkscape:zoom="0.76436921"
     inkscape:cx="286.55046"
     inkscape:cy="231.83487"
     inkscape:window-x="-8"
     inkscape:window-y="-8"
     inkscape:window-maximized="1"
     inkscape:current-layer="78bf026f-5d34-4e97-88cf-29aa2cfb8006" />
  <title
     id="title1166">interview</title>
  <path
     d="m 176.71999,27.358217 c -44.07,-16.76 -90.64,-30.76 -138.18,-29 -69.9,2.58 -137,41.91 -169.86,99.66 -27.88,48.930003 -31.32,106.280003 -43.33,160.580003 -14.78,66.89 -43.14,130.48 -73.42,192.65 -16.26,33.4 -33.42,67.52 -36.09,104.13 -3.7,50.83 22.27,101.48 63,135.29 40.73,33.81 94.82,51.65 149.11,55.54 28.89,2.07 59.08,0.15 84.74,-12.43 27.15,-13.31 46.94,-37.36 74.2,-50.48 25.26,-12.16 54.81,-13.86 83.17,-12.28 a 394.64,394.64 0 0 1 108.58,21.6 c 39.64,13.92 76.5,34.09 116,48.21 39.5,14.12 83.74,22 124.16,10.22 38,-11.07 68,-37.95 95.05,-65.17 a 1155.18,1155.18 0 0 0 121.22,-143.39 c 24.41,-34.21 47.13,-70.3 57.92,-110.17 20.64,-76.23 -7.76,-162.23 -70.75,-214.29 -52.19,-43.13 -122.23,-61.85 -190.79,-73.21 -62.52,-10.36 -134.81,-11 -192.36,-38 -54.88,-25.780003 -104.82,-57.560003 -162.37,-79.460003 z"
     id="path1168"
     inkscape:connector-curvature="0"
     style="opacity:0.1;fill:#ffffff" />
  <polygon
     points="632.58,619 632.58,655.33 642.91,655.33 640.91,616.33 "
     id="polygon1170"
     style="fill:#aaabb0"
     transform="translate(-284.51001,-1.801783)" />
  <polygon
     points="477.41,611.67 477.41,648 487.75,648 485.75,609 "
     id="polygon1172"
     style="fill:#aaabb0"
     transform="translate(-284.51001,-1.801783)" />
  <rect
     x="360.07001"
     y="549.86823"
     width="13.33"
     height="64.669998"
     rx="6.6700001"
     ry="6.6700001"
     id="rect1174"
     style="fill:#aaabb0" />
  <rect
     x="189.06998"
     y="535.52826"
     width="13.33"
     height="79"
     rx="6.6700001"
     ry="6.6700001"
     id="rect1176"
     style="fill:#aaabb0" />
  <path
     d="m 390.40999,162.86822 c 0,0 13.33,-5.67 15.33,0 2,5.67 3,54.67 3,54.67 h -12.67 z"
     id="path1178"
     inkscape:connector-curvature="0"
     style="fill:#aaabb0" />
  <path
     d="m 244.40999,162.86822 c 0,0 -13.34,-5.67 -15.34,0 -2,5.67 -3,54.67 -3,54.67 h 12.67 z"
     id="path1180"
     inkscape:connector-curvature="0"
     style="fill:#aaabb0" />
  <polygon
     points="530.91,116 528.91,156.67 537.91,156.67 537.91,115 "
     id="polygon1182"
     style="fill:#aaabb0"
     transform="translate(-284.51001,-1.801783)" />
  <path
     d="m 238.73999,217.53822 2.67,-58.67 c 0,0 -1,-13 30.66,-9 31.66,4 124.34,12 124.34,12 v 55.67 z"
     id="path1184"
     style="fill:#2a2a2a;fill-opacity:1"
     inkscape:connector-curvature="0" />
  <path
     d="m 365.40999,526.53822 -5,89.66 c 0,0 -73.34,40.67 -162.34,2 l 8,-94.33 z"
     id="path1186"
     style="fill:#2a2a2a;fill-opacity:1"
     inkscape:connector-curvature="0" />
  <polygon
     points="580.25,175.33 581.91,233.33 685.25,233.33 679.25,156.67 "
     id="polygon1188"
     style="fill:#444053"
     transform="translate(-284.51001,-1.801783)" />
  <rect
     x="208.89999"
     y="488.19821"
     width="97.339996"
     height="123.33"
     id="rect1190"
     style="fill:#5770be;fill-opacity:1" />
  <path
     d="m 270.40999,538.53822 c 0,0 14,-11 16.33,-7.67 2.33,3.33 -8.32,17.67 -12.66,16 -4.34,-1.67 -3.67,-8.33 -3.67,-8.33 z"
     id="path1192"
     inkscape:connector-curvature="0"
     style="fill:#ffb9b9" />
  <rect
     x="20"
     y="214.19821"
     width="638.96997"
     height="320"
     id="rect1194"
     style="fill:#383838;fill-opacity:1" />
  <path
     d="m 239.06999,111.86822 c 0,0 -5,-46.670003 0,-52.330003 5,-5.66 89,-59.34 166.67,3.66 0,0 7.33,0.34 6,17 a 200,200 0 0 0 0.16,31.670003 c 0,0 -167.16,12 -172.83,0 z"
     id="path1196"
     inkscape:connector-curvature="0"
     style="fill:#33323d" />
  <path
     d="m 239.06999,111.86822 c 0,0 -5,-46.670003 0,-52.330003 5,-5.66 89,-59.34 166.67,3.66 0,0 7.33,0.34 6,17 a 200,200 0 0 0 0.16,31.670003 c 0,0 -167.16,12 -172.83,0 z"
     id="path1198"
     inkscape:connector-curvature="0"
     style="opacity:0.1" />
  <path
     d="m 239.06999,117.86822 c 0,0 -5,-46.670003 0,-52.330003 5,-5.66 89,-59.34 166.67,3.66 0,0 7.33,0.34 6,17 a 200,200 0 0 0 0.16,31.670003 c 0,0 -167.16,12 -172.83,0 z"
     id="path1200"
     style="fill:#2a2a2a;fill-opacity:1"
     inkscape:connector-curvature="0" />
  <path
     d="m 414.73999,96.538217 c 0,0 5.33,20.000003 3.67,23.330003 -1.66,3.33 -1.36,12.67 -1.36,12.67 0,0 0.36,6 -2.31,6.66 -2.67,0.66 -5,1 -2.84,3 2.16,2 0,5 0,5 0,0 -1.17,4.67 0,7.67 1.17,3 -6.84,4.25 -6.16,8 0.68,3.75 2.92,14.33 0,14.67 -2.92,0.34 1,13.33 -1.63,13.33 -2.63,0 -4.5,23.33 -4.5,23.33 0,0 -18.5,-15.66 -30.83,-11.33 0,0 1,-13 5,-17.67 4,-4.67 2.79,-16.66 2.79,-16.66 l 19.84,-59.67 z"
     id="path1202"
     style="fill:#5770be;fill-opacity:1"
     inkscape:connector-curvature="0" />
  <path
     d="m 315.73999,372.31822 c -4.33,4.79 -9,-20.79 -9,-20.79 0,0 -12.33,17 -20.33,5.67 -5.54,-7.85 -1.17,-30.09 2,-43 1.42,-5.74 2.62,-9.64 2.62,-9.64 l 18,-3 c 0,0 0.06,3.92 0.46,8.68 0.54,6.43 1.71,14.41 4.2,16.32 4.39,3.31 6.39,40.93 2.05,45.76 z"
     id="path1204"
     style="fill:#ff8d7e;fill-opacity:1"
     inkscape:connector-curvature="0" />
  <path
     d="m 306.40999,72.868217 c 0,0 -31.34,-0.33 -39,16.33 -7.66,16.660003 -8,22.340003 -11,25.000003 -3,2.66 32.66,16.67 32.66,16.67 l 1.67,57.33 c 0,0 7,-7.09 18.33,-3.88 11.33,3.21 25.67,0 25.67,0 0,0 -0.67,-1.21 8.67,0 9.34,1.21 39,-14.45 39,-14.45 0,0 0.49,-25.08 -0.17,-30.42 -0.66,-5.34 21.16,-44.580003 21.16,-44.580003 0,0 17,-16.33 -0.66,-22 0,0 -6.25,-9.42 -22.33,-9.33 -16.08,0.09 -74,9.33 -74,9.33 z"
     id="path1206"
     inkscape:connector-curvature="0"
     style="opacity:0.1" />
  <path
     d="m 306.40999,71.868217 c 0,0 -31.34,-0.33 -39,16.33 -7.66,16.660003 -8,22.340003 -11,25.000003 -3,2.66 32.66,16.67 32.66,16.67 l 1.67,57.33 c 0,0 7,-7.09 18.33,-3.88 11.33,3.21 25.67,0 25.67,0 0,0 -0.67,-1.21 8.67,0 9.34,1.21 39,-14.45 39,-14.45 0,0 11.66,-19 11,-24.33 -0.66,-5.33 23.33,-45.670003 23.33,-45.670003 0,0 3.67,-21.33 -14,-27 0,0 -6.25,-9.42 -22.33,-9.33 -16.08,0.09 -74,9.33 -74,9.33 z"
     id="path1208"
     style="fill:#5770be;fill-opacity:1"
     inkscape:connector-curvature="0" />
  <path
     d="m 309.56999,310.20822 c -6.87,-2.14 -17.65,2.58 -21.08,4 1.42,-5.74 2.62,-9.64 2.62,-9.64 l 18,-3 c 0,0 0.03,3.92 0.46,8.64 z"
     id="path1210"
     inkscape:connector-curvature="0"
     style="opacity:0.1" />
  <path
     d="m 266.06999,113.19822 h -9.66 c 0,0 -2,20.34 0,26.34 2,6 3,5.13 2.33,9.57 -0.67,4.44 4.67,11.24 4.67,11.24 0,0 0.66,16.76 4,23 3.34,6.24 -3.67,34.22 -3.67,34.22 a 40.26,40.26 0 0 0 8.33,13 c 5.67,5.66 8.67,26.66 7,34.66 -1.67,8 4.67,11 4.67,11 0,0 2.67,37.34 3.67,37.34 1,0 20.33,-10 26.33,-1.34 l -4.67,-34.33 0.34,-66.33 c 0,0 -6.34,-8.34 -3,-15.67 3.34,-7.33 -2.67,-24.67 -2.67,-24.67 l -8.67,-38.66 z"
     id="path1212"
     style="fill:#5770be;fill-opacity:1"
     inkscape:connector-curvature="0" />
  <path
     d="m 206.06999,640.19822 c 0,0 -14,-3 -14.33,0 -0.33,3 -16.67,33.67 3.67,42.67 20.34,9 74.66,28.33 163,3.33 0,0 5.66,2 4.33,-10.33 -1.33,-12.33 -1.33,-26 -1.33,-26 0,0 -13.34,-3.67 -23.34,-2.33 -10,1.34 -97,19 -132,-7.34 z"
     id="path1214"
     inkscape:connector-curvature="0"
     style="fill:#33323d" />
  <path
     d="m 206.06999,640.19822 c 0,0 -14,-3 -14.33,0 -0.33,3 -16.67,33.67 3.67,42.67 20.34,9 74.66,28.33 163,3.33 0,0 5.66,2 4.33,-10.33 -1.33,-12.33 -1.33,-26 -1.33,-26 0,0 -13.34,-3.67 -23.34,-2.33 -10,1.34 -97,19 -132,-7.34 z"
     id="path1216"
     inkscape:connector-curvature="0"
     style="opacity:0.1" />
  <path
     d="m 206.06999,636.19822 c 0,0 -14,-3 -14.33,0 -0.33,3 -16.67,33.67 3.67,42.67 20.34,9 74.66,28.33 163,3.33 0,0 5.66,2 4.33,-10.33 -1.33,-12.33 -1.33,-26 -1.33,-26 0,0 -13.34,-3.67 -23.34,-2.33 -10,1.34 -97,19 -132,-7.34 z"
     id="path1218"
     style="fill:#2a2a2a;fill-opacity:1"
     inkscape:connector-curvature="0" />
  <path
     d="m 287.70999,125.17822 c -0.86,4.89 -2.81,9.59 -3.11,14.54 -0.3,4.95 1.61,10.58 6.18,12.52 a 20.83,20.83 0 0 1 3.69,1.5 c 1.76,1.19 2.48,3.43 2.85,5.53 a 30.2,30.2 0 0 1 0.35,8.22 c -0.25,2.76 -0.84,5.73 0.52,8.14 2.39,4.27 8.62,3.64 13.36,2.44 l -1.63,12.63 c -0.13,1 -0.21,2.13 0.52,2.81 a 3.15,3.15 0 0 0 2.4,0.52 c 4.12,-0.26 8.36,-0.83 11.89,-3 3.53,-2.17 6.16,-6.21 5.49,-10.28 -0.78,-4.72 -5.66,-8.47 -5,-13.21 0.51,-3.67 4.1,-6 6.46,-8.82 4.27,-5.16 4.5,-13 1.15,-18.84 -3.35,-5.84 -9.82,-9.46 -16.48,-10.12 -3.69,-0.37 -7.53,0.08 -11,-1.2 a 8.34,8.34 0 0 1 -5.1,-5.38"
     id="path1220"
     style="fill:#484d7f;fill-opacity:0.94117647"
     inkscape:connector-curvature="0" />
  <path
     d="m 171.40999,569.86822 3.49,-7.6 c 0,0 18.84,-17.55 23.17,-18.78 4.33,-1.23 22,-6.59 24.67,-6.59 2.67,0 51.34,-2.67 51.34,-2.67 l 5.66,13.34 -61.08,13.41 -20.59,15 z"
     id="path1222"
     style="fill:#91ae4f;fill-opacity:1"
     inkscape:connector-curvature="0" />
  <path
     d="m 318.15999,365.19822 -3.19,24.55 -1.23,9.45 -14.33,2 c 0,0 -1.55,-3.32 -3.74,-8.42 -6.65,-15.48 -19.17,-47.4 -11.91,-52.91 9.65,-7.34 12,17 12,17 l 11,-5.34 z"
     id="path1224"
     inkscape:connector-curvature="0"
     style="fill:#ffb9b9" />
  <rect
     x="243.39996"
     y="410.86823"
     width="72.370003"
     height="109.33"
     id="rect1226"
     style="fill:#ffffff" />
  <rect
     x="243.39996"
     y="410.86823"
     width="72.370003"
     height="109.33"
     id="rect1228"
     style="opacity:0.1" />
  <rect
     x="333.13895"
     y="361.36569"
     width="72.370003"
     height="109.33"
     transform="rotate(8.41)"
     id="rect1230"
     style="fill:#ffffff" />
  <rect
     x="341.31439"
     y="370.58377"
     width="37.25"
     height="56.27"
     transform="rotate(8.41)"
     id="rect1232"
     style="fill:#ffffff" />
  <rect
     x="339.72308"
     y="443.10233"
     width="45.130001"
     height="12.22"
     transform="rotate(8.41)"
     id="rect1234"
     style="fill:#ffffff" />
  <circle
     cx="334.73999"
     cy="93.198219"
     r="41.830002"
     id="circle1236"
     style="opacity:0.1" />
  <circle
     cx="334.73999"
     cy="92.198219"
     r="41.830002"
     id="circle1238"
     style="fill:#ff8d7e;fill-opacity:1" />
  <path
     d="m 300.24999,123.19822 a 4.76,4.76 0 0 1 0.29,-3.23 c 1.59,-3.31 6.12,-3.6 9.79,-3.43 8.63,0.4 18.1,0.45 24.85,-5 2.8,-2.24 5.93,-7.87 10,-6.8 3.62,0.95 5.13,5.86 8.9,6.95 2.73,0.79 5.56,-0.47 8.34,-1 4,-0.79 8.1,-0.13 12.16,-0.1 4.06,0.03 8.47,-0.74 11.24,-3.71 3.74,-4 3.13,-10.250003 2.8,-15.730003 a 84.69,84.69 0 0 1 1.43,-21.14 c 1.36,-6.92 3.45,-14.66 -0.37,-20.59 -3.64,-5.65 -11.18,-7.2 -16.33,-11.53 -4.82,-4 -7.37,-10.41 -12.46,-14.12 -6.41,-4.67 -15.12,-4 -23,-3.19 l -17.1,1.82 c -4.41,0.47 -9,1 -12.63,3.63 -6.55,4.74 -7.45,14.59 -13.65,19.78 -2.76,2.3 -6.29,3.44 -9.44,5.16 -3.15,1.72 -6.19,4.44 -6.55,8 -0.3,3 1.32,5.77 2.11,8.66 1.87,6.9 -1.05,14 -2.92,20.95 -1.87,6.95 -2.23,15.390003 3.2,20.000003 1.1,0.94 2.38,1.66 3.45,2.64 3.67,3.35 4.17,9 3.32,13.88"
     id="path1240"
     style="fill:#484d7a;fill-opacity:1"
     inkscape:connector-curvature="0" />
  <ellipse
     cx="338.14996"
     cy="141.94821"
     rx="1"
     ry="2.5"
     id="ellipse1242"
     style="fill:#444053" />
  <ellipse
     cx="338.14996"
     cy="152.36821"
     rx="1"
     ry="2.5"
     id="ellipse1244"
     style="fill:#444053" />
  <path
     d="m 315.96999,372.24822 c 1.07,-1.23 1.78,-4.39 2.19,-8.56 l -11.92,-14.86 c 0,0 5.05,28.81 9.73,23.42 z"
     id="path1246"
     style="fill:#ff8d7e;fill-opacity:1"
     inkscape:connector-curvature="0" />
  <path
     d="m 329.40999,617.86822 c 0,0 -19.56,30.24 -80.67,27 -57.57,-3 -85.67,-31.33 -84.33,-41.33 1.34,-10 -3.67,-34.34 8.66,-41.34 7.15,-4.05 16.56,-1.65 23.2,1.09 a 13.1,13.1 0 0 0 13.77,-2.47 c 6.07,-5.47 17.39,-11.63 35.26,-6.78 a 12.7,12.7 0 0 0 7,-0.13 c 7.44,-2.27 25.15,-6.21 38,2.54 a 13,13 0 0 0 13.92,0.53 l 0.18,-0.11 c 6,-3.67 34,31 34,31 0,0 1.34,26.67 -8.99,30 z"
     id="path1248"
     inkscape:connector-curvature="0"
     style="opacity:0.1" />
  <path
     d="m 329.40999,618.86822 c 0,0 -19.56,30.24 -80.67,27 -57.57,-3 -85.67,-31.33 -84.33,-41.33 1.34,-10 -3.67,-34.34 8.66,-41.34 7.15,-4.05 16.56,-1.65 23.2,1.09 a 13.1,13.1 0 0 0 13.77,-2.47 c 6.07,-5.47 17.39,-11.63 35.26,-6.78 a 12.7,12.7 0 0 0 7,-0.13 c 7.44,-2.27 25.15,-6.21 38,2.54 a 13,13 0 0 0 13.92,0.53 l 0.18,-0.11 c 6,-3.67 34,31 34,31 0,0 1.34,26.67 -8.99,30 z"
     id="path1250"
     style="fill:#91ae4f;fill-opacity:1"
     inkscape:connector-curvature="0" />
  <circle
     cx="248.73999"
     cy="590.86823"
     r="39.84"
     id="circle1252"
     style="opacity:0.1" />
  <circle
     cx="248.73999"
     cy="591.86823"
     r="39.84"
     id="circle1254"
     style="fill:#ffb9b9" />
  <path
     d="m 237.31999,557.42822 c -4.18,1.13 -8.3,3.29 -10.34,6.84 -1.23,2.14 -1.66,4.71 -3.44,6.49 -2.52,2.53 -6.77,2.58 -10.18,4 -3.41,1.42 -5.66,6.42 -2.32,8 -3.48,0.18 -6.06,3.39 -6.49,6.58 -0.43,3.19 0.78,6.37 1.95,9.41 3.82,9.84 7.93,20.11 16.35,27.11 13.72,11.42 34.4,10.89 52.83,9.68 a 8.64,8.64 0 0 0 4.33,-1 c 2,-1.32 2.25,-3.85 2.58,-6.07 1.39,-9.48 6.53,-18.09 9.89,-27.14 3.36,-9.05 4.74,-19.68 -0.92,-27.69 -8.33,-11.88 -40.22,-20.01 -54.24,-16.21 z"
     id="path1256"
     style="fill:#ffc29e;fill-opacity:1"
     inkscape:connector-curvature="0" />
  <path
     d="m 314.96999,389.74822 -1.23,9.45 -14.33,2 c 0,0 -1.55,-3.32 -3.74,-8.42 l 19.07,-3.58 z"
     id="path1258"
     inkscape:connector-curvature="0"
     style="opacity:0.1" />
  <path
     d="m 330.06999,598.53822 8.34,-9.67 -1.67,-53.33 a 86.51,86.51 0 0 0 1.67,-11.67 c 0.33,-5.67 -4.17,-18.33 -4.17,-18.33 a 39.71,39.71 0 0 1 2.83,-7.34 c 2,-4 -2.82,-13 -2.82,-13 0,0 -7.18,-23.33 -4.18,-35 3,-11.67 -0.73,-18.33 -0.73,-18.33 0,0 -2.93,-13 -2.6,-18.33 0.33,-5.33 -6.67,-10.34 -6.67,-10.34 l -5.33,-13 -21.33,4 v 45 c 0,0 1.33,43 0,51.34 -1.33,8.34 2.66,16.33 2.66,16.33 0,0 -2.33,12.33 -0.33,17 2,4.67 6,16 6,16 a 26,26 0 0 0 0.67,12.16 c 2,5.84 0,9.17 0,9.17 z"
     id="path1260"
     style="fill:#91ae4f;fill-opacity:1"
     inkscape:connector-curvature="0" />
  <g
     id="g1270"
     style="opacity:0.1"
     transform="translate(-284.51001,-1.801783)">
    <path
       d="M 732.51,139.23 A 84.66,84.66 0 0 0 731,157 a 85.07,85.07 0 0 1 1.55,-14.76 c 0.88,-4.44 2,-9.22 1.76,-13.65 a 83,83 0 0 1 -1.8,10.64 z"
       transform="translate(-57.92,-70.71)"
       id="path1262"
       inkscape:connector-curvature="0" />
    <path
       d="m 626.82,180.51 c -1.07,-1 -2.35,-1.7 -3.45,-2.65 -2.92,-2.49 -4.15,-6.1 -4.39,-10 -0.29,5 0.73,9.84 4.39,13 1.1,0.95 2.38,1.67 3.45,2.65 a 12.22,12.22 0 0 1 3.62,8.35 c 0.29,-4.2 -0.56,-8.57 -3.62,-11.35 z"
       transform="translate(-57.92,-70.71)"
       id="path1264"
       inkscape:connector-curvature="0" />
    <path
       d="m 623.63,143.17 a 18.85,18.85 0 0 0 -0.54,-6.29 c -0.58,-2.14 -1.62,-4.23 -2,-6.38 0,0.23 -0.08,0.47 -0.11,0.72 -0.29,3 1.33,5.77 2.11,8.66 a 17,17 0 0 1 0.54,3.29 z"
       transform="translate(-57.92,-70.71)"
       id="path1266"
       inkscape:connector-curvature="0" />
    <path
       d="m 728.28,176.1 c -2.77,3 -7.18,3.74 -11.24,3.71 -4.06,-0.03 -8.17,-0.69 -12.16,0.11 -2.78,0.56 -5.61,1.81 -8.34,1 -3.77,-1.09 -5.28,-6 -8.89,-6.95 -4.11,-1.08 -7.24,4.55 -10,6.79 -6.75,5.4 -16.22,5.35 -24.85,5 -3.67,-0.17 -8.2,0.12 -9.78,3.44 a 4.64,4.64 0 0 0 -0.29,3.23 l -12.22,1.92 a 23.71,23.71 0 0 1 -0.33,3 l 12.55,-2 a 4.64,4.64 0 0 1 0.29,-3.23 c 1.58,-3.32 6.11,-3.61 9.78,-3.44 8.63,0.4 18.1,0.45 24.85,-5 2.8,-2.24 5.93,-7.87 10,-6.79 3.61,0.94 5.12,5.86 8.89,6.95 2.73,0.78 5.56,-0.47 8.34,-1 4,-0.8 8.1,-0.14 12.16,-0.11 4.06,0.03 8.47,-0.74 11.24,-3.71 2.77,-2.97 3.17,-7.4 3,-11.72 -0.12,3.35 -0.81,6.45 -3,8.8 z"
       transform="translate(-57.92,-70.71)"
       id="path1268"
       inkscape:connector-curvature="0" />
  </g>
  <g
     id="g1280"
     style="opacity:0.1"
     transform="translate(-284.51001,-1.801783)">
    <path
       d="m 635.71,224.13 a 20.23,20.23 0 0 0 -3.69,-1.5 9.55,9.55 0 0 1 -4.83,-4.94 c 0.75,3.45 2.65,6.59 5.83,7.94 a 20.23,20.23 0 0 1 3.69,1.5 5.54,5.54 0 0 1 1.77,2.07 c -0.4,-1.96 -1.13,-3.96 -2.77,-5.07 z"
       transform="translate(-57.92,-70.71)"
       id="path1272"
       inkscape:connector-curvature="0" />
    <path
       d="m 652.79,248.46 c -4.61,1.17 -10.63,1.78 -13.16,-2.13 a 6.87,6.87 0 0 0 0.8,2.69 c 2.16,3.85 7.44,3.72 11.93,2.77 z"
       transform="translate(-57.92,-70.71)"
       id="path1274"
       inkscape:connector-curvature="0" />
    <path
       d="m 671.47,251.2 c 0.64,4.06 -2,8.11 -5.5,10.24 -3.5,2.13 -7.77,2.72 -11.89,3 a 4.08,4.08 0 0 1 -1.94,-0.22 2.38,2.38 0 0 0 2.94,3.22 c 4.12,-0.26 8.36,-0.83 11.89,-3 3.53,-2.17 6.17,-6.21 5.49,-10.28 a 11.34,11.34 0 0 0 -0.99,-2.96 z"
       transform="translate(-57.92,-70.71)"
       id="path1276"
       inkscape:connector-curvature="0" />
    <path
       d="m 675.91,215 a 16.46,16.46 0 0 1 -3,14.15 c -2.36,2.86 -5.95,5.15 -6.46,8.82 a 8.33,8.33 0 0 0 1,4.87 6.5,6.5 0 0 1 0,-1.87 c 0.51,-3.67 4.1,-6 6.46,-8.82 3.88,-4.69 4.42,-11.6 2,-17.15 z"
       transform="translate(-57.92,-70.71)"
       id="path1278"
       inkscape:connector-curvature="0" />
  </g>
  <g
     id="g1286"
     style="opacity:0.1"
     transform="translate(-284.51001,-1.801783)">
    <path
       d="m 555.8,648.81 c 3.4,-1.41 7.65,-1.46 10.18,-4 1.78,-1.78 2.21,-4.35 3.44,-6.48 2,-3.56 6.15,-5.71 10.33,-6.84 14,-3.8 45.92,4.32 54.24,16.09 a 21.85,21.85 0 0 1 3.82,12.08 22.58,22.58 0 0 0 -3.81,-14.07 c -8.32,-11.77 -40.21,-19.89 -54.24,-16.09 -4.18,1.13 -8.3,3.28 -10.33,6.84 -1.23,2.13 -1.66,4.7 -3.44,6.48 -2.53,2.53 -6.78,2.58 -10.18,4 -2.59,1.07 -4.51,4.23 -3.81,6.35 a 6.88,6.88 0 0 1 3.8,-4.36 z"
       transform="translate(-57.92,-70.71)"
       id="path1282"
       inkscape:connector-curvature="0" />
    <path
       d="m 547,663.34 c 0.42,-3.2 3,-6.4 6.49,-6.58 a 2.66,2.66 0 0 1 -1.53,-1.71 7.77,7.77 0 0 0 -5,6.29 10.57,10.57 0 0 0 0,2.45 c 0.04,-0.15 0.04,-0.3 0.04,-0.45 z"
       transform="translate(-57.92,-70.71)"
       id="path1284"
       inkscape:connector-curvature="0" />
  </g>
  <rect
     x="325.39996"
     y="228.43822"
     width="91"
     height="118.67"
     id="rect1288"
     style="fill:#ffffff" />
  <rect
     x="325.39996"
     y="228.43822"
     width="91"
     height="118.67"
     id="rect1290"
     style="opacity:0.1" />
  <rect
     x="313.73309"
     y="308.47601"
     width="91"
     height="118.67"
     transform="rotate(-9.76)"
     id="rect1292"
     style="fill:#ffffff" />
  <rect
     x="321.63901"
     y="390.73315"
     width="21.379999"
     height="27.879999"
     transform="rotate(-9.76)"
     id="rect1294"
     style="fill:#ffffff" />
  <rect
     x="351.22504"
     y="390.72797"
     width="21.379999"
     height="27.879999"
     transform="rotate(-9.76)"
     id="rect1296"
     style="fill:#ffffff" />
  <rect
     x="324.86133"
     y="354.43378"
     width="74.975128"
     height="28.005178"
     transform="rotate(-9.7436413)"
     id="rect1298"
     style="fill:#ffffff;stroke-width:1.0044899" />
  <rect
     x="324.36606"
     y="320.92444"
     width="74.975128"
     height="6.2479272"
     transform="rotate(-9.7436413)"
     id="rect1300"
     style="fill:#ffffff;stroke-width:1.0044899" />
  <rect
     x="324.83749"
     y="332.49872"
     width="74.975128"
     height="6.2479272"
     transform="rotate(-9.7436413)"
     id="rect1302"
     style="fill:#ffffff;stroke-width:1.0044899" />
  <path
     d="m 376.56999,196.19822 c 0,0 -41.83,42 -20.83,52.67 21,10.67 34.67,-35.5 34.67,-35.5 l 3.32,-10.5 z"
     id="path1304"
     style="fill:#ff8d7e;fill-opacity:1"
     inkscape:connector-curvature="0" />
  <path
     d="m 372.90999,192.48822 -5.17,11.42 c 0,0 25.5,3.58 30.83,11.29 l -3.16,-20.15 -3.75,-8.6 z"
     id="path1306"
     inkscape:connector-curvature="0"
     style="opacity:0.1" />
  <path
     d="m 373.90999,191.48822 -5.17,11.42 c 0,0 25.5,3.58 30.83,11.29 l -3.16,-20.15 -3.75,-8.6 z"
     id="path1308"
     style="fill:#5770be;fill-opacity:1"
     inkscape:connector-curvature="0" />
  <polygon
     points="813.81,403.91 813.91,403.34 812.78,403.26 812.23,403.64 812.99,403.98 "
     id="polygon1310"
     style="fill:#464a5f"
     transform="translate(-284.51001,-1.801783)" />
  <polygon
     points="813.81,403.91 813.91,403.34 812.78,403.26 812.23,403.64 812.99,403.98 "
     id="polygon1312"
     style="opacity:0.1"
     transform="translate(-284.51001,-1.801783)" />
  <polygon
     points="812.05,402.64 812.3,402.56 812.78,403.26 812.22,403.62 811.78,403.08 "
     id="polygon1314"
     style="fill:#9c9ca1"
     transform="translate(-284.51001,-1.801783)" />
  <polygon
     points="812.05,402.64 812.3,402.56 812.78,403.26 812.22,403.62 811.78,403.08 "
     id="polygon1316"
     style="opacity:0.1"
     transform="translate(-284.51001,-1.801783)" />
  <path
     d="m 626.69999,332.34822 -40.94,-59.13 a 4.87,4.87 0 0 0 -6.78,-1.25 l -91.26,62.64 a 4.89,4.89 0 0 0 -1.27,6.79 l 40.83,59.88 z"
     id="path1318"
     inkscape:connector-curvature="0"
     style="fill:#9c9ca1" />
  <path
     d="m 626.69999,332.34822 -40.94,-59.13 a 4.87,4.87 0 0 0 -6.78,-1.25 l -91.26,62.64 a 4.89,4.89 0 0 0 -1.27,6.79 l 40.83,59.88 z"
     id="path1320"
     inkscape:connector-curvature="0"
     style="opacity:0.1" />
  <path
     d="m 627.69999,332.48822 -40.94,-59.13 a 4.88,4.88 0 0 0 -6.79,-1.25 l -91.25,62.68 a 4.9,4.9 0 0 0 -1.28,6.79 l 40.83,59.91 z"
     id="path1322"
     inkscape:connector-curvature="0"
     style="fill:#9c9ca1" />
  <path
     d="m 661.91999,344.17822 -34,-10.92 -99.44,68.93 34.54,11.3 a 5.23,5.23 0 0 0 4.63,-0.7 l 94.55,-66.76 a 1,1 0 0 0 -0.28,-1.85 z"
     id="path1324"
     inkscape:connector-curvature="0"
     style="fill:#464a5f" />
  <path
     d="m 661.91999,344.17822 -34,-10.92 -99.44,68.93 34.54,11.3 a 5.23,5.23 0 0 0 4.63,-0.7 l 94.55,-66.76 a 1,1 0 0 0 -0.28,-1.85 z"
     id="path1326"
     inkscape:connector-curvature="0"
     style="opacity:0.1" />
  <path
     d="m 661.70999,343.48822 -34,-10.93 -99.44,68.93 34.54,11.28 a 5.19,5.19 0 0 0 4.63,-0.69 l 94.55,-66.76 a 1,1 0 0 0 -0.28,-1.83 z"
     id="path1328"
     inkscape:connector-curvature="0"
     style="fill:#464a5f" />
  <g
     id="g1416"
     style="opacity:0.1"
     transform="translate(-284.51001,-1.801783)">
    <path
       d="m 954.07,402.36 -2.51,-3.6 a 1,1 0 0 0 -1.36,-0.25 l -3.73,2.49 a 1,1 0 0 0 -0.27,1.35 l 2.31,3.55 a 1,1 0 0 0 1.35,0.29 l 3.93,-2.47 a 1,1 0 0 0 0.28,-1.36 z"
       transform="translate(-57.92,-70.71)"
       id="path1330"
       inkscape:connector-curvature="0" />
    <path
       d="m 947.37,407 -2.52,-3.59 a 1,1 0 0 0 -1.36,-0.25 l -3.72,2.51 a 1,1 0 0 0 -0.28,1.35 l 2.31,3.55 a 1,1 0 0 0 1.35,0.3 l 3.94,-2.47 a 1,1 0 0 0 0.28,-1.4 z"
       transform="translate(-57.92,-70.71)"
       id="path1332"
       inkscape:connector-curvature="0" />
    <path
       d="m 940.33,411.87 -2.52,-3.59 a 1,1 0 0 0 -1.36,-0.25 l -3.73,2.51 a 1,1 0 0 0 -0.27,1.36 l 2.31,3.55 a 1,1 0 0 0 1.35,0.29 l 3.93,-2.47 a 1,1 0 0 0 0.29,-1.4 z"
       transform="translate(-57.92,-70.71)"
       id="path1334"
       inkscape:connector-curvature="0" />
    <path
       d="m 933.2,416.81 -2.52,-3.6 a 1,1 0 0 0 -1.35,-0.25 l -3.73,2.52 a 1,1 0 0 0 -0.27,1.35 l 2.31,3.55 a 1,1 0 0 0 1.34,0.3 l 3.94,-2.48 a 1,1 0 0 0 0.28,-1.39 z"
       transform="translate(-57.92,-70.71)"
       id="path1336"
       inkscape:connector-curvature="0" />
    <path
       d="m 926.08,421.74 -2.52,-3.59 a 1,1 0 0 0 -1.36,-0.25 l -3.72,2.51 a 1,1 0 0 0 -0.28,1.35 l 2.31,3.55 a 1,1 0 0 0 1.35,0.3 l 3.94,-2.48 a 1,1 0 0 0 0.28,-1.39 z"
       transform="translate(-57.92,-70.71)"
       id="path1338"
       inkscape:connector-curvature="0" />
    <path
       d="m 919.27,427.12 -3.13,-4.46 a 0.45,0.45 0 0 0 -0.63,-0.12 l -4.58,3.09 a 0.45,0.45 0 0 0 -0.13,0.63 l 2.87,4.41 a 0.46,0.46 0 0 0 0.63,0.14 l 4.84,-3 a 0.46,0.46 0 0 0 0.13,-0.69 z"
       transform="translate(-57.92,-70.71)"
       id="path1340"
       inkscape:connector-curvature="0" />
    <path
       d="M 912.15,432.05 909,427.59 a 0.46,0.46 0 0 0 -0.64,-0.12 l -4.58,3.09 a 0.46,0.46 0 0 0 -0.12,0.63 l 2.87,4.41 a 0.44,0.44 0 0 0 0.63,0.14 l 4.83,-3 a 0.45,0.45 0 0 0 0.16,-0.69 z"
       transform="translate(-57.92,-70.71)"
       id="path1342"
       inkscape:connector-curvature="0" />
    <path
       d="M 905.84,436.42 902.71,432 a 0.46,0.46 0 0 0 -0.63,-0.11 l -4.58,3.08 a 0.47,0.47 0 0 0 -0.13,0.64 l 2.87,4.41 a 0.47,0.47 0 0 0 0.63,0.14 l 4.84,-3 a 0.46,0.46 0 0 0 0.13,-0.74 z"
       transform="translate(-57.92,-70.71)"
       id="path1344"
       inkscape:connector-curvature="0" />
    <path
       d="m 898.78,441.3 -3.13,-4.46 a 0.46,0.46 0 0 0 -0.63,-0.11 l -4.58,3.08 a 0.46,0.46 0 0 0 -0.13,0.64 l 2.87,4.41 a 0.47,0.47 0 0 0 0.63,0.14 l 4.84,-3 a 0.47,0.47 0 0 0 0.13,-0.7 z"
       transform="translate(-57.92,-70.71)"
       id="path1346"
       inkscape:connector-curvature="0" />
    <path
       d="m 891.94,446 -3.13,-4.46 a 0.45,0.45 0 0 0 -0.63,-0.12 l -4.58,3.09 a 0.45,0.45 0 0 0 -0.13,0.63 l 2.87,4.41 a 0.46,0.46 0 0 0 0.63,0.14 l 4.84,-3 a 0.46,0.46 0 0 0 0.13,-0.69 z"
       transform="translate(-57.92,-70.71)"
       id="path1348"
       inkscape:connector-curvature="0" />
    <path
       d="m 885.1,450.78 -3.1,-4.47 a 0.46,0.46 0 0 0 -0.63,-0.11 l -4.58,3.08 a 0.46,0.46 0 0 0 -0.13,0.64 l 2.87,4.41 a 0.47,0.47 0 0 0 0.63,0.14 l 4.84,-3 a 0.46,0.46 0 0 0 0.1,-0.69 z"
       transform="translate(-57.92,-70.71)"
       id="path1350"
       inkscape:connector-curvature="0" />
    <path
       d="m 878.26,455.51 -3.13,-4.46 a 0.45,0.45 0 0 0 -0.63,-0.12 l -4.58,3.07 a 0.45,0.45 0 0 0 -0.13,0.63 l 2.87,4.41 a 0.46,0.46 0 0 0 0.63,0.14 l 4.84,-3 a 0.46,0.46 0 0 0 0.13,-0.67 z"
       transform="translate(-57.92,-70.71)"
       id="path1352"
       inkscape:connector-curvature="0" />
    <path
       d="m 949.57,395.85 -2.52,-3.6 A 1,1 0 0 0 945.69,392 l -3.69,2.52 a 1,1 0 0 0 -0.28,1.35 l 2.31,3.55 a 1,1 0 0 0 1.35,0.29 l 3.94,-2.47 a 1,1 0 0 0 0.25,-1.39 z"
       transform="translate(-57.92,-70.71)"
       id="path1354"
       inkscape:connector-curvature="0" />
    <path
       d="M 939.72,381.62 937.2,378 a 1,1 0 0 0 -1.35,-0.25 l -3.73,2.51 a 1,1 0 0 0 -0.28,1.35 l 2.31,3.55 a 1,1 0 0 0 1.35,0.3 l 3.94,-2.47 a 1,1 0 0 0 0.28,-1.37 z"
       transform="translate(-57.92,-70.71)"
       id="path1356"
       inkscape:connector-curvature="0" />
    <path
       d="m 942.86,400.49 -2.52,-3.59 a 1,1 0 0 0 -1.35,-0.25 l -3.73,2.51 a 1,1 0 0 0 -0.27,1.35 l 2.3,3.55 a 1,1 0 0 0 1.35,0.3 l 3.94,-2.47 a 1,1 0 0 0 0.28,-1.4 z"
       transform="translate(-57.92,-70.71)"
       id="path1358"
       inkscape:connector-curvature="0" />
    <path
       d="m 935.82,405.36 -2.52,-3.59 a 1,1 0 0 0 -1.36,-0.25 l -3.72,2.48 a 1,1 0 0 0 -0.28,1.36 l 2.31,3.55 a 1,1 0 0 0 1.35,0.29 l 3.94,-2.47 a 1,1 0 0 0 0.28,-1.37 z"
       transform="translate(-57.92,-70.71)"
       id="path1360"
       inkscape:connector-curvature="0" />
    <path
       d="m 928.69,410.3 -2.51,-3.6 a 1,1 0 0 0 -1.36,-0.25 l -3.73,2.55 a 1,1 0 0 0 -0.27,1.35 l 2.31,3.55 a 1,1 0 0 0 1.35,0.29 l 3.93,-2.47 a 1,1 0 0 0 0.28,-1.42 z"
       transform="translate(-57.92,-70.71)"
       id="path1362"
       inkscape:connector-curvature="0" />
    <path
       d="m 933.17,386.49 -2.52,-3.59 a 1,1 0 0 0 -1.35,-0.25 l -3.73,2.51 a 1,1 0 0 0 -0.28,1.35 l 2.31,3.55 a 1,1 0 0 0 1.35,0.3 l 3.94,-2.47 a 1,1 0 0 0 0.28,-1.4 z"
       transform="translate(-57.92,-70.71)"
       id="path1364"
       inkscape:connector-curvature="0" />
    <path
       d="m 926.13,391.37 -2.52,-3.6 a 1,1 0 0 0 -1.36,-0.25 l -3.72,2.48 a 1,1 0 0 0 -0.28,1.35 l 2.31,3.55 a 1,1 0 0 0 1.35,0.29 l 3.94,-2.47 a 1,1 0 0 0 0.28,-1.35 z"
       transform="translate(-57.92,-70.71)"
       id="path1366"
       inkscape:connector-curvature="0" />
    <path
       d="m 919,396.3 -2.52,-3.59 a 1,1 0 0 0 -1.35,-0.26 L 911.4,395 a 1,1 0 0 0 -0.27,1.35 l 2.31,3.55 a 1,1 0 0 0 1.35,0.3 l 3.93,-2.48 A 1,1 0 0 0 919,396.3 Z"
       transform="translate(-57.92,-70.71)"
       id="path1368"
       inkscape:connector-curvature="0" />
    <path
       d="m 921.57,415.23 -2.52,-3.59 a 1,1 0 0 0 -1.35,-0.26 l -3.7,2.52 a 1,1 0 0 0 -0.27,1.35 l 2.27,3.55 a 1,1 0 0 0 1.34,0.3 l 3.94,-2.48 a 1,1 0 0 0 0.29,-1.39 z"
       transform="translate(-57.92,-70.71)"
       id="path1370"
       inkscape:connector-curvature="0" />
    <path
       d="m 914.45,420.16 -2.52,-3.59 a 1,1 0 0 0 -1.36,-0.25 l -3.72,2.51 a 1,1 0 0 0 -0.28,1.35 l 2.31,3.55 a 1,1 0 0 0 1.35,0.3 l 3.94,-2.47 a 1,1 0 0 0 0.28,-1.4 z"
       transform="translate(-57.92,-70.71)"
       id="path1372"
       inkscape:connector-curvature="0" />
    <path
       d="m 907.64,425.54 -3.13,-4.46 a 0.45,0.45 0 0 0 -0.63,-0.12 l -4.58,3.09 a 0.45,0.45 0 0 0 -0.13,0.63 l 2.87,4.41 a 0.45,0.45 0 0 0 0.63,0.14 l 4.84,-3 a 0.46,0.46 0 0 0 0.13,-0.69 z"
       transform="translate(-57.92,-70.71)"
       id="path1374"
       inkscape:connector-curvature="0" />
    <path
       d="m 901.33,429.91 -3.13,-4.47 a 0.46,0.46 0 0 0 -0.63,-0.11 l -4.57,3.08 a 0.47,0.47 0 0 0 -0.13,0.64 l 2.87,4.41 a 0.47,0.47 0 0 0 0.63,0.14 l 4.84,-3 a 0.44,0.44 0 0 0 0.12,-0.69 z"
       transform="translate(-57.92,-70.71)"
       id="path1376"
       inkscape:connector-curvature="0" />
    <path
       d="m 894.27,434.79 -3.13,-4.46 a 0.46,0.46 0 0 0 -0.63,-0.11 l -4.58,3.08 a 0.45,0.45 0 0 0 -0.13,0.63 l 2.87,4.42 a 0.47,0.47 0 0 0 0.63,0.14 l 4.84,-3 a 0.47,0.47 0 0 0 0.13,-0.7 z"
       transform="translate(-57.92,-70.71)"
       id="path1378"
       inkscape:connector-curvature="0" />
    <path
       d="m 887.43,439.53 -3.13,-4.46 a 0.45,0.45 0 0 0 -0.63,-0.12 l -4.58,3.05 a 0.45,0.45 0 0 0 -0.13,0.63 l 2.87,4.41 a 0.46,0.46 0 0 0 0.63,0.14 l 4.84,-3 a 0.46,0.46 0 0 0 0.13,-0.65 z"
       transform="translate(-57.92,-70.71)"
       id="path1380"
       inkscape:connector-curvature="0" />
    <path
       d="M 931.13,398.59 928.61,395 a 1,1 0 0 0 -1.35,-0.25 l -3.73,2.52 a 1,1 0 0 0 -0.27,1.35 l 2.31,3.55 a 1,1 0 0 0 1.34,0.29 l 3.94,-2.47 a 1,1 0 0 0 0.28,-1.4 z"
       transform="translate(-57.92,-70.71)"
       id="path1382"
       inkscape:connector-curvature="0" />
    <path
       d="m 924,403.53 -2.52,-3.6 a 1,1 0 0 0 -1.36,-0.25 l -3.72,2.52 a 1,1 0 0 0 -0.28,1.35 l 2.31,3.55 a 1,1 0 0 0 1.35,0.3 l 3.94,-2.48 a 1,1 0 0 0 0.28,-1.39 z"
       transform="translate(-57.92,-70.71)"
       id="path1384"
       inkscape:connector-curvature="0" />
    <path
       d="m 916.89,408.46 -2.52,-3.59 a 1,1 0 0 0 -1.36,-0.25 l -3.73,2.51 a 1,1 0 0 0 -0.27,1.35 l 2.31,3.55 a 1,1 0 0 0 1.35,0.3 l 3.93,-2.48 a 1,1 0 0 0 0.29,-1.39 z"
       transform="translate(-57.92,-70.71)"
       id="path1386"
       inkscape:connector-curvature="0" />
    <path
       d="m 909.76,413.39 -2.52,-3.59 a 1,1 0 0 0 -1.35,-0.25 l -3.73,2.51 a 1,1 0 0 0 -0.27,1.35 l 2.31,3.59 a 1,1 0 0 0 1.34,0.3 l 3.94,-2.47 a 1,1 0 0 0 0.28,-1.44 z"
       transform="translate(-57.92,-70.71)"
       id="path1388"
       inkscape:connector-curvature="0" />
    <path
       d="m 903,418.77 -3.13,-4.46 a 0.45,0.45 0 0 0 -0.63,-0.12 l -4.58,3.09 a 0.46,0.46 0 0 0 -0.13,0.63 l 2.87,4.42 a 0.45,0.45 0 0 0 0.63,0.13 l 4.84,-3 a 0.46,0.46 0 0 0 0.13,-0.69 z"
       transform="translate(-57.92,-70.71)"
       id="path1390"
       inkscape:connector-curvature="0" />
    <path
       d="m 896.65,423.14 -3.13,-4.47 a 0.47,0.47 0 0 0 -0.64,-0.11 l -4.57,3.08 a 0.47,0.47 0 0 0 -0.13,0.64 l 2.87,4.41 a 0.46,0.46 0 0 0 0.63,0.14 l 4.84,-3 a 0.46,0.46 0 0 0 0.13,-0.69 z"
       transform="translate(-57.92,-70.71)"
       id="path1392"
       inkscape:connector-curvature="0" />
    <path
       d="m 889.59,428 -3.13,-4.47 a 0.47,0.47 0 0 0 -0.64,-0.11 l -4.58,3.08 a 0.48,0.48 0 0 0 -0.13,0.64 l 2.88,4.41 a 0.46,0.46 0 0 0 0.63,0.14 l 4.83,-3 a 0.45,0.45 0 0 0 0.14,-0.69 z"
       transform="translate(-57.92,-70.71)"
       id="path1394"
       inkscape:connector-curvature="0" />
    <path
       d="m 882.75,432.76 -3.13,-4.46 a 0.46,0.46 0 0 0 -0.64,-0.12 l -4.58,3.09 a 0.46,0.46 0 0 0 -0.12,0.63 l 2.87,4.41 a 0.44,0.44 0 0 0 0.63,0.14 l 4.83,-3 a 0.45,0.45 0 0 0 0.14,-0.69 z"
       transform="translate(-57.92,-70.71)"
       id="path1396"
       inkscape:connector-curvature="0" />
    <path
       d="m 880.59,444.26 -3.13,-4.46 a 0.46,0.46 0 0 0 -0.63,-0.11 l -4.58,3.08 a 0.45,0.45 0 0 0 -0.13,0.63 l 2.87,4.42 a 0.47,0.47 0 0 0 0.63,0.14 l 4.84,-3 a 0.47,0.47 0 0 0 0.13,-0.7 z"
       transform="translate(-57.92,-70.71)"
       id="path1398"
       inkscape:connector-curvature="0" />
    <path
       d="m 873.75,449 -3.13,-4.46 a 0.45,0.45 0 0 0 -0.63,-0.12 l -4.58,3.09 a 0.45,0.45 0 0 0 -0.13,0.63 l 2.87,4.41 a 0.46,0.46 0 0 0 0.63,0.14 l 4.84,-3 a 0.46,0.46 0 0 0 0.13,-0.69 z"
       transform="translate(-57.92,-70.71)"
       id="path1400"
       inkscape:connector-curvature="0" />
    <path
       d="m 884.49,420.66 -3,-4.2 a 0.62,0.62 0 0 0 -0.85,-0.15 l -4.32,2.91 a 0.61,0.61 0 0 0 -0.17,0.85 l 2.7,4.15 a 0.6,0.6 0 0 0 0.84,0.19 l 4.57,-2.87 a 0.62,0.62 0 0 0 0.23,-0.88 z"
       transform="translate(-57.92,-70.71)"
       id="path1402"
       inkscape:connector-curvature="0" />
    <path
       d="m 877.65,425.4 -2.95,-4.2 a 0.61,0.61 0 0 0 -0.85,-0.16 l -4.32,2.96 a 0.6,0.6 0 0 0 -0.17,0.84 l 2.7,4.16 a 0.62,0.62 0 0 0 0.84,0.19 l 4.57,-2.87 a 0.62,0.62 0 0 0 0.18,-0.92 z"
       transform="translate(-57.92,-70.71)"
       id="path1404"
       inkscape:connector-curvature="0" />
    <path
       d="m 870.81,430.14 -2.95,-4.21 a 0.62,0.62 0 0 0 -0.85,-0.15 l -4.32,2.91 a 0.61,0.61 0 0 0 -0.17,0.85 l 2.7,4.15 a 0.6,0.6 0 0 0 0.84,0.19 l 4.57,-2.87 a 0.61,0.61 0 0 0 0.18,-0.87 z"
       transform="translate(-57.92,-70.71)"
       id="path1406"
       inkscape:connector-curvature="0" />
    <path
       d="m 864.06,435 -3.13,-4.47 a 0.46,0.46 0 0 0 -0.63,-0.11 l -4.58,3.08 a 0.47,0.47 0 0 0 -0.13,0.64 l 2.87,4.41 a 0.47,0.47 0 0 0 0.63,0.14 l 4.84,-3 a 0.44,0.44 0 0 0 0.13,-0.69 z"
       transform="translate(-57.92,-70.71)"
       id="path1408"
       inkscape:connector-curvature="0" />
    <path
       d="M 945,388.85 942.29,385 a 1,1 0 0 0 -1.36,-0.24 l -10.58,7.41 a 1,1 0 0 0 -0.26,1.34 l 2.55,3.94 a 1,1 0 0 0 1.39,0.27 l 10.74,-7.51 a 1,1 0 0 0 0.23,-1.36 z"
       transform="translate(-57.92,-70.71)"
       id="path1410"
       inkscape:connector-curvature="0" />
    <path
       d="m 875.89,437.35 -3.32,-4.69 a 0.45,0.45 0 0 0 -0.64,-0.11 l -11.42,8 a 0.45,0.45 0 0 0 -0.12,0.62 l 3.12,4.83 a 0.46,0.46 0 0 0 0.65,0.13 L 875.77,438 a 0.47,0.47 0 0 0 0.12,-0.65 z"
       transform="translate(-57.92,-70.71)"
       id="path1412"
       inkscape:connector-curvature="0" />
    <path
       d="M 912.22,401.48 909.16,397 a 0.46,0.46 0 0 0 -0.63,-0.12 L 883.17,414 a 0.46,0.46 0 0 0 -0.13,0.63 l 3.13,4.8 a 0.46,0.46 0 0 0 0.65,0.13 l 25.28,-17.44 a 0.46,0.46 0 0 0 0.12,-0.64 z"
       transform="translate(-57.92,-70.71)"
       id="path1414"
       inkscape:connector-curvature="0" />
  </g>
  <path
     d="m 612.30999,329.96822 -2.52,-3.6 a 1,1 0 0 0 -1.36,-0.25 l -3.72,2.52 a 1,1 0 0 0 -0.28,1.35 l 2.31,3.55 a 1,1 0 0 0 1.35,0.3 l 3.94,-2.48 a 1,1 0 0 0 0.28,-1.39 z"
     id="path1418"
     inkscape:connector-curvature="0"
     style="fill:#464a5f" />
  <path
     d="m 605.56999,334.60822 -2.52,-3.59 a 1,1 0 0 0 -1.35,-0.25 l -3.73,2.51 a 1,1 0 0 0 -0.28,1.35 l 2.31,3.55 a 1,1 0 0 0 1.35,0.3 l 3.94,-2.47 a 1,1 0 0 0 0.28,-1.4 z"
     id="path1420"
     inkscape:connector-curvature="0"
     style="fill:#464a5f" />
  <path
     d="m 598.56999,339.48822 -2.52,-3.59 a 1,1 0 0 0 -1.36,-0.25 l -3.72,2.52 a 1,1 0 0 0 -0.28,1.35 l 2.31,3.55 a 1,1 0 0 0 1.35,0.29 l 3.94,-2.47 a 1,1 0 0 0 0.28,-1.4 z"
     id="path1422"
     inkscape:connector-curvature="0"
     style="fill:#464a5f" />
  <path
     d="m 591.42999,344.41822 -2.52,-3.6 a 1,1 0 0 0 -1.35,-0.25 l -3.73,2.52 a 1,1 0 0 0 -0.26,1.4 l 2.31,3.55 a 1,1 0 0 0 1.35,0.3 l 3.93,-2.48 a 1,1 0 0 0 0.27,-1.44 z"
     id="path1424"
     inkscape:connector-curvature="0"
     style="fill:#464a5f" />
  <path
     d="m 584.30999,349.34822 -2.52,-3.59 a 1,1 0 0 0 -1.35,-0.25 l -3.73,2.51 a 1,1 0 0 0 -0.27,1.35 l 2.3,3.55 a 1,1 0 0 0 1.35,0.3 l 3.94,-2.48 a 1,1 0 0 0 0.28,-1.39 z"
     id="path1426"
     inkscape:connector-curvature="0"
     style="fill:#464a5f" />
  <path
     d="m 577.49999,354.72822 -3.13,-4.46 a 0.45,0.45 0 0 0 -0.63,-0.12 l -4.58,3.09 a 0.45,0.45 0 0 0 -0.13,0.63 l 2.87,4.41 a 0.46,0.46 0 0 0 0.63,0.14 l 4.84,-3 a 0.46,0.46 0 0 0 0.13,-0.69 z"
     id="path1428"
     inkscape:connector-curvature="0"
     style="fill:#464a5f" />
  <path
     d="m 570.37999,359.65822 -3.13,-4.46 a 0.46,0.46 0 0 0 -0.64,-0.12 l -4.57,3.09 a 0.45,0.45 0 0 0 -0.13,0.63 l 2.87,4.42 a 0.45,0.45 0 0 0 0.63,0.13 l 4.84,-3 a 0.47,0.47 0 0 0 0.13,-0.69 z"
     id="path1430"
     inkscape:connector-curvature="0"
     style="fill:#464a5f" />
  <path
     d="m 564.06999,364.02822 -3.13,-4.47 a 0.46,0.46 0 0 0 -0.63,-0.11 l -4.58,3.04 a 0.47,0.47 0 0 0 -0.13,0.64 l 2.87,4.41 a 0.47,0.47 0 0 0 0.63,0.14 l 4.84,-3 a 0.46,0.46 0 0 0 0.13,-0.65 z"
     id="path1432"
     inkscape:connector-curvature="0"
     style="fill:#464a5f" />
  <path
     d="m 557.00999,368.91822 -3.13,-4.43 a 0.46,0.46 0 0 0 -0.63,-0.11 l -4.58,3.08 a 0.46,0.46 0 0 0 -0.13,0.64 l 2.87,4.41 a 0.47,0.47 0 0 0 0.63,0.14 l 4.84,-3 a 0.46,0.46 0 0 0 0.13,-0.73 z"
     id="path1434"
     inkscape:connector-curvature="0"
     style="fill:#464a5f" />
  <path
     d="m 550.16999,373.64822 -3.13,-4.46 a 0.45,0.45 0 0 0 -0.63,-0.12 l -4.58,3.09 a 0.45,0.45 0 0 0 -0.13,0.63 l 2.87,4.41 a 0.45,0.45 0 0 0 0.63,0.14 l 4.84,-3 a 0.46,0.46 0 0 0 0.13,-0.69 z"
     id="path1436"
     inkscape:connector-curvature="0"
     style="fill:#464a5f" />
  <path
     d="m 543.32999,378.38822 -3.13,-4.47 a 0.46,0.46 0 0 0 -0.63,-0.11 l -4.58,3.08 a 0.47,0.47 0 0 0 -0.13,0.64 l 2.87,4.41 a 0.47,0.47 0 0 0 0.63,0.14 l 4.84,-3 a 0.46,0.46 0 0 0 0.13,-0.69 z"
     id="path1438"
     inkscape:connector-curvature="0"
     style="fill:#464a5f" />
  <path
     d="m 536.48999,383.11822 -3.13,-4.46 a 0.45,0.45 0 0 0 -0.63,-0.12 l -4.58,3.09 a 0.45,0.45 0 0 0 -0.13,0.63 l 2.87,4.41 a 0.45,0.45 0 0 0 0.63,0.14 l 4.84,-3 a 0.46,0.46 0 0 0 0.13,-0.69 z"
     id="path1440"
     inkscape:connector-curvature="0"
     style="fill:#464a5f" />
  <path
     d="m 607.79999,323.48822 -2.52,-3.6 a 1,1 0 0 0 -1.35,-0.25 l -3.73,2.52 a 1,1 0 0 0 -0.27,1.35 l 2.3,3.55 a 1,1 0 0 0 1.35,0.3 l 3.94,-2.48 a 1,1 0 0 0 0.28,-1.39 z"
     id="path1442"
     inkscape:connector-curvature="0"
     style="fill:#464a5f" />
  <path
     d="m 597.94999,309.22822 -2.52,-3.59 a 1,1 0 0 0 -1.35,-0.25 l -3.73,2.51 a 1,1 0 0 0 -0.27,1.35 l 2.31,3.55 a 1,1 0 0 0 1.34,0.3 l 3.94,-2.47 a 1,1 0 0 0 0.28,-1.4 z"
     id="path1444"
     inkscape:connector-curvature="0"
     style="fill:#464a5f" />
  <path
     d="m 601.08999,328.09822 -2.52,-3.61 a 1,1 0 0 0 -1.35,-0.25 l -3.73,2.51 a 1,1 0 0 0 -0.27,1.35 l 2.31,3.55 a 1,1 0 0 0 1.34,0.3 l 3.94,-2.47 a 1,1 0 0 0 0.28,-1.38 z"
     id="path1446"
     inkscape:connector-curvature="0"
     style="fill:#464a5f" />
  <path
     d="m 594.04999,332.96822 -2.48,-3.59 a 1,1 0 0 0 -1.35,-0.25 l -3.73,2.51 a 1,1 0 0 0 -0.27,1.36 l 2.3,3.55 a 1,1 0 0 0 1.35,0.29 l 3.94,-2.47 a 1,1 0 0 0 0.24,-1.4 z"
     id="path1448"
     inkscape:connector-curvature="0"
     style="fill:#464a5f" />
  <path
     d="m 586.92999,337.90822 -2.52,-3.6 a 1,1 0 0 0 -1.36,-0.25 l -3.72,2.52 a 1,1 0 0 0 -0.28,1.35 l 2.31,3.55 a 1,1 0 0 0 1.35,0.3 l 3.94,-2.48 a 1,1 0 0 0 0.28,-1.39 z"
     id="path1450"
     inkscape:connector-curvature="0"
     style="fill:#464a5f" />
  <path
     d="m 591.39999,314.09822 -2.52,-3.61 a 1,1 0 0 0 -1.35,-0.25 l -3.73,2.51 a 1,1 0 0 0 -0.27,1.35 l 2.31,3.55 a 1,1 0 0 0 1.34,0.3 l 3.94,-2.47 a 1,1 0 0 0 0.28,-1.38 z"
     id="path1452"
     inkscape:connector-curvature="0"
     style="fill:#464a5f" />
  <path
     d="m 584.35999,318.97822 -2.52,-3.6 a 1,1 0 0 0 -1.35,-0.25 l -3.73,2.52 a 1,1 0 0 0 -0.28,1.35 l 2.31,3.55 a 1,1 0 0 0 1.35,0.3 l 3.94,-2.48 a 1,1 0 0 0 0.28,-1.39 z"
     id="path1454"
     inkscape:connector-curvature="0"
     style="fill:#464a5f" />
  <path
     d="m 577.23999,323.90822 -2.52,-3.59 a 1,1 0 0 0 -1.36,-0.25 l -3.72,2.51 a 1,1 0 0 0 -0.28,1.35 l 2.31,3.56 a 1,1 0 0 0 1.35,0.3 l 3.93,-2.48 a 1,1 0 0 0 0.29,-1.4 z"
     id="path1456"
     inkscape:connector-curvature="0"
     style="fill:#464a5f" />
  <path
     d="m 579.79999,342.83822 -2.52,-3.59 a 1,1 0 0 0 -1.35,-0.25 l -3.73,2.49 a 1,1 0 0 0 -0.27,1.35 l 2.31,3.55 a 1,1 0 0 0 1.34,0.3 l 3.94,-2.48 a 1,1 0 0 0 0.28,-1.37 z"
     id="path1458"
     inkscape:connector-curvature="0"
     style="fill:#464a5f" />
  <path
     d="m 572.67999,347.76822 -2.52,-3.59 a 1,1 0 0 0 -1.35,-0.25 l -3.73,2.56 a 1,1 0 0 0 -0.28,1.35 l 2.31,3.55 a 1,1 0 0 0 1.35,0.3 l 3.94,-2.47 a 1,1 0 0 0 0.28,-1.45 z"
     id="path1460"
     inkscape:connector-curvature="0"
     style="fill:#464a5f" />
  <path
     d="m 565.86999,353.14822 -3.13,-4.46 a 0.45,0.45 0 0 0 -0.63,-0.12 l -4.54,3.09 a 0.45,0.45 0 0 0 -0.13,0.63 l 2.87,4.41 a 0.45,0.45 0 0 0 0.63,0.14 l 4.84,-3 a 0.47,0.47 0 0 0 0.09,-0.69 z"
     id="path1462"
     inkscape:connector-curvature="0"
     style="fill:#464a5f" />
  <path
     d="m 559.56999,357.48822 -3.13,-4.47 a 0.47,0.47 0 0 0 -0.64,-0.11 l -4.58,3.08 a 0.48,0.48 0 0 0 -0.13,0.64 l 2.88,4.41 a 0.46,0.46 0 0 0 0.63,0.14 l 4.83,-3 a 0.45,0.45 0 0 0 0.14,-0.69 z"
     id="path1464"
     inkscape:connector-curvature="0"
     style="fill:#464a5f" />
  <path
     d="m 552.49999,362.40822 -3.13,-4.47 a 0.46,0.46 0 0 0 -0.63,-0.11 l -4.58,3.08 a 0.47,0.47 0 0 0 -0.13,0.64 l 2.87,4.41 a 0.47,0.47 0 0 0 0.63,0.14 l 4.84,-3 a 0.44,0.44 0 0 0 0.13,-0.69 z"
     id="path1466"
     inkscape:connector-curvature="0"
     style="fill:#464a5f" />
  <path
     d="m 545.66999,367.13822 -3.1,-4.46 a 0.45,0.45 0 0 0 -0.63,-0.12 l -4.58,3.09 a 0.46,0.46 0 0 0 -0.13,0.63 l 2.87,4.41 a 0.46,0.46 0 0 0 0.63,0.14 l 4.84,-3 a 0.45,0.45 0 0 0 0.1,-0.69 z"
     id="path1468"
     inkscape:connector-curvature="0"
     style="fill:#464a5f" />
  <path
     d="m 589.35999,326.20822 -2.51,-3.6 a 1,1 0 0 0 -1.36,-0.25 l -3.73,2.52 a 1,1 0 0 0 -0.27,1.35 l 2.31,3.55 a 1,1 0 0 0 1.35,0.29 l 3.93,-2.47 a 1,1 0 0 0 0.28,-1.39 z"
     id="path1470"
     inkscape:connector-curvature="0"
     style="fill:#464a5f" />
  <path
     d="m 582.23999,331.13822 -2.52,-3.59 a 1,1 0 0 0 -1.35,-0.26 l -3.73,2.52 a 1,1 0 0 0 -0.27,1.35 l 2.31,3.55 a 1,1 0 0 0 1.34,0.3 l 3.94,-2.48 a 1,1 0 0 0 0.28,-1.39 z"
     id="path1472"
     inkscape:connector-curvature="0"
     style="fill:#464a5f" />
  <path
     d="m 575.11999,336.06822 -2.55,-3.58 a 1,1 0 0 0 -1.36,-0.25 l -3.64,2.5 a 1,1 0 0 0 -0.28,1.35 l 2.31,3.55 a 1,1 0 0 0 1.35,0.3 l 3.94,-2.47 a 1,1 0 0 0 0.23,-1.4 z"
     id="path1474"
     inkscape:connector-curvature="0"
     style="fill:#464a5f" />
  <path
     d="m 567.98999,340.99822 -2.52,-3.59 a 1,1 0 0 0 -1.35,-0.25 l -3.73,2.51 a 1,1 0 0 0 -0.27,1.35 l 2.31,3.55 a 1,1 0 0 0 1.34,0.3 l 3.94,-2.47 a 1,1 0 0 0 0.28,-1.4 z"
     id="path1476"
     inkscape:connector-curvature="0"
     style="fill:#464a5f" />
  <path
     d="m 561.18999,346.37822 -3.13,-4.46 a 0.46,0.46 0 0 0 -0.64,-0.12 l -4.58,3.09 a 0.46,0.46 0 0 0 -0.13,0.63 l 2.87,4.42 a 0.46,0.46 0 0 0 0.64,0.13 l 4.83,-3 a 0.46,0.46 0 0 0 0.14,-0.69 z"
     id="path1478"
     inkscape:connector-curvature="0"
     style="fill:#464a5f" />
  <path
     d="m 554.87999,350.74822 -3.13,-4.46 a 0.45,0.45 0 0 0 -0.63,-0.12 l -4.55,3.08 a 0.47,0.47 0 0 0 -0.13,0.64 l 2.87,4.41 a 0.47,0.47 0 0 0 0.63,0.14 l 4.84,-3 a 0.46,0.46 0 0 0 0.1,-0.69 z"
     id="path1480"
     inkscape:connector-curvature="0"
     style="fill:#464a5f" />
  <path
     d="m 547.81999,355.63822 -3.13,-4.47 a 0.47,0.47 0 0 0 -0.64,-0.11 l -4.57,3.08 a 0.47,0.47 0 0 0 -0.13,0.64 l 2.87,4.41 a 0.46,0.46 0 0 0 0.63,0.14 l 4.84,-3 a 0.46,0.46 0 0 0 0.13,-0.69 z"
     id="path1482"
     inkscape:connector-curvature="0"
     style="fill:#464a5f" />
  <path
     d="m 540.97999,360.36822 -3.13,-4.46 a 0.46,0.46 0 0 0 -0.64,-0.12 l -4.57,3.09 a 0.45,0.45 0 0 0 -0.13,0.63 l 2.87,4.42 a 0.45,0.45 0 0 0 0.63,0.13 l 4.84,-3 a 0.47,0.47 0 0 0 0.13,-0.69 z"
     id="path1484"
     inkscape:connector-curvature="0"
     style="fill:#464a5f" />
  <path
     d="m 538.82999,371.87822 -3.13,-4.47 a 0.47,0.47 0 0 0 -0.64,-0.11 l -4.58,3.08 a 0.47,0.47 0 0 0 -0.13,0.64 l 2.87,4.41 a 0.47,0.47 0 0 0 0.63,0.14 l 4.84,-3 a 0.45,0.45 0 0 0 0.14,-0.69 z"
     id="path1486"
     inkscape:connector-curvature="0"
     style="fill:#464a5f" />
  <path
     d="m 531.98999,376.60822 -3.13,-4.46 a 0.46,0.46 0 0 0 -0.64,-0.12 l -4.58,3.09 a 0.46,0.46 0 0 0 -0.13,0.63 l 2.87,4.41 a 0.46,0.46 0 0 0 0.64,0.14 l 4.83,-3 a 0.45,0.45 0 0 0 0.14,-0.69 z"
     id="path1488"
     inkscape:connector-curvature="0"
     style="fill:#464a5f" />
  <path
     d="m 542.71999,348.27822 -2.95,-4.21 a 0.62,0.62 0 0 0 -0.85,-0.15 l -4.35,2.91 a 0.62,0.62 0 0 0 -0.17,0.85 l 2.7,4.16 a 0.62,0.62 0 0 0 0.85,0.18 l 4.56,-2.87 a 0.61,0.61 0 0 0 0.21,-0.87 z"
     id="path1490"
     inkscape:connector-curvature="0"
     style="fill:#464a5f" />
  <path
     d="m 535.87999,353.00822 -2.95,-4.2 a 0.61,0.61 0 0 0 -0.85,-0.16 l -4.32,2.92 a 0.61,0.61 0 0 0 -0.17,0.84 l 2.7,4.16 a 0.63,0.63 0 0 0 0.85,0.19 l 4.57,-2.87 a 0.63,0.63 0 0 0 0.17,-0.88 z"
     id="path1492"
     inkscape:connector-curvature="0"
     style="fill:#464a5f" />
  <path
     d="m 529.03999,357.74822 -3,-4.21 a 0.61,0.61 0 0 0 -0.84,-0.15 l -4.33,2.91 a 0.62,0.62 0 0 0 -0.17,0.85 l 2.7,4.16 a 0.62,0.62 0 0 0 0.85,0.18 l 4.57,-2.87 a 0.61,0.61 0 0 0 0.22,-0.87 z"
     id="path1494"
     inkscape:connector-curvature="0"
     style="fill:#464a5f" />
  <path
     d="m 522.29999,362.61822 -3.13,-4.47 a 0.47,0.47 0 0 0 -0.64,-0.11 l -4.58,3.08 a 0.47,0.47 0 0 0 -0.12,0.64 l 2.87,4.41 a 0.46,0.46 0 0 0 0.63,0.14 l 4.84,-3 a 0.46,0.46 0 0 0 0.13,-0.69 z"
     id="path1496"
     inkscape:connector-curvature="0"
     style="fill:#464a5f" />
  <path
     d="m 603.23999,316.48822 -2.67,-3.86 a 1,1 0 0 0 -1.36,-0.24 l -10.64,7.41 a 1,1 0 0 0 -0.26,1.34 l 2.56,3.94 a 1,1 0 0 0 1.39,0.27 l 10.73,-7.51 a 1,1 0 0 0 0.25,-1.35 z"
     id="path1498"
     inkscape:connector-curvature="0"
     style="fill:#464a5f" />
  <path
     d="m 534.11999,364.95822 -3.32,-4.69 a 0.45,0.45 0 0 0 -0.64,-0.11 l -11.42,8 a 0.46,0.46 0 0 0 -0.12,0.63 l 3.13,4.82 a 0.46,0.46 0 0 0 0.65,0.13 l 11.61,-8.13 a 0.47,0.47 0 0 0 0.11,-0.65 z"
     id="path1500"
     inkscape:connector-curvature="0"
     style="fill:#464a5f" />
  <path
     d="m 570.44999,329.08822 -3,-4.45 a 0.47,0.47 0 0 0 -0.64,-0.13 l -25.35,17.1 a 0.45,0.45 0 0 0 -0.13,0.63 l 3.12,4.8 a 0.46,0.46 0 0 0 0.65,0.13 l 25.28,-17.44 a 0.46,0.46 0 0 0 0.07,-0.64 z"
     id="path1502"
     inkscape:connector-curvature="0"
     style="fill:#464a5f" />
  <path
     d="m 570.56999,313.80822 -13.48,-19.59 a 2.5,2.5 0 0 0 -3.46,-0.66 l -37.13,24.93 a 2.51,2.51 0 0 0 -0.67,3.49 l 13.74,20.15 a 2.5,2.5 0 0 0 3.49,0.66 l 36.87,-25.51 a 2.49,2.49 0 0 0 0.64,-3.47 z"
     id="path1504"
     inkscape:connector-curvature="0"
     style="opacity:0.1" />
  <path
     d="m 571.18999,313.92822 -13.48,-19.59 a 2.51,2.51 0 0 0 -3.46,-0.66 l -37.08,24.95 a 2.5,2.5 0 0 0 -0.68,3.49 l 13.7,20.13 a 2.5,2.5 0 0 0 3.49,0.66 l 36.89,-25.51 a 2.49,2.49 0 0 0 0.62,-3.47 z"
     id="path1506"
     inkscape:connector-curvature="0"
     style="fill:#939498" />
  <path
     d="m 654.77999,345.58822 -28.6,-9.54 -91.73,63.72 28.39,9.25 a 5.2,5.2 0 0 0 4.59,-0.68 l 87.61,-60.92 a 1,1 0 0 0 -0.26,-1.83 z"
     id="path1508"
     inkscape:connector-curvature="0"
     style="fill:#ffffff" />
</svg>
